G04 #@! TF.GenerationSoftware,KiCad,Pcbnew,(5.1.7)-1*
G04 #@! TF.CreationDate,2020-12-04T08:14:49+03:00*
G04 #@! TF.ProjectId,SmartyKitPCB,536d6172-7479-44b6-9974-5043422e6b69,rev?*
G04 #@! TF.SameCoordinates,Original*
G04 #@! TF.FileFunction,Copper,L2,Bot*
G04 #@! TF.FilePolarity,Positive*
%FSLAX46Y46*%
G04 Gerber Fmt 4.6, Leading zero omitted, Abs format (unit mm)*
G04 Created by KiCad (PCBNEW (5.1.7)-1) date 2020-12-04 08:14:49*
%MOMM*%
%LPD*%
G01*
G04 APERTURE LIST*
G04 #@! TA.AperFunction,ComponentPad*
%ADD10C,2.600000*%
G04 #@! TD*
G04 #@! TA.AperFunction,ComponentPad*
%ADD11R,2.600000X2.600000*%
G04 #@! TD*
G04 #@! TA.AperFunction,ComponentPad*
%ADD12O,1.700000X1.700000*%
G04 #@! TD*
G04 #@! TA.AperFunction,ComponentPad*
%ADD13R,1.700000X1.700000*%
G04 #@! TD*
G04 #@! TA.AperFunction,ComponentPad*
%ADD14O,1.440000X2.000000*%
G04 #@! TD*
G04 #@! TA.AperFunction,ComponentPad*
%ADD15R,1.440000X2.000000*%
G04 #@! TD*
G04 #@! TA.AperFunction,ComponentPad*
%ADD16O,1.600000X1.600000*%
G04 #@! TD*
G04 #@! TA.AperFunction,ComponentPad*
%ADD17C,1.600000*%
G04 #@! TD*
G04 #@! TA.AperFunction,ComponentPad*
%ADD18R,1.600000X1.600000*%
G04 #@! TD*
G04 #@! TA.AperFunction,ComponentPad*
%ADD19C,1.500000*%
G04 #@! TD*
G04 #@! TA.AperFunction,ComponentPad*
%ADD20C,2.000000*%
G04 #@! TD*
G04 #@! TA.AperFunction,ComponentPad*
%ADD21C,3.616000*%
G04 #@! TD*
G04 #@! TA.AperFunction,ComponentPad*
%ADD22C,2.550000*%
G04 #@! TD*
G04 #@! TA.AperFunction,ComponentPad*
%ADD23C,1.800000*%
G04 #@! TD*
G04 #@! TA.AperFunction,ComponentPad*
%ADD24R,1.800000X1.800000*%
G04 #@! TD*
G04 #@! TA.AperFunction,ComponentPad*
%ADD25C,1.400000*%
G04 #@! TD*
G04 #@! TA.AperFunction,ComponentPad*
%ADD26R,1.400000X1.400000*%
G04 #@! TD*
G04 #@! TA.AperFunction,ComponentPad*
%ADD27O,2.000000X4.000000*%
G04 #@! TD*
G04 #@! TA.AperFunction,ComponentPad*
%ADD28O,3.500000X2.000000*%
G04 #@! TD*
G04 #@! TA.AperFunction,ComponentPad*
%ADD29C,3.000000*%
G04 #@! TD*
G04 #@! TA.AperFunction,ComponentPad*
%ADD30R,3.000000X3.000000*%
G04 #@! TD*
G04 #@! TA.AperFunction,ViaPad*
%ADD31C,0.800000*%
G04 #@! TD*
G04 #@! TA.AperFunction,Conductor*
%ADD32C,0.250000*%
G04 #@! TD*
G04 #@! TA.AperFunction,Conductor*
%ADD33C,0.500000*%
G04 #@! TD*
G04 APERTURE END LIST*
D10*
X489839000Y-113237000D03*
D11*
X489839000Y-118237000D03*
D12*
X490728000Y-104140000D03*
X490728000Y-101600000D03*
D13*
X490728000Y-99060000D03*
D14*
X425462000Y-142400000D03*
X425462000Y-157640000D03*
X422922000Y-142400000D03*
X422922000Y-157640000D03*
X420382000Y-142400000D03*
X420382000Y-157640000D03*
X417842000Y-142400000D03*
X417842000Y-157640000D03*
X415302000Y-142400000D03*
X415302000Y-157640000D03*
X412762000Y-142400000D03*
X412762000Y-157640000D03*
X410222000Y-142400000D03*
X410222000Y-157640000D03*
X407682000Y-142400000D03*
X407682000Y-157640000D03*
X405142000Y-142400000D03*
X405142000Y-157640000D03*
X402602000Y-142400000D03*
X402602000Y-157640000D03*
X400062000Y-142400000D03*
X400062000Y-157640000D03*
X397522000Y-142400000D03*
X397522000Y-157640000D03*
X394982000Y-142400000D03*
X394982000Y-157640000D03*
X392442000Y-142400000D03*
X392442000Y-157640000D03*
X389902000Y-142400000D03*
X389902000Y-157640000D03*
X387362000Y-142400000D03*
X387362000Y-157640000D03*
X384822000Y-142400000D03*
X384822000Y-157640000D03*
X382282000Y-142400000D03*
X382282000Y-157640000D03*
X379742000Y-142400000D03*
X379742000Y-157640000D03*
X377202000Y-142400000D03*
D15*
X377202000Y-157640000D03*
D14*
X356870000Y-172720000D03*
X356870000Y-187960000D03*
X354330000Y-172720000D03*
X354330000Y-187960000D03*
X351790000Y-172720000D03*
X351790000Y-187960000D03*
X349250000Y-172720000D03*
X349250000Y-187960000D03*
X346710000Y-172720000D03*
X346710000Y-187960000D03*
X344170000Y-172720000D03*
X344170000Y-187960000D03*
X341630000Y-172720000D03*
X341630000Y-187960000D03*
X339090000Y-172720000D03*
X339090000Y-187960000D03*
X336550000Y-172720000D03*
X336550000Y-187960000D03*
X334010000Y-172720000D03*
X334010000Y-187960000D03*
X331470000Y-172720000D03*
X331470000Y-187960000D03*
X328930000Y-172720000D03*
X328930000Y-187960000D03*
X326390000Y-172720000D03*
X326390000Y-187960000D03*
X323850000Y-172720000D03*
D15*
X323850000Y-187960000D03*
D14*
X358140000Y-34290000D03*
X358140000Y-49530000D03*
X355600000Y-34290000D03*
X355600000Y-49530000D03*
X353060000Y-34290000D03*
X353060000Y-49530000D03*
X350520000Y-34290000D03*
X350520000Y-49530000D03*
X347980000Y-34290000D03*
X347980000Y-49530000D03*
X345440000Y-34290000D03*
X345440000Y-49530000D03*
X342900000Y-34290000D03*
X342900000Y-49530000D03*
X340360000Y-34290000D03*
X340360000Y-49530000D03*
X337820000Y-34290000D03*
X337820000Y-49530000D03*
X335280000Y-34290000D03*
X335280000Y-49530000D03*
X332740000Y-34290000D03*
X332740000Y-49530000D03*
X330200000Y-34290000D03*
X330200000Y-49530000D03*
X327660000Y-34290000D03*
X327660000Y-49530000D03*
X325120000Y-34290000D03*
D15*
X325120000Y-49530000D03*
D14*
X480060000Y-73660000D03*
X480060000Y-88900000D03*
X477520000Y-73660000D03*
X477520000Y-88900000D03*
X474980000Y-73660000D03*
X474980000Y-88900000D03*
X472440000Y-73660000D03*
X472440000Y-88900000D03*
X469900000Y-73660000D03*
X469900000Y-88900000D03*
X467360000Y-73660000D03*
X467360000Y-88900000D03*
X464820000Y-73660000D03*
X464820000Y-88900000D03*
X462280000Y-73660000D03*
X462280000Y-88900000D03*
X459740000Y-73660000D03*
X459740000Y-88900000D03*
X457200000Y-73660000D03*
X457200000Y-88900000D03*
X454660000Y-73660000D03*
X454660000Y-88900000D03*
X452120000Y-73660000D03*
X452120000Y-88900000D03*
X449580000Y-73660000D03*
X449580000Y-88900000D03*
X447040000Y-73660000D03*
D15*
X447040000Y-88900000D03*
D14*
X358140000Y-73660000D03*
X358140000Y-88900000D03*
X355600000Y-73660000D03*
X355600000Y-88900000D03*
X353060000Y-73660000D03*
X353060000Y-88900000D03*
X350520000Y-73660000D03*
X350520000Y-88900000D03*
X347980000Y-73660000D03*
X347980000Y-88900000D03*
X345440000Y-73660000D03*
X345440000Y-88900000D03*
X342900000Y-73660000D03*
X342900000Y-88900000D03*
X340360000Y-73660000D03*
X340360000Y-88900000D03*
X337820000Y-73660000D03*
X337820000Y-88900000D03*
X335280000Y-73660000D03*
X335280000Y-88900000D03*
X332740000Y-73660000D03*
X332740000Y-88900000D03*
X330200000Y-73660000D03*
X330200000Y-88900000D03*
X327660000Y-73660000D03*
X327660000Y-88900000D03*
X325120000Y-73660000D03*
D15*
X325120000Y-88900000D03*
D14*
X425450000Y-172720000D03*
X425450000Y-187960000D03*
X422910000Y-172720000D03*
X422910000Y-187960000D03*
X420370000Y-172720000D03*
X420370000Y-187960000D03*
X417830000Y-172720000D03*
X417830000Y-187960000D03*
X415290000Y-172720000D03*
X415290000Y-187960000D03*
X412750000Y-172720000D03*
X412750000Y-187960000D03*
X410210000Y-172720000D03*
X410210000Y-187960000D03*
X407670000Y-172720000D03*
X407670000Y-187960000D03*
X405130000Y-172720000D03*
X405130000Y-187960000D03*
X402590000Y-172720000D03*
X402590000Y-187960000D03*
X400050000Y-172720000D03*
X400050000Y-187960000D03*
X397510000Y-172720000D03*
X397510000Y-187960000D03*
X394970000Y-172720000D03*
X394970000Y-187960000D03*
X392430000Y-172720000D03*
D15*
X392430000Y-187960000D03*
D12*
X406400000Y-2540000D03*
D13*
X403860000Y-2540000D03*
D12*
X388620000Y-2540000D03*
D13*
X386080000Y-2540000D03*
D16*
X438150000Y-132080000D03*
D17*
X430530000Y-132080000D03*
D12*
X373380000Y-2540000D03*
X370840000Y-2540000D03*
X368300000Y-2540000D03*
D13*
X365760000Y-2540000D03*
D12*
X425450000Y-2540000D03*
X422910000Y-2540000D03*
X420370000Y-2540000D03*
D13*
X417830000Y-2540000D03*
D12*
X491490000Y-2540000D03*
X488950000Y-2540000D03*
X486410000Y-2540000D03*
X483870000Y-2540000D03*
X481330000Y-2540000D03*
X478790000Y-2540000D03*
X476250000Y-2540000D03*
D13*
X473710000Y-2540000D03*
D12*
X468630000Y-2540000D03*
X466090000Y-2540000D03*
X463550000Y-2540000D03*
X461010000Y-2540000D03*
X458470000Y-2540000D03*
X455930000Y-2540000D03*
X453390000Y-2540000D03*
X450850000Y-2540000D03*
X448310000Y-2540000D03*
X445770000Y-2540000D03*
X443230000Y-2540000D03*
X440690000Y-2540000D03*
X438150000Y-2540000D03*
X435610000Y-2540000D03*
X433070000Y-2540000D03*
D13*
X430530000Y-2540000D03*
D16*
X462280000Y-52070000D03*
D17*
X469900000Y-52070000D03*
D12*
X469900000Y-58420000D03*
D13*
X469900000Y-60960000D03*
D12*
X487680000Y-36830000D03*
X487680000Y-39370000D03*
D13*
X487680000Y-41910000D03*
D17*
X355520000Y-66040000D03*
X350520000Y-66040000D03*
X462200000Y-66040000D03*
X457200000Y-66040000D03*
X438150000Y-181690000D03*
X438150000Y-186690000D03*
X369570000Y-186610000D03*
X369570000Y-181610000D03*
D12*
X309880000Y-110490000D03*
D13*
X307340000Y-110490000D03*
D12*
X312420000Y-124460000D03*
X309880000Y-124460000D03*
D13*
X307340000Y-124460000D03*
D17*
X336550000Y-11350000D03*
X336550000Y-6350000D03*
X342900000Y-62150000D03*
X342900000Y-57150000D03*
X482680000Y-140970000D03*
X487680000Y-140970000D03*
X445850000Y-168910000D03*
X450850000Y-168910000D03*
X468630000Y-118030000D03*
X468630000Y-113030000D03*
X438150000Y-147240000D03*
X438150000Y-142240000D03*
X370840000Y-118030000D03*
X370840000Y-113030000D03*
D16*
X321310000Y-8890000D03*
D17*
X328930000Y-8890000D03*
D16*
X345000000Y-6150000D03*
X362780000Y-13770000D03*
X347540000Y-6150000D03*
X360240000Y-13770000D03*
X350080000Y-6150000D03*
X357700000Y-13770000D03*
X352620000Y-6150000D03*
X355160000Y-13770000D03*
X355160000Y-6150000D03*
X352620000Y-13770000D03*
X357700000Y-6150000D03*
X350080000Y-13770000D03*
X360240000Y-6150000D03*
X347540000Y-13770000D03*
X362780000Y-6150000D03*
D18*
X345000000Y-13770000D03*
D12*
X359410000Y-152400000D03*
D13*
X356870000Y-152400000D03*
D12*
X359410000Y-142240000D03*
D13*
X356870000Y-142240000D03*
D19*
X356235000Y-25400000D03*
X361115000Y-25400000D03*
D16*
X328180000Y-26830000D03*
D17*
X328180000Y-19210000D03*
D16*
X324370000Y-19210000D03*
D17*
X324370000Y-26830000D03*
X350515000Y-19180000D03*
X355515000Y-19180000D03*
X358665000Y-19180000D03*
X363665000Y-19180000D03*
D12*
X440575000Y-61120000D03*
X438035000Y-61120000D03*
X435495000Y-61120000D03*
X432955000Y-61120000D03*
X430415000Y-61120000D03*
D13*
X427875000Y-61120000D03*
D12*
X318742000Y-59469000D03*
X316202000Y-59469000D03*
X313662000Y-59469000D03*
X311122000Y-59469000D03*
X308582000Y-59469000D03*
D13*
X306042000Y-59469000D03*
D17*
X450909000Y-61247000D03*
X445909000Y-61247000D03*
X328822000Y-59342000D03*
X323822000Y-59342000D03*
D20*
X309915000Y-75852000D03*
X309915000Y-80352000D03*
X303415000Y-75852000D03*
X303415000Y-80352000D03*
D19*
X347980000Y-97990000D03*
X347980000Y-102870000D03*
D16*
X325120000Y-96520000D03*
D17*
X332740000Y-96520000D03*
X336630000Y-100330000D03*
X341630000Y-100330000D03*
X354410000Y-100330000D03*
X359410000Y-100330000D03*
D16*
X313067000Y-26830000D03*
D17*
X320687000Y-26830000D03*
D16*
X302907000Y-26830000D03*
D17*
X310527000Y-26830000D03*
D21*
X309245000Y-9070000D03*
X304245000Y-13570000D03*
X314245000Y-13570000D03*
D22*
X309245000Y-13570000D03*
D12*
X327660000Y-66040000D03*
D13*
X325120000Y-66040000D03*
D12*
X391664000Y-101406000D03*
X389124000Y-101406000D03*
X386584000Y-101406000D03*
X384044000Y-101406000D03*
X381504000Y-101406000D03*
D13*
X378964000Y-101406000D03*
D12*
X414524000Y-101406000D03*
X411984000Y-101406000D03*
X409444000Y-101406000D03*
X406904000Y-101406000D03*
D13*
X404364000Y-101406000D03*
D12*
X399284000Y-101406000D03*
D13*
X396744000Y-101406000D03*
D23*
X422910000Y-132080000D03*
D24*
X425450000Y-132080000D03*
D25*
X486920000Y-29130000D03*
X486920000Y-26630000D03*
X486920000Y-24130000D03*
X490220000Y-29130000D03*
X490220000Y-26630000D03*
D26*
X490220000Y-24130000D03*
D16*
X492760000Y-7620000D03*
D17*
X485140000Y-7620000D03*
X477440000Y-168910000D03*
X472440000Y-168910000D03*
X471170000Y-154860000D03*
X471170000Y-149860000D03*
X383540000Y-132000000D03*
X383540000Y-127000000D03*
D19*
X470420000Y-103465000D03*
X470420000Y-98585000D03*
D16*
X454660000Y-96520000D03*
D17*
X447040000Y-96520000D03*
D16*
X340260000Y-160258000D03*
D17*
X347880000Y-160258000D03*
D16*
X340260000Y-150098000D03*
D17*
X347880000Y-150098000D03*
D16*
X340260000Y-155178000D03*
D17*
X347880000Y-155178000D03*
X457280000Y-101600000D03*
X462280000Y-101600000D03*
X477600000Y-101600000D03*
X482600000Y-101600000D03*
D27*
X490060000Y-58450000D03*
D17*
X483610000Y-61850000D03*
X483610000Y-55050000D03*
X486410000Y-61850000D03*
X486410000Y-55050000D03*
X486410000Y-59750000D03*
D18*
X486410000Y-57150000D03*
D28*
X489260000Y-51600000D03*
X489260000Y-65300000D03*
D16*
X391477000Y-126922000D03*
X406717000Y-134542000D03*
X394017000Y-126922000D03*
X404177000Y-134542000D03*
X396557000Y-126922000D03*
X401637000Y-134542000D03*
X399097000Y-126922000D03*
X399097000Y-134542000D03*
X401637000Y-126922000D03*
X396557000Y-134542000D03*
X404177000Y-126922000D03*
X394017000Y-134542000D03*
X406717000Y-126922000D03*
D18*
X391477000Y-134542000D03*
D16*
X340360000Y-110490000D03*
X363220000Y-118110000D03*
X342900000Y-110490000D03*
X360680000Y-118110000D03*
X345440000Y-110490000D03*
X358140000Y-118110000D03*
X347980000Y-110490000D03*
X355600000Y-118110000D03*
X350520000Y-110490000D03*
X353060000Y-118110000D03*
X353060000Y-110490000D03*
X350520000Y-118110000D03*
X355600000Y-110490000D03*
X347980000Y-118110000D03*
X358140000Y-110490000D03*
X345440000Y-118110000D03*
X360680000Y-110490000D03*
X342900000Y-118110000D03*
X363220000Y-110490000D03*
D18*
X340360000Y-118110000D03*
D16*
X438150000Y-110490000D03*
X461010000Y-118110000D03*
X440690000Y-110490000D03*
X458470000Y-118110000D03*
X443230000Y-110490000D03*
X455930000Y-118110000D03*
X445770000Y-110490000D03*
X453390000Y-118110000D03*
X448310000Y-110490000D03*
X450850000Y-118110000D03*
X450850000Y-110490000D03*
X448310000Y-118110000D03*
X453390000Y-110490000D03*
X445770000Y-118110000D03*
X455930000Y-110490000D03*
X443230000Y-118110000D03*
X458470000Y-110490000D03*
X440690000Y-118110000D03*
X461010000Y-110490000D03*
D18*
X438150000Y-118110000D03*
D16*
X459740000Y-127000000D03*
X487680000Y-134620000D03*
X462280000Y-127000000D03*
X485140000Y-134620000D03*
X464820000Y-127000000D03*
X482600000Y-134620000D03*
X467360000Y-127000000D03*
X480060000Y-134620000D03*
X469900000Y-127000000D03*
X477520000Y-134620000D03*
X472440000Y-127000000D03*
X474980000Y-134620000D03*
X474980000Y-127000000D03*
X472440000Y-134620000D03*
X477520000Y-127000000D03*
X469900000Y-134620000D03*
X480060000Y-127000000D03*
X467360000Y-134620000D03*
X482600000Y-127000000D03*
X464820000Y-134620000D03*
X485140000Y-127000000D03*
X462280000Y-134620000D03*
X487680000Y-127000000D03*
D18*
X459740000Y-134620000D03*
D16*
X472500000Y-174880000D03*
X487740000Y-182500000D03*
X475040000Y-174880000D03*
X485200000Y-182500000D03*
X477580000Y-174880000D03*
X482660000Y-182500000D03*
X480120000Y-174880000D03*
X480120000Y-182500000D03*
X482660000Y-174880000D03*
X477580000Y-182500000D03*
X485200000Y-174880000D03*
X475040000Y-182500000D03*
X487740000Y-174880000D03*
D18*
X472500000Y-182500000D03*
D16*
X445770000Y-174880000D03*
X463550000Y-182500000D03*
X448310000Y-174880000D03*
X461010000Y-182500000D03*
X450850000Y-174880000D03*
X458470000Y-182500000D03*
X453390000Y-174880000D03*
X455930000Y-182500000D03*
X455930000Y-174880000D03*
X453390000Y-182500000D03*
X458470000Y-174880000D03*
X450850000Y-182500000D03*
X461010000Y-174880000D03*
X448310000Y-182500000D03*
X463550000Y-174880000D03*
D18*
X445770000Y-182500000D03*
D16*
X448310000Y-147320000D03*
X463550000Y-154940000D03*
X450850000Y-147320000D03*
X461010000Y-154940000D03*
X453390000Y-147320000D03*
X458470000Y-154940000D03*
X455930000Y-147320000D03*
X455930000Y-154940000D03*
X458470000Y-147320000D03*
X453390000Y-154940000D03*
X461010000Y-147320000D03*
X450850000Y-154940000D03*
X463550000Y-147320000D03*
D18*
X448310000Y-154940000D03*
D16*
X328942000Y-151290000D03*
D17*
X328942000Y-158910000D03*
D20*
X328912000Y-139860000D03*
X328912000Y-144360000D03*
X322412000Y-139860000D03*
X322412000Y-144360000D03*
D29*
X430530000Y-27940000D03*
D30*
X430530000Y-15240000D03*
D17*
X314292000Y-145560000D03*
X314292000Y-137940000D03*
X306672000Y-137940000D03*
D18*
X306672000Y-145560000D03*
D31*
X365631100Y-166364800D03*
X354540800Y-186280400D03*
X396448700Y-166364800D03*
X416371300Y-169732700D03*
X431626200Y-143464500D03*
X463694600Y-143725400D03*
X388905800Y-188221400D03*
X426054000Y-153938600D03*
X431626200Y-144464900D03*
X414151600Y-17859600D03*
X409634300Y-168074900D03*
X345440000Y-169080400D03*
X436855500Y-149659600D03*
X417242300Y-7026300D03*
X398459800Y-185757000D03*
X398459800Y-183600400D03*
X349946400Y-177365200D03*
X427133900Y-158703100D03*
X418508700Y-103149400D03*
X419763200Y-95666400D03*
X419040300Y-18127700D03*
X401484400Y-191435600D03*
X339090000Y-191395100D03*
X426897800Y-114335800D03*
X437535900Y-114335800D03*
X424705400Y-17771300D03*
X406705900Y-164129300D03*
X336963000Y-164288500D03*
X414178200Y-174045300D03*
X438693500Y-152909200D03*
X417855500Y-41727500D03*
X391667700Y-185054400D03*
X349526800Y-176347300D03*
X428248700Y-115677700D03*
X440679500Y-114704500D03*
X426010700Y-19057200D03*
X404669600Y-163679000D03*
X334010000Y-162837800D03*
X410445400Y-169060700D03*
X402460600Y-169060700D03*
X434152800Y-115639600D03*
X438632700Y-115073400D03*
X425430700Y-29776400D03*
X393604000Y-190261300D03*
X335239200Y-190222800D03*
X428248700Y-117968800D03*
X442436500Y-113623400D03*
X428992300Y-22055000D03*
X402151100Y-163563100D03*
X408909000Y-173933900D03*
X420309900Y-100738300D03*
X456847000Y-64493500D03*
X397035700Y-190084700D03*
X353141500Y-191008400D03*
X423514900Y-108638700D03*
X431778100Y-104760000D03*
X431931500Y-25783600D03*
X414384900Y-143917500D03*
X395659100Y-169055600D03*
X397500700Y-169205900D03*
X415250300Y-139544400D03*
X411870900Y-53678600D03*
X405722500Y-169786000D03*
X428013900Y-142784100D03*
X431096400Y-140336900D03*
X414855200Y-1357000D03*
X434835800Y-140523800D03*
X432561400Y-183625300D03*
X394970000Y-190024200D03*
X416432400Y-138500900D03*
X412667900Y-49694900D03*
X347096700Y-174450700D03*
X434798600Y-141586500D03*
X433354000Y-171390200D03*
X394705800Y-139537100D03*
X388632000Y-184842900D03*
X326284400Y-12614100D03*
X471150400Y-137849900D03*
X462424700Y-100145600D03*
X388389700Y-134443100D03*
X475766200Y-83340500D03*
X378964000Y-114430400D03*
X489132400Y-38737100D03*
X353695000Y-105694900D03*
X463649700Y-98032900D03*
X377582200Y-170731900D03*
X415000400Y-169857400D03*
X470618600Y-100492400D03*
X490020400Y-70668400D03*
X451214000Y-121628300D03*
X417873200Y-169001200D03*
X348204700Y-168006800D03*
X434772100Y-137744900D03*
X428376200Y-174171400D03*
X455930000Y-95342600D03*
X471359400Y-90513800D03*
X471359400Y-75201600D03*
X493579100Y-69361900D03*
X441429100Y-137744900D03*
X416630200Y-182740000D03*
X472687500Y-93012200D03*
X489596500Y-37514300D03*
X414631400Y-109346100D03*
X422910000Y-164113600D03*
X354330000Y-160979700D03*
X434060100Y-136965100D03*
X428567800Y-172050500D03*
X450850000Y-92067000D03*
X494304400Y-71502300D03*
X440424600Y-136910700D03*
X412975000Y-112219800D03*
X356870000Y-168147500D03*
X425386600Y-168851900D03*
X441303600Y-77404400D03*
X461484900Y-64066800D03*
X472064500Y-10984400D03*
X413893700Y-111053800D03*
X391654500Y-132689000D03*
X388006500Y-126206900D03*
X354330000Y-193084400D03*
X422910000Y-193084400D03*
X443593100Y-83276500D03*
X461470600Y-67972100D03*
X468997700Y-10067500D03*
X441059700Y-116054400D03*
X385549600Y-191622600D03*
X351790000Y-191061200D03*
X420370000Y-190571200D03*
X437516600Y-82378600D03*
X459707100Y-68461900D03*
X441096100Y-113583100D03*
X390069300Y-188953600D03*
X440574200Y-92043500D03*
X459391700Y-80496500D03*
X440012800Y-112824300D03*
X460607700Y-130990200D03*
X421111900Y-122761600D03*
X413435500Y-170614800D03*
X428740800Y-145921600D03*
X460628200Y-103048500D03*
X455534700Y-103048500D03*
X394190400Y-113030000D03*
X445816100Y-149287400D03*
X382282000Y-134217500D03*
X455509500Y-92009900D03*
X437337700Y-93771700D03*
X386124500Y-126922000D03*
X474430900Y-136083900D03*
X419510200Y-118695700D03*
X451996600Y-90558800D03*
X451996600Y-116556100D03*
X355535600Y-103081000D03*
X392747000Y-103081000D03*
X400029600Y-135602300D03*
X415224200Y-108505900D03*
X380803000Y-132326200D03*
X372430800Y-29776400D03*
X389124000Y-70556900D03*
X386584000Y-77580800D03*
X377582200Y-71826000D03*
X352311600Y-101057800D03*
X455669400Y-71288100D03*
X466621800Y-91204400D03*
X467360000Y-97238500D03*
X469442300Y-95832800D03*
X473444500Y-108995300D03*
X468241100Y-102140500D03*
X469056400Y-103376900D03*
X455571900Y-114116700D03*
X453680900Y-85774700D03*
X457256200Y-121563300D03*
X451766300Y-113634400D03*
X451260900Y-112619100D03*
X449580000Y-108762400D03*
X446895400Y-108574300D03*
X358970000Y-10330800D03*
X407944400Y-35267500D03*
D32*
X354540800Y-186280400D02*
X365631100Y-175190100D01*
X365631100Y-175190100D02*
X365631100Y-166364800D01*
X396476700Y-157640000D02*
X396448700Y-157668000D01*
X396448700Y-157668000D02*
X396448700Y-166364800D01*
X429354700Y-2540000D02*
X427227500Y-412800D01*
X427227500Y-412800D02*
X416501200Y-412800D01*
X416501200Y-412800D02*
X415591400Y-1322600D01*
X415591400Y-1322600D02*
X415591400Y-36974000D01*
X415591400Y-36974000D02*
X415779200Y-37161800D01*
X415779200Y-37161800D02*
X415779200Y-46819700D01*
X415779200Y-46819700D02*
X416229500Y-47270000D01*
X416229500Y-47270000D02*
X416229500Y-96343100D01*
X416229500Y-96343100D02*
X419584500Y-99698100D01*
X419584500Y-99698100D02*
X419584500Y-101288700D01*
X419584500Y-101288700D02*
X420584900Y-102289100D01*
X420584900Y-102289100D02*
X420584900Y-102712300D01*
X420584900Y-102712300D02*
X432159500Y-114286900D01*
X432159500Y-114286900D02*
X432159500Y-139815500D01*
X432159500Y-139815500D02*
X431821800Y-140153200D01*
X431821800Y-140153200D02*
X431821800Y-143268900D01*
X431821800Y-143268900D02*
X431626200Y-143464500D01*
X397522000Y-157640000D02*
X396476700Y-157640000D01*
X415290000Y-187960000D02*
X413957700Y-189292300D01*
X413957700Y-189292300D02*
X409773500Y-189292300D01*
X409773500Y-189292300D02*
X409113000Y-188631800D01*
X409113000Y-188631800D02*
X409113000Y-182709300D01*
X409113000Y-182709300D02*
X416371300Y-175451000D01*
X416371300Y-175451000D02*
X416371300Y-169732700D01*
X430530000Y-2540000D02*
X429354700Y-2540000D01*
X467360000Y-127000000D02*
X467360000Y-128125300D01*
X467360000Y-128125300D02*
X463694600Y-131790700D01*
X463694600Y-131790700D02*
X463694600Y-143725400D01*
X388905800Y-188221400D02*
X388905800Y-188815800D01*
X388905800Y-188815800D02*
X392740500Y-192650500D01*
X392740500Y-192650500D02*
X414965200Y-192650500D01*
X414965200Y-192650500D02*
X418897900Y-188717800D01*
X418897900Y-188717800D02*
X418897900Y-187195700D01*
X418897900Y-187195700D02*
X418045700Y-186343500D01*
X418045700Y-186343500D02*
X415108600Y-186343500D01*
X415108600Y-186343500D02*
X413795300Y-187656800D01*
X413795300Y-187656800D02*
X413795300Y-187960000D01*
X426054000Y-153938600D02*
X427907400Y-155792000D01*
X427907400Y-155792000D02*
X427907400Y-171685200D01*
X427907400Y-171685200D02*
X427842500Y-171750100D01*
X427842500Y-171750100D02*
X427842500Y-172296300D01*
X427842500Y-172296300D02*
X418045700Y-182093100D01*
X418045700Y-182093100D02*
X418045700Y-186343500D01*
X414151600Y-17859600D02*
X414151600Y-36808000D01*
X414151600Y-36808000D02*
X414878600Y-37535000D01*
X414878600Y-37535000D02*
X414878600Y-47192900D01*
X414878600Y-47192900D02*
X415328900Y-47643200D01*
X415328900Y-47643200D02*
X415328900Y-96716300D01*
X415328900Y-96716300D02*
X418683900Y-100071300D01*
X418683900Y-100071300D02*
X418683900Y-101661900D01*
X418683900Y-101661900D02*
X419684300Y-102662300D01*
X419684300Y-102662300D02*
X419684300Y-103085500D01*
X419684300Y-103085500D02*
X429936600Y-113337800D01*
X429936600Y-113337800D02*
X429936600Y-119777100D01*
X429936600Y-119777100D02*
X429392600Y-120321100D01*
X429392600Y-120321100D02*
X429392600Y-142256600D01*
X429392600Y-142256600D02*
X431600900Y-144464900D01*
X431600900Y-144464900D02*
X431626200Y-144464900D01*
X412750000Y-187960000D02*
X413795300Y-187960000D01*
X341630000Y-172720000D02*
X342960800Y-174050800D01*
X342960800Y-174050800D02*
X344597600Y-174050800D01*
X344597600Y-174050800D02*
X345440000Y-173208400D01*
X345440000Y-173208400D02*
X345440000Y-169080400D01*
X409634300Y-168074900D02*
X409634300Y-170819000D01*
X409634300Y-170819000D02*
X410210000Y-171394700D01*
X436855500Y-149659600D02*
X436574400Y-149378500D01*
X436574400Y-149378500D02*
X436574400Y-115761400D01*
X436574400Y-115761400D02*
X426983100Y-106170100D01*
X426983100Y-106170100D02*
X426983100Y-105533200D01*
X426983100Y-105533200D02*
X421935800Y-100485900D01*
X421935800Y-100485900D02*
X421935800Y-100064600D01*
X421935800Y-100064600D02*
X420983600Y-99112400D01*
X420983600Y-99112400D02*
X420909500Y-99112400D01*
X420909500Y-99112400D02*
X417580400Y-95783300D01*
X417580400Y-95783300D02*
X417580400Y-46710200D01*
X417580400Y-46710200D02*
X417130100Y-46259900D01*
X417130100Y-46259900D02*
X417130100Y-7138500D01*
X417130100Y-7138500D02*
X417242300Y-7026300D01*
X410210000Y-172720000D02*
X410210000Y-171394700D01*
X422922000Y-157640000D02*
X422922000Y-158965300D01*
X410210000Y-171394700D02*
X410492600Y-171394700D01*
X410492600Y-171394700D02*
X422922000Y-158965300D01*
X427133900Y-158703100D02*
X419100000Y-166737000D01*
X419100000Y-166737000D02*
X419100000Y-178729700D01*
X419100000Y-178729700D02*
X411255300Y-186574400D01*
X411255300Y-186574400D02*
X411255300Y-187960000D01*
X341630000Y-187960000D02*
X341630000Y-185681600D01*
X341630000Y-185681600D02*
X349946400Y-177365200D01*
X398459800Y-185757000D02*
X398459800Y-183600400D01*
X410210000Y-187960000D02*
X411255300Y-187960000D01*
X403647300Y-157640000D02*
X403647300Y-156594700D01*
X403647300Y-156594700D02*
X416572000Y-143670000D01*
X416572000Y-143670000D02*
X416572000Y-140278600D01*
X416572000Y-140278600D02*
X424167700Y-132682900D01*
X424167700Y-132682900D02*
X424167700Y-110894300D01*
X424167700Y-110894300D02*
X418508700Y-105235300D01*
X418508700Y-105235300D02*
X418508700Y-103149400D01*
X419040300Y-18127700D02*
X419040300Y-94943500D01*
X419040300Y-94943500D02*
X419763200Y-95666400D01*
X402602000Y-157640000D02*
X403647300Y-157640000D01*
X405142000Y-158965300D02*
X405086300Y-158965300D01*
X405086300Y-158965300D02*
X400975500Y-163076100D01*
X400975500Y-163076100D02*
X400975500Y-163500700D01*
X400975500Y-163500700D02*
X396566900Y-167909300D01*
X396566900Y-167909300D02*
X396566900Y-169186500D01*
X396566900Y-169186500D02*
X396148200Y-169605200D01*
X396148200Y-169605200D02*
X396148200Y-175449200D01*
X396148200Y-175449200D02*
X390913400Y-180684000D01*
X390913400Y-180684000D02*
X390913400Y-189312700D01*
X390913400Y-189312700D02*
X393311400Y-191710700D01*
X393311400Y-191710700D02*
X401209300Y-191710700D01*
X401209300Y-191710700D02*
X401484400Y-191435600D01*
X339090000Y-189285300D02*
X339090000Y-191395100D01*
X406624700Y-187960000D02*
X406624700Y-188254000D01*
X406624700Y-188254000D02*
X403443100Y-191435600D01*
X403443100Y-191435600D02*
X401484400Y-191435600D01*
X339090000Y-187960000D02*
X339090000Y-189285300D01*
X405142000Y-157640000D02*
X405142000Y-158965300D01*
X407670000Y-187960000D02*
X406624700Y-187960000D01*
X437535900Y-114335800D02*
X437535900Y-114125700D01*
X437535900Y-114125700D02*
X424705400Y-101295200D01*
X424705400Y-101295200D02*
X424705400Y-17771300D01*
X406187300Y-157640000D02*
X406187300Y-156594700D01*
X406187300Y-156594700D02*
X419112000Y-143670000D01*
X419112000Y-143670000D02*
X419112000Y-140721300D01*
X419112000Y-140721300D02*
X426897800Y-132935500D01*
X426897800Y-132935500D02*
X426897800Y-114335800D01*
X405142000Y-157640000D02*
X406187300Y-157640000D01*
X336550000Y-171394700D02*
X336963000Y-170981700D01*
X336963000Y-170981700D02*
X336963000Y-164288500D01*
X405130000Y-171394700D02*
X404971100Y-171235800D01*
X404971100Y-171235800D02*
X404971100Y-165864100D01*
X404971100Y-165864100D02*
X406705900Y-164129300D01*
X336550000Y-172720000D02*
X336550000Y-171394700D01*
X405130000Y-172720000D02*
X405130000Y-171394700D01*
X438693500Y-152909200D02*
X438693500Y-149449900D01*
X438693500Y-149449900D02*
X437024700Y-147781100D01*
X437024700Y-147781100D02*
X437024700Y-115574800D01*
X437024700Y-115574800D02*
X427592400Y-106142500D01*
X427592400Y-106142500D02*
X427592400Y-105456000D01*
X427592400Y-105456000D02*
X422386100Y-100249700D01*
X422386100Y-100249700D02*
X422386100Y-99878000D01*
X422386100Y-99878000D02*
X421170200Y-98662100D01*
X421170200Y-98662100D02*
X421096100Y-98662100D01*
X421096100Y-98662100D02*
X418030700Y-95596700D01*
X418030700Y-95596700D02*
X418030700Y-41902700D01*
X418030700Y-41902700D02*
X417855500Y-41727500D01*
X424416700Y-157640000D02*
X424416700Y-159415400D01*
X424416700Y-159415400D02*
X414178200Y-169653900D01*
X414178200Y-169653900D02*
X414178200Y-174045300D01*
X425462000Y-157640000D02*
X424416700Y-157640000D01*
X407682000Y-157640000D02*
X402484200Y-162837800D01*
X402484200Y-162837800D02*
X401850700Y-162837800D01*
X401850700Y-162837800D02*
X401425800Y-163262700D01*
X401425800Y-163262700D02*
X401425800Y-163794600D01*
X401425800Y-163794600D02*
X398780000Y-166440400D01*
X398780000Y-166440400D02*
X398780000Y-175152800D01*
X398780000Y-175152800D02*
X391667700Y-182265100D01*
X391667700Y-182265100D02*
X391667700Y-185054400D01*
X404084700Y-187960000D02*
X404084700Y-188254000D01*
X404084700Y-188254000D02*
X401628400Y-190710300D01*
X401628400Y-190710300D02*
X401184000Y-190710300D01*
X401184000Y-190710300D02*
X400633900Y-191260400D01*
X400633900Y-191260400D02*
X393544000Y-191260400D01*
X393544000Y-191260400D02*
X391384600Y-189101000D01*
X391384600Y-189101000D02*
X391384600Y-185337500D01*
X391384600Y-185337500D02*
X391667700Y-185054400D01*
X336550000Y-187960000D02*
X337595300Y-187960000D01*
X337595300Y-187960000D02*
X337595300Y-187666000D01*
X337595300Y-187666000D02*
X348914000Y-176347300D01*
X348914000Y-176347300D02*
X349526800Y-176347300D01*
X405130000Y-187960000D02*
X404084700Y-187960000D01*
X440679500Y-114704500D02*
X426156000Y-100181000D01*
X426156000Y-100181000D02*
X426156000Y-19202500D01*
X426156000Y-19202500D02*
X426010700Y-19057200D01*
X428248700Y-115677700D02*
X427348100Y-116578300D01*
X427348100Y-116578300D02*
X427348100Y-134443500D01*
X427348100Y-134443500D02*
X421652000Y-140139600D01*
X421652000Y-140139600D02*
X421652000Y-143670000D01*
X421652000Y-143670000D02*
X408727300Y-156594700D01*
X408727300Y-156594700D02*
X408727300Y-157640000D01*
X407682000Y-157640000D02*
X408727300Y-157640000D01*
X334010000Y-172720000D02*
X334010000Y-162837800D01*
X402460600Y-169060700D02*
X402460600Y-165888000D01*
X402460600Y-165888000D02*
X404669600Y-163679000D01*
X420382000Y-157640000D02*
X410445400Y-167576600D01*
X410445400Y-167576600D02*
X410445400Y-169060700D01*
X402590000Y-171394700D02*
X402460600Y-171265300D01*
X402460600Y-171265300D02*
X402460600Y-169060700D01*
X434152800Y-115639600D02*
X433172700Y-116619700D01*
X433172700Y-116619700D02*
X433172700Y-140076100D01*
X433172700Y-140076100D02*
X432722400Y-140526400D01*
X432722400Y-140526400D02*
X432722400Y-142446700D01*
X432722400Y-142446700D02*
X432801900Y-142526200D01*
X432801900Y-142526200D02*
X432801900Y-145971400D01*
X432801900Y-145971400D02*
X421427300Y-157346000D01*
X421427300Y-157346000D02*
X421427300Y-157640000D01*
X402590000Y-172720000D02*
X402590000Y-171394700D01*
X425430700Y-29776400D02*
X425430700Y-100276900D01*
X425430700Y-100276900D02*
X438632700Y-113478900D01*
X438632700Y-113478900D02*
X438632700Y-115073400D01*
X420382000Y-157640000D02*
X421427300Y-157640000D01*
X410222000Y-157640000D02*
X409682900Y-157640000D01*
X409682900Y-157640000D02*
X401320000Y-166002900D01*
X401320000Y-166002900D02*
X401320000Y-174743600D01*
X401320000Y-174743600D02*
X393894100Y-182169500D01*
X393894100Y-182169500D02*
X393894100Y-189999100D01*
X401544700Y-187960000D02*
X401544700Y-188254000D01*
X401544700Y-188254000D02*
X398988600Y-190810100D01*
X398988600Y-190810100D02*
X394705100Y-190810100D01*
X394705100Y-190810100D02*
X393894100Y-189999100D01*
X334010000Y-187960000D02*
X335055300Y-187960000D01*
X335055300Y-187960000D02*
X335055300Y-190038900D01*
X335055300Y-190038900D02*
X335239200Y-190222800D01*
X393604000Y-190261300D02*
X393631900Y-190261300D01*
X393631900Y-190261300D02*
X393894100Y-189999100D01*
X402590000Y-187960000D02*
X401544700Y-187960000D01*
X428992300Y-22055000D02*
X429261700Y-22055000D01*
X429261700Y-22055000D02*
X434130400Y-26923700D01*
X434130400Y-26923700D02*
X434130400Y-61696900D01*
X434130400Y-61696900D02*
X438819400Y-66385900D01*
X438819400Y-66385900D02*
X438819400Y-88380800D01*
X438819400Y-88380800D02*
X444355400Y-93916800D01*
X444355400Y-93916800D02*
X444355400Y-111704500D01*
X444355400Y-111704500D02*
X442436500Y-113623400D01*
X411267300Y-157640000D02*
X411267300Y-156594700D01*
X411267300Y-156594700D02*
X424192000Y-143670000D01*
X424192000Y-143670000D02*
X424192000Y-139848700D01*
X424192000Y-139848700D02*
X427798400Y-136242300D01*
X427798400Y-136242300D02*
X427798400Y-118419100D01*
X427798400Y-118419100D02*
X428248700Y-117968800D01*
X410222000Y-157640000D02*
X411267300Y-157640000D01*
X400050000Y-172720000D02*
X400050000Y-166196100D01*
X400050000Y-166196100D02*
X402151100Y-164095000D01*
X402151100Y-164095000D02*
X402151100Y-163563100D01*
X417842000Y-157640000D02*
X408909000Y-166573000D01*
X408909000Y-166573000D02*
X408909000Y-173933900D01*
X420309900Y-100738300D02*
X420309900Y-101013400D01*
X420309900Y-101013400D02*
X421035200Y-101738700D01*
X421035200Y-101738700D02*
X421035200Y-102458100D01*
X421035200Y-102458100D02*
X432609800Y-114032700D01*
X432609800Y-114032700D02*
X432609800Y-140002100D01*
X432609800Y-140002100D02*
X432272100Y-140339800D01*
X432272100Y-140339800D02*
X432272100Y-142633300D01*
X432272100Y-142633300D02*
X432351600Y-142712800D01*
X432351600Y-142712800D02*
X432351600Y-144804400D01*
X432351600Y-144804400D02*
X431932300Y-145223700D01*
X431932300Y-145223700D02*
X431009600Y-145223700D01*
X431009600Y-145223700D02*
X418887300Y-157346000D01*
X418887300Y-157346000D02*
X418887300Y-157640000D01*
X450850000Y-2540000D02*
X450850000Y-3715300D01*
X417842000Y-157640000D02*
X418887300Y-157640000D01*
X450850000Y-3715300D02*
X456847000Y-9712300D01*
X456847000Y-9712300D02*
X456847000Y-64493500D01*
X412762000Y-157640000D02*
X412169500Y-157640000D01*
X412169500Y-157640000D02*
X403860000Y-165949500D01*
X403860000Y-165949500D02*
X403860000Y-175328200D01*
X403860000Y-175328200D02*
X396438900Y-182749300D01*
X396438900Y-182749300D02*
X396438900Y-188712700D01*
X396438900Y-188712700D02*
X397035700Y-189309500D01*
X332515300Y-187960000D02*
X332515300Y-188535300D01*
X332515300Y-188535300D02*
X336100400Y-192120400D01*
X336100400Y-192120400D02*
X352029500Y-192120400D01*
X352029500Y-192120400D02*
X353141500Y-191008400D01*
X397035700Y-189309500D02*
X397035700Y-190084700D01*
X331470000Y-187960000D02*
X332515300Y-187960000D01*
X400050000Y-187960000D02*
X398700500Y-189309500D01*
X398700500Y-189309500D02*
X397035700Y-189309500D01*
X423514900Y-108638700D02*
X428984200Y-114108000D01*
X428984200Y-114108000D02*
X428984200Y-118502400D01*
X428984200Y-118502400D02*
X428284900Y-119201700D01*
X428284900Y-119201700D02*
X428284900Y-141374700D01*
X428284900Y-141374700D02*
X413807300Y-155852300D01*
X413807300Y-155852300D02*
X413807300Y-157640000D01*
X431778100Y-104760000D02*
X431778100Y-52089900D01*
X431778100Y-52089900D02*
X432367400Y-51500600D01*
X432367400Y-51500600D02*
X432367400Y-26219500D01*
X432367400Y-26219500D02*
X431931500Y-25783600D01*
X412762000Y-157640000D02*
X413807300Y-157640000D01*
X414384900Y-143917500D02*
X401332000Y-156970400D01*
X401332000Y-156970400D02*
X401332000Y-162082700D01*
X401332000Y-162082700D02*
X400525200Y-162889500D01*
X400525200Y-162889500D02*
X400525200Y-163314100D01*
X400525200Y-163314100D02*
X395659100Y-168180200D01*
X395659100Y-168180200D02*
X395659100Y-169055600D01*
X397510000Y-172720000D02*
X397510000Y-171394700D01*
X397510000Y-171394700D02*
X397500700Y-171385400D01*
X397500700Y-171385400D02*
X397500700Y-169205900D01*
X411870900Y-53678600D02*
X411870900Y-97079700D01*
X411870900Y-97079700D02*
X415982100Y-101190900D01*
X415982100Y-101190900D02*
X415982100Y-109755400D01*
X415982100Y-109755400D02*
X415250300Y-110487200D01*
X415250300Y-110487200D02*
X415250300Y-139544400D01*
X406230600Y-169786000D02*
X406230600Y-166711400D01*
X406230600Y-166711400D02*
X415302000Y-157640000D01*
X405722500Y-169786000D02*
X406230600Y-169786000D01*
X398555300Y-187960000D02*
X398555300Y-186914700D01*
X398555300Y-186914700D02*
X406230600Y-179239400D01*
X406230600Y-179239400D02*
X406230600Y-169786000D01*
X416347300Y-157640000D02*
X416347300Y-154450700D01*
X416347300Y-154450700D02*
X428013900Y-142784100D01*
X414855200Y-1357000D02*
X414878600Y-1380400D01*
X414878600Y-1380400D02*
X414878600Y-36898100D01*
X414878600Y-36898100D02*
X415328900Y-37348400D01*
X415328900Y-37348400D02*
X415328900Y-47006300D01*
X415328900Y-47006300D02*
X415779200Y-47456600D01*
X415779200Y-47456600D02*
X415779200Y-96529700D01*
X415779200Y-96529700D02*
X419134200Y-99884700D01*
X419134200Y-99884700D02*
X419134200Y-101475300D01*
X419134200Y-101475300D02*
X420134600Y-102475700D01*
X420134600Y-102475700D02*
X420134600Y-102898900D01*
X420134600Y-102898900D02*
X431655300Y-114419600D01*
X431655300Y-114419600D02*
X431655300Y-139682800D01*
X431655300Y-139682800D02*
X431096400Y-140241700D01*
X431096400Y-140241700D02*
X431096400Y-140336900D01*
X397510000Y-187960000D02*
X398555300Y-187960000D01*
X415302000Y-157640000D02*
X416347300Y-157640000D01*
X394970000Y-189285300D02*
X394970000Y-190024200D01*
X434835800Y-140523800D02*
X434748300Y-140523800D01*
X434748300Y-140523800D02*
X434073300Y-141198800D01*
X434073300Y-141198800D02*
X434073300Y-141886900D01*
X434073300Y-141886900D02*
X434152800Y-141966400D01*
X434152800Y-141966400D02*
X434152800Y-169073400D01*
X434152800Y-169073400D02*
X432561400Y-170664800D01*
X432561400Y-170664800D02*
X432561400Y-183625300D01*
X394970000Y-187960000D02*
X394970000Y-189285300D01*
X416432400Y-138500900D02*
X416432400Y-101004300D01*
X416432400Y-101004300D02*
X412667900Y-97239800D01*
X412667900Y-97239800D02*
X412667900Y-49694900D01*
X324895300Y-187960000D02*
X324895300Y-187666000D01*
X324895300Y-187666000D02*
X337923800Y-174637500D01*
X337923800Y-174637500D02*
X346909900Y-174637500D01*
X346909900Y-174637500D02*
X347096700Y-174450700D01*
X323850000Y-187960000D02*
X324895300Y-187960000D01*
X434798600Y-141586500D02*
X434798600Y-169945600D01*
X434798600Y-169945600D02*
X433354000Y-171390200D01*
X467265300Y-2540000D02*
X467265300Y-2907400D01*
X467265300Y-2907400D02*
X485369400Y-21011500D01*
X485369400Y-21011500D02*
X489601500Y-21011500D01*
X489601500Y-21011500D02*
X493013800Y-24423800D01*
X493013800Y-24423800D02*
X493013800Y-68901500D01*
X493013800Y-68901500D02*
X492853800Y-69061500D01*
X492853800Y-69061500D02*
X492853800Y-69662300D01*
X492853800Y-69662300D02*
X493067100Y-69875600D01*
X493067100Y-69875600D02*
X493067100Y-144512900D01*
X493067100Y-144512900D02*
X468048000Y-169532000D01*
X468048000Y-169532000D02*
X468048000Y-180284500D01*
X468048000Y-180284500D02*
X464256900Y-184075600D01*
X464256900Y-184075600D02*
X453269500Y-184075600D01*
X453269500Y-184075600D02*
X451975300Y-182781400D01*
X451975300Y-182781400D02*
X451975300Y-182500000D01*
X450850000Y-182500000D02*
X451975300Y-182500000D01*
X466090000Y-2540000D02*
X467265300Y-2540000D01*
X394705800Y-139537100D02*
X390949200Y-139537100D01*
X390949200Y-139537100D02*
X388632000Y-141854300D01*
X388632000Y-141854300D02*
X388632000Y-184842900D01*
X344170000Y-172720000D02*
X343124700Y-172720000D01*
X339090000Y-172720000D02*
X340135300Y-172720000D01*
X340135300Y-172720000D02*
X340135300Y-172426000D01*
X340135300Y-172426000D02*
X341208200Y-171353100D01*
X341208200Y-171353100D02*
X342051800Y-171353100D01*
X342051800Y-171353100D02*
X343124700Y-172426000D01*
X343124700Y-172426000D02*
X343124700Y-172720000D01*
X468630000Y-2540000D02*
X467429900Y-1339900D01*
X467429900Y-1339900D02*
X465621700Y-1339900D01*
X465621700Y-1339900D02*
X464878400Y-2083200D01*
X464878400Y-2083200D02*
X464878400Y-3044700D01*
X464878400Y-3044700D02*
X472092800Y-10259100D01*
X472092800Y-10259100D02*
X472365000Y-10259100D01*
X472365000Y-10259100D02*
X483726800Y-21620900D01*
X483726800Y-21620900D02*
X489574000Y-21620900D01*
X489574000Y-21620900D02*
X492563500Y-24610400D01*
X492563500Y-24610400D02*
X492563500Y-68714900D01*
X492563500Y-68714900D02*
X492403500Y-68874900D01*
X492403500Y-68874900D02*
X492403500Y-69848900D01*
X492403500Y-69848900D02*
X492616800Y-70062200D01*
X492616800Y-70062200D02*
X492616800Y-142784800D01*
X492616800Y-142784800D02*
X465012700Y-170388900D01*
X465012700Y-170388900D02*
X465012700Y-182682900D01*
X465012700Y-182682900D02*
X464070300Y-183625300D01*
X464070300Y-183625300D02*
X460527800Y-183625300D01*
X460527800Y-183625300D02*
X459595300Y-182692800D01*
X459595300Y-182692800D02*
X459595300Y-182500000D01*
X458470000Y-182500000D02*
X459595300Y-182500000D01*
D33*
X322560300Y-8890000D02*
X326284400Y-12614100D01*
X321310000Y-8890000D02*
X322560300Y-8890000D01*
X471150400Y-137849900D02*
X471150400Y-129539900D01*
X471150400Y-129539900D02*
X472440000Y-128250300D01*
X471170000Y-154860000D02*
X472466800Y-153563200D01*
X472466800Y-153563200D02*
X472466800Y-139166300D01*
X472466800Y-139166300D02*
X471150400Y-137849900D01*
X463649700Y-88900000D02*
X463649700Y-98032900D01*
X463553200Y-118030000D02*
X463553200Y-101104800D01*
X463553200Y-101104800D02*
X462594000Y-100145600D01*
X462594000Y-100145600D02*
X462424700Y-100145600D01*
X461010000Y-118110000D02*
X463473200Y-118110000D01*
X463473200Y-118110000D02*
X463553200Y-118030000D01*
X463553200Y-118030000D02*
X468630000Y-118030000D01*
X406717000Y-134542000D02*
X405466700Y-134542000D01*
X405466700Y-134542000D02*
X405466700Y-133995000D01*
X405466700Y-133995000D02*
X404763300Y-133291600D01*
X404763300Y-133291600D02*
X403627200Y-133291600D01*
X403627200Y-133291600D02*
X402926600Y-133992200D01*
X402926600Y-133992200D02*
X402926600Y-135052600D01*
X402926600Y-135052600D02*
X401494800Y-136484400D01*
X401494800Y-136484400D02*
X390431000Y-136484400D01*
X390431000Y-136484400D02*
X388389700Y-134443100D01*
X356870000Y-142240000D02*
X356870000Y-143540300D01*
X369570000Y-186610000D02*
X370832000Y-185348000D01*
X370832000Y-185348000D02*
X370832000Y-157502300D01*
X370832000Y-157502300D02*
X356870000Y-143540300D01*
X340360000Y-34290000D02*
X341530300Y-34290000D01*
X342900000Y-49530000D02*
X341729700Y-49530000D01*
X341530300Y-34290000D02*
X341530300Y-49330600D01*
X341530300Y-49330600D02*
X341729700Y-49530000D01*
X489260000Y-65300000D02*
X489260000Y-69204600D01*
X489260000Y-69204600D02*
X475766200Y-82698400D01*
X475766200Y-82698400D02*
X475766200Y-83340500D01*
X490060000Y-58450000D02*
X490060000Y-64500000D01*
X490060000Y-64500000D02*
X489260000Y-65300000D01*
X340360000Y-73660000D02*
X340360000Y-59690000D01*
X340360000Y-59690000D02*
X342900000Y-57150000D01*
X472440000Y-127000000D02*
X472440000Y-128250300D01*
X378964000Y-101406000D02*
X378964000Y-114430400D01*
X489132400Y-38737100D02*
X488980400Y-38737100D01*
X488980400Y-38737100D02*
X488980400Y-38130400D01*
X488980400Y-38130400D02*
X487680000Y-36830000D01*
X488980400Y-51600000D02*
X488980400Y-38737100D01*
X462280000Y-73660000D02*
X462280000Y-72209700D01*
X462280000Y-72209700D02*
X462320900Y-72168800D01*
X462320900Y-72168800D02*
X462320900Y-66160900D01*
X462320900Y-66160900D02*
X462200000Y-66040000D01*
X342900000Y-57150000D02*
X342900000Y-49530000D01*
X487680000Y-134620000D02*
X487680000Y-133369700D01*
X487680000Y-133369700D02*
X486410000Y-132099700D01*
X486410000Y-132099700D02*
X486410000Y-116666000D01*
X486410000Y-116666000D02*
X489839000Y-113237000D01*
X487680000Y-140970000D02*
X487680000Y-134620000D01*
X438150000Y-142240000D02*
X438150000Y-132080000D01*
X349250000Y-109239600D02*
X347437600Y-109239600D01*
X347437600Y-109239600D02*
X346710000Y-109967200D01*
X346710000Y-109967200D02*
X346710000Y-111044600D01*
X346710000Y-111044600D02*
X340894900Y-116859700D01*
X340894900Y-116859700D02*
X340360000Y-116859700D01*
X363220000Y-118110000D02*
X360134200Y-115024200D01*
X360134200Y-115024200D02*
X353270500Y-115024200D01*
X353270500Y-115024200D02*
X349250000Y-111003700D01*
X349250000Y-111003700D02*
X349250000Y-109239600D01*
X353695000Y-105694900D02*
X352794700Y-105694900D01*
X352794700Y-105694900D02*
X349250000Y-109239600D01*
X383540000Y-132000000D02*
X370840000Y-119300000D01*
X370840000Y-119300000D02*
X370840000Y-118030000D01*
X328912000Y-139860000D02*
X340360000Y-128412000D01*
X340360000Y-128412000D02*
X340360000Y-118110000D01*
X358665000Y-19180000D02*
X357700000Y-18215000D01*
X357700000Y-18215000D02*
X357700000Y-13770000D01*
X464820000Y-88900000D02*
X463649700Y-88900000D01*
X309880000Y-110490000D02*
X309880000Y-109189700D01*
X309915000Y-75852000D02*
X311409000Y-77346000D01*
X311409000Y-77346000D02*
X311409000Y-107660700D01*
X311409000Y-107660700D02*
X309880000Y-109189700D01*
X303415000Y-75852000D02*
X306042000Y-73225000D01*
X306042000Y-73225000D02*
X306042000Y-59469000D01*
X304245000Y-13570000D02*
X308745000Y-9070000D01*
X308745000Y-9070000D02*
X309245000Y-9070000D01*
X489260000Y-51600000D02*
X488980400Y-51600000D01*
X488945100Y-51600000D02*
X488980400Y-51600000D01*
X488945100Y-51600000D02*
X488285100Y-51600000D01*
X488285100Y-51600000D02*
X490060000Y-53374900D01*
X490060000Y-53374900D02*
X490060000Y-58450000D01*
X488285100Y-51600000D02*
X487059700Y-51600000D01*
X487059700Y-51600000D02*
X487059700Y-54400300D01*
X487059700Y-54400300D02*
X486410000Y-55050000D01*
X487740000Y-182500000D02*
X487740000Y-181249700D01*
X487740000Y-181249700D02*
X487193000Y-181249700D01*
X487193000Y-181249700D02*
X481390000Y-175446700D01*
X481390000Y-175446700D02*
X481390000Y-172860000D01*
X481390000Y-172860000D02*
X477440000Y-168910000D01*
X340360000Y-118110000D02*
X340360000Y-116859700D01*
X340360000Y-116859700D02*
X336630000Y-113129700D01*
X336630000Y-113129700D02*
X336630000Y-100330000D01*
X472440000Y-127000000D02*
X472440000Y-121840000D01*
X472440000Y-121840000D02*
X468630000Y-118030000D01*
X453390000Y-182500000D02*
X453390000Y-181249700D01*
X453390000Y-181249700D02*
X452139700Y-179999400D01*
X452139700Y-179999400D02*
X452139700Y-170199700D01*
X452139700Y-170199700D02*
X450850000Y-168910000D01*
X427875000Y-61120000D02*
X427875000Y-59819700D01*
X430530000Y-27940000D02*
X430530000Y-57164700D01*
X430530000Y-57164700D02*
X427875000Y-59819700D01*
X314292000Y-145560000D02*
X319992000Y-139860000D01*
X319992000Y-139860000D02*
X322412000Y-139860000D01*
D32*
X459740000Y-88900000D02*
X459740000Y-87574700D01*
X459740000Y-87574700D02*
X460117000Y-87197700D01*
X460117000Y-87197700D02*
X460117000Y-80207900D01*
X460117000Y-80207900D02*
X466090100Y-74234800D01*
X466090100Y-74234800D02*
X466090100Y-73168500D01*
X466090100Y-73168500D02*
X482108600Y-57150000D01*
X482108600Y-57150000D02*
X486410000Y-57150000D01*
X378249500Y-133416700D02*
X394587800Y-133416700D01*
X394587800Y-133416700D02*
X395431700Y-134260600D01*
X395431700Y-134260600D02*
X395431700Y-134542000D01*
X361805300Y-118110000D02*
X361805300Y-118391400D01*
X361805300Y-118391400D02*
X376830600Y-133416700D01*
X376830600Y-133416700D02*
X378249500Y-133416700D01*
X377582200Y-170731900D02*
X378249500Y-170064600D01*
X378249500Y-170064600D02*
X378249500Y-133416700D01*
X415290000Y-172720000D02*
X415290000Y-171394700D01*
X415290000Y-171394700D02*
X415000400Y-171105100D01*
X415000400Y-171105100D02*
X415000400Y-169857400D01*
X451214000Y-121628300D02*
X451469600Y-121628300D01*
X451469600Y-121628300D02*
X454804600Y-118293300D01*
X454804600Y-118293300D02*
X454804600Y-115909800D01*
X454804600Y-115909800D02*
X458470000Y-112244400D01*
X458470000Y-112244400D02*
X458470000Y-111615300D01*
X490020400Y-70668400D02*
X490020400Y-81090600D01*
X490020400Y-81090600D02*
X470618600Y-100492400D01*
X412762000Y-142400000D02*
X411716700Y-142400000D01*
X404177000Y-134542000D02*
X404177000Y-135667300D01*
X404177000Y-135667300D02*
X401530100Y-138314200D01*
X401530100Y-138314200D02*
X401530100Y-143131200D01*
X401530100Y-143131200D02*
X402135300Y-143736400D01*
X402135300Y-143736400D02*
X410686500Y-143736400D01*
X410686500Y-143736400D02*
X411716700Y-142706200D01*
X411716700Y-142706200D02*
X411716700Y-142400000D01*
X396557000Y-134542000D02*
X395431700Y-134542000D01*
X360680000Y-118110000D02*
X361805300Y-118110000D01*
X458470000Y-110490000D02*
X458470000Y-111615300D01*
X357014700Y-118110000D02*
X357014700Y-117828700D01*
X357014700Y-117828700D02*
X355217600Y-116031600D01*
X355217600Y-116031600D02*
X345864600Y-116031600D01*
X345864600Y-116031600D02*
X344285800Y-117610400D01*
X344285800Y-117610400D02*
X344285800Y-164087900D01*
X344285800Y-164087900D02*
X348204700Y-168006800D01*
X348204700Y-172720000D02*
X348204700Y-168006800D01*
X417830000Y-172720000D02*
X417830000Y-171394700D01*
X417873200Y-169001200D02*
X417873200Y-171351500D01*
X417873200Y-171351500D02*
X417830000Y-171394700D01*
X434772100Y-137744900D02*
X434073300Y-138443700D01*
X434073300Y-138443700D02*
X434073300Y-140449300D01*
X434073300Y-140449300D02*
X433623000Y-140899600D01*
X433623000Y-140899600D02*
X433623000Y-142073500D01*
X433623000Y-142073500D02*
X433702500Y-142153000D01*
X433702500Y-142153000D02*
X433702500Y-168845100D01*
X433702500Y-168845100D02*
X428376200Y-174171400D01*
X455930000Y-110490000D02*
X455930000Y-109364700D01*
X455930000Y-109364700D02*
X456260000Y-109034700D01*
X456260000Y-109034700D02*
X456260000Y-102511100D01*
X456260000Y-102511100D02*
X455930000Y-102181100D01*
X455930000Y-102181100D02*
X455930000Y-95342600D01*
X488950000Y-2540000D02*
X487774700Y-2540000D01*
X471359400Y-75201600D02*
X471359400Y-90513800D01*
X487774700Y-2540000D02*
X487774700Y-2172700D01*
X487774700Y-2172700D02*
X486921100Y-1319100D01*
X486921100Y-1319100D02*
X483394500Y-1319100D01*
X483394500Y-1319100D02*
X482672100Y-2041500D01*
X482672100Y-2041500D02*
X482672100Y-11217700D01*
X482672100Y-11217700D02*
X493579100Y-22124700D01*
X493579100Y-22124700D02*
X493579100Y-69361900D01*
X455930000Y-111615300D02*
X453697500Y-113847800D01*
X453697500Y-113847800D02*
X453697500Y-115927900D01*
X453697500Y-115927900D02*
X452120000Y-117505400D01*
X452120000Y-117505400D02*
X452120000Y-119228200D01*
X452120000Y-119228200D02*
X441429100Y-129919100D01*
X441429100Y-129919100D02*
X441429100Y-137744900D01*
X349250000Y-172720000D02*
X348204700Y-172720000D01*
X358140000Y-118110000D02*
X357014700Y-118110000D01*
X455930000Y-110490000D02*
X455930000Y-111615300D01*
X355600000Y-118110000D02*
X354474700Y-118110000D01*
X351790000Y-172720000D02*
X351790000Y-124455300D01*
X351790000Y-124455300D02*
X346805600Y-119470900D01*
X346805600Y-119470900D02*
X346805600Y-117653700D01*
X346805600Y-117653700D02*
X347977400Y-116481900D01*
X347977400Y-116481900D02*
X353068700Y-116481900D01*
X353068700Y-116481900D02*
X354474700Y-117887900D01*
X354474700Y-117887900D02*
X354474700Y-118110000D01*
X420370000Y-172720000D02*
X420370000Y-179000200D01*
X420370000Y-179000200D02*
X416630200Y-182740000D01*
X472687500Y-93012200D02*
X476474600Y-89225100D01*
X476474600Y-89225100D02*
X476474600Y-83657900D01*
X476474600Y-83657900D02*
X476491500Y-83641000D01*
X476491500Y-83641000D02*
X476491500Y-83159500D01*
X476491500Y-83159500D02*
X491408500Y-68242500D01*
X491408500Y-68242500D02*
X491408500Y-39326300D01*
X491408500Y-39326300D02*
X489596500Y-37514300D01*
X407682000Y-142400000D02*
X408727300Y-142400000D01*
X408727300Y-142400000D02*
X408727300Y-141354700D01*
X408727300Y-141354700D02*
X414631400Y-135450600D01*
X414631400Y-135450600D02*
X414631400Y-109346100D01*
X354330000Y-160979700D02*
X354330000Y-172720000D01*
X351934700Y-118110000D02*
X351934700Y-117828700D01*
X351934700Y-117828700D02*
X351073600Y-116967600D01*
X351073600Y-116967600D02*
X350019600Y-116967600D01*
X350019600Y-116967600D02*
X349391100Y-117596100D01*
X349391100Y-117596100D02*
X349391100Y-118743300D01*
X349391100Y-118743300D02*
X354330000Y-123682200D01*
X354330000Y-123682200D02*
X354330000Y-160979700D01*
X422910000Y-172720000D02*
X422910000Y-164113600D01*
X434060100Y-136965100D02*
X433623000Y-137402200D01*
X433623000Y-137402200D02*
X433623000Y-140262700D01*
X433623000Y-140262700D02*
X433172700Y-140713000D01*
X433172700Y-140713000D02*
X433172700Y-142260100D01*
X433172700Y-142260100D02*
X433252200Y-142339600D01*
X433252200Y-142339600D02*
X433252200Y-167366100D01*
X433252200Y-167366100D02*
X428567800Y-172050500D01*
X483870000Y-3715300D02*
X494304400Y-14149700D01*
X494304400Y-14149700D02*
X494304400Y-71502300D01*
X450850000Y-110490000D02*
X450850000Y-92067000D01*
X483870000Y-2540000D02*
X483870000Y-3715300D01*
X353060000Y-118110000D02*
X351934700Y-118110000D01*
X450850000Y-110490000D02*
X450850000Y-111615300D01*
X450850000Y-111615300D02*
X450428000Y-111615300D01*
X450428000Y-111615300D02*
X444500000Y-117543300D01*
X444500000Y-117543300D02*
X444500000Y-123488500D01*
X444500000Y-123488500D02*
X440424600Y-127563900D01*
X440424600Y-127563900D02*
X440424600Y-136910700D01*
X412975000Y-112219800D02*
X412975000Y-131950200D01*
X412975000Y-131950200D02*
X403647300Y-141277900D01*
X403647300Y-141277900D02*
X403647300Y-142400000D01*
X412975000Y-112219800D02*
X413893700Y-111301100D01*
X413893700Y-111301100D02*
X413893700Y-111053800D01*
X425450000Y-172720000D02*
X425450000Y-171394700D01*
X356870000Y-172720000D02*
X356870000Y-168147500D01*
X425450000Y-171394700D02*
X425386600Y-171331300D01*
X425386600Y-171331300D02*
X425386600Y-168851900D01*
X448310000Y-110490000D02*
X448310000Y-99735000D01*
X448310000Y-99735000D02*
X445882600Y-97307600D01*
X445882600Y-97307600D02*
X445882600Y-84540200D01*
X445882600Y-84540200D02*
X441303600Y-79961200D01*
X441303600Y-79961200D02*
X441303600Y-77404400D01*
X472064500Y-10984400D02*
X472064500Y-53487200D01*
X472064500Y-53487200D02*
X461484900Y-64066800D01*
X356870000Y-172720000D02*
X355824700Y-172720000D01*
X350520000Y-118110000D02*
X350520000Y-119235300D01*
X350520000Y-119235300D02*
X355375400Y-124090700D01*
X355375400Y-124090700D02*
X355375400Y-172270700D01*
X355375400Y-172270700D02*
X355824700Y-172720000D01*
X402602000Y-142400000D02*
X403647300Y-142400000D01*
X388006500Y-126206900D02*
X388006500Y-129041000D01*
X388006500Y-129041000D02*
X391654500Y-132689000D01*
X422910000Y-187960000D02*
X422910000Y-193084400D01*
X354330000Y-187960000D02*
X354330000Y-193084400D01*
X445770000Y-110490000D02*
X445770000Y-109364700D01*
X443593100Y-83276500D02*
X445319700Y-85003100D01*
X445319700Y-85003100D02*
X445319700Y-108914400D01*
X445319700Y-108914400D02*
X445770000Y-109364700D01*
X468997700Y-10067500D02*
X468997700Y-51261300D01*
X468997700Y-51261300D02*
X460759600Y-59499400D01*
X460759600Y-59499400D02*
X460759600Y-67261100D01*
X460759600Y-67261100D02*
X461470600Y-67972100D01*
X347980000Y-119235300D02*
X353284700Y-124540000D01*
X353284700Y-124540000D02*
X353284700Y-187960000D01*
X354330000Y-187960000D02*
X353284700Y-187960000D01*
X347980000Y-118110000D02*
X347980000Y-119235300D01*
X445770000Y-110490000D02*
X445770000Y-111615300D01*
X445770000Y-111615300D02*
X445498800Y-111615300D01*
X445498800Y-111615300D02*
X441059700Y-116054400D01*
X397522000Y-142400000D02*
X397522000Y-141074700D01*
X385549600Y-191622600D02*
X386092000Y-191080200D01*
X386092000Y-191080200D02*
X386092000Y-141903100D01*
X386092000Y-141903100D02*
X389200900Y-138794200D01*
X389200900Y-138794200D02*
X395241500Y-138794200D01*
X395241500Y-138794200D02*
X397522000Y-141074700D01*
X351790000Y-187960000D02*
X351790000Y-191061200D01*
X420370000Y-187960000D02*
X420370000Y-190571200D01*
X350744700Y-187960000D02*
X350744700Y-124540000D01*
X350744700Y-124540000D02*
X345440000Y-119235300D01*
X475074700Y-2540000D02*
X475074700Y-1732000D01*
X475074700Y-1732000D02*
X473733200Y-390500D01*
X473733200Y-390500D02*
X461489900Y-390500D01*
X461489900Y-390500D02*
X459707100Y-2173300D01*
X459707100Y-2173300D02*
X459707100Y-68461900D01*
X443230000Y-110490000D02*
X443230000Y-109364700D01*
X476250000Y-2540000D02*
X475074700Y-2540000D01*
X437516600Y-82378600D02*
X437516600Y-87939800D01*
X437516600Y-87939800D02*
X443230000Y-93653200D01*
X443230000Y-93653200D02*
X443230000Y-109364700D01*
X345440000Y-118110000D02*
X345440000Y-119235300D01*
X351790000Y-187960000D02*
X350744700Y-187960000D01*
X443230000Y-110490000D02*
X443230000Y-111615300D01*
X443230000Y-111615300D02*
X443063900Y-111615300D01*
X443063900Y-111615300D02*
X441096100Y-113583100D01*
X390395200Y-188953600D02*
X390395200Y-172996400D01*
X390395200Y-172996400D02*
X391172000Y-172219600D01*
X391172000Y-172219600D02*
X391172000Y-146210000D01*
X391172000Y-146210000D02*
X393936700Y-143445300D01*
X393936700Y-143445300D02*
X393936700Y-142400000D01*
X416784700Y-187960000D02*
X416784700Y-188254000D01*
X416784700Y-188254000D02*
X412877600Y-192161100D01*
X412877600Y-192161100D02*
X393089200Y-192161100D01*
X393089200Y-192161100D02*
X390395200Y-189467100D01*
X390395200Y-189467100D02*
X390395200Y-188953600D01*
X390069300Y-188953600D02*
X390395200Y-188953600D01*
X394982000Y-142400000D02*
X393936700Y-142400000D01*
X417830000Y-187960000D02*
X416784700Y-187960000D01*
X440690000Y-109364700D02*
X440690000Y-92159300D01*
X440690000Y-92159300D02*
X440574200Y-92043500D01*
X472534700Y-2540000D02*
X470859200Y-864500D01*
X470859200Y-864500D02*
X463561000Y-864500D01*
X463561000Y-864500D02*
X462280000Y-2145500D01*
X462280000Y-2145500D02*
X462280000Y-22285500D01*
X462280000Y-22285500D02*
X460309300Y-24256200D01*
X460309300Y-24256200D02*
X460309300Y-67836500D01*
X460309300Y-67836500D02*
X460811500Y-68338700D01*
X460811500Y-68338700D02*
X460811500Y-78872500D01*
X460811500Y-78872500D02*
X459391700Y-80292300D01*
X459391700Y-80292300D02*
X459391700Y-80496500D01*
X473710000Y-2540000D02*
X472534700Y-2540000D01*
X440690000Y-110490000D02*
X440690000Y-109364700D01*
X440690000Y-110490000D02*
X440690000Y-112147100D01*
X440690000Y-112147100D02*
X440012800Y-112824300D01*
X421111900Y-122761600D02*
X421111900Y-119023600D01*
X421111900Y-119023600D02*
X417783300Y-115695000D01*
X417783300Y-115695000D02*
X417783300Y-100444500D01*
X417783300Y-100444500D02*
X414428300Y-97089500D01*
X414428300Y-97089500D02*
X414428300Y-48016400D01*
X414428300Y-48016400D02*
X413978000Y-47566100D01*
X413978000Y-47566100D02*
X413978000Y-38133200D01*
X413978000Y-38133200D02*
X384904600Y-9059800D01*
X384904600Y-9059800D02*
X384904600Y-1497400D01*
X384904600Y-1497400D02*
X385037400Y-1364600D01*
X385037400Y-1364600D02*
X387077300Y-1364600D01*
X387077300Y-1364600D02*
X387444700Y-1732000D01*
X387444700Y-1732000D02*
X387444700Y-2540000D01*
X461126600Y-131509100D02*
X461126600Y-142054200D01*
X461126600Y-142054200D02*
X462135300Y-143062900D01*
X462135300Y-143062900D02*
X462135300Y-152689400D01*
X462135300Y-152689400D02*
X461010000Y-153814700D01*
X460607700Y-130990200D02*
X461126600Y-131509100D01*
X464820000Y-128125300D02*
X461436200Y-131509100D01*
X461436200Y-131509100D02*
X461126600Y-131509100D01*
X388620000Y-2540000D02*
X387444700Y-2540000D01*
X461010000Y-154940000D02*
X461010000Y-153814700D01*
X464820000Y-127000000D02*
X464820000Y-128125300D01*
X461010000Y-181374700D02*
X460728700Y-181374700D01*
X460728700Y-181374700D02*
X454660000Y-175306000D01*
X454660000Y-175306000D02*
X454660000Y-171090800D01*
X454660000Y-171090800D02*
X435673700Y-152104500D01*
X435673700Y-152104500D02*
X435673700Y-116134500D01*
X435673700Y-116134500D02*
X426082500Y-106543300D01*
X426082500Y-106543300D02*
X426082500Y-105906400D01*
X426082500Y-105906400D02*
X421035200Y-100859100D01*
X421035200Y-100859100D02*
X421035200Y-100437800D01*
X421035200Y-100437800D02*
X420610400Y-100013000D01*
X420610400Y-100013000D02*
X420536300Y-100013000D01*
X420536300Y-100013000D02*
X416679800Y-96156500D01*
X416679800Y-96156500D02*
X416679800Y-47083400D01*
X416679800Y-47083400D02*
X416229500Y-46633100D01*
X416229500Y-46633100D02*
X416229500Y-36975200D01*
X416229500Y-36975200D02*
X416041700Y-36787400D01*
X416041700Y-36787400D02*
X416041700Y-1509200D01*
X416041700Y-1509200D02*
X416636500Y-914400D01*
X416636500Y-914400D02*
X423016500Y-914400D01*
X423016500Y-914400D02*
X424274700Y-2172600D01*
X424274700Y-2172600D02*
X424274700Y-2540000D01*
X425450000Y-2540000D02*
X424274700Y-2540000D01*
X461010000Y-182500000D02*
X461010000Y-181374700D01*
X412750000Y-172720000D02*
X411704700Y-172720000D01*
X407670000Y-172720000D02*
X407670000Y-174045300D01*
X407670000Y-174045300D02*
X408311500Y-174686800D01*
X408311500Y-174686800D02*
X410031900Y-174686800D01*
X410031900Y-174686800D02*
X411704700Y-173014000D01*
X411704700Y-173014000D02*
X411704700Y-172720000D01*
X412750000Y-172720000D02*
X412750000Y-171394700D01*
X413435500Y-170614800D02*
X413435500Y-170709200D01*
X413435500Y-170709200D02*
X412750000Y-171394700D01*
X462424700Y-174880000D02*
X462424700Y-175161300D01*
X462424700Y-175161300D02*
X461513000Y-176073000D01*
X461513000Y-176073000D02*
X457986700Y-176073000D01*
X457986700Y-176073000D02*
X457200000Y-175286300D01*
X457200000Y-175286300D02*
X457200000Y-172484700D01*
X457200000Y-172484700D02*
X436124100Y-151408800D01*
X436124100Y-151408800D02*
X436124100Y-115948000D01*
X436124100Y-115948000D02*
X426532800Y-106356700D01*
X426532800Y-106356700D02*
X426532800Y-105719800D01*
X426532800Y-105719800D02*
X421485500Y-100672500D01*
X421485500Y-100672500D02*
X421485500Y-100251200D01*
X421485500Y-100251200D02*
X420797000Y-99562700D01*
X420797000Y-99562700D02*
X420722900Y-99562700D01*
X420722900Y-99562700D02*
X417130100Y-95969900D01*
X417130100Y-95969900D02*
X417130100Y-46896800D01*
X417130100Y-46896800D02*
X416679800Y-46446500D01*
X416679800Y-46446500D02*
X416679800Y-36788600D01*
X416679800Y-36788600D02*
X416492000Y-36600800D01*
X416492000Y-36600800D02*
X416492000Y-1695800D01*
X416492000Y-1695800D02*
X416823100Y-1364700D01*
X416823100Y-1364700D02*
X420926800Y-1364700D01*
X420926800Y-1364700D02*
X421734700Y-2172600D01*
X421734700Y-2172600D02*
X421734700Y-2540000D01*
X422910000Y-2540000D02*
X421734700Y-2540000D01*
X463550000Y-174880000D02*
X462424700Y-174880000D01*
X428740800Y-145921600D02*
X428740800Y-119382700D01*
X428740800Y-119382700D02*
X429434500Y-118689000D01*
X429434500Y-118689000D02*
X429434500Y-113472700D01*
X429434500Y-113472700D02*
X419234000Y-103272200D01*
X419234000Y-103272200D02*
X419234000Y-102848900D01*
X419234000Y-102848900D02*
X418233600Y-101848500D01*
X418233600Y-101848500D02*
X418233600Y-100257900D01*
X418233600Y-100257900D02*
X414878600Y-96902900D01*
X414878600Y-96902900D02*
X414878600Y-47829800D01*
X414878600Y-47829800D02*
X414428300Y-47379500D01*
X414428300Y-47379500D02*
X414428300Y-37721700D01*
X414428300Y-37721700D02*
X386080000Y-9373400D01*
X386080000Y-9373400D02*
X386080000Y-3715300D01*
X386080000Y-2540000D02*
X386080000Y-3715300D01*
X457344700Y-152689400D02*
X458470000Y-153814700D01*
X462280000Y-128125300D02*
X457344700Y-133060600D01*
X457344700Y-133060600D02*
X457344700Y-152689400D01*
X454515300Y-154940000D02*
X454515300Y-154658700D01*
X454515300Y-154658700D02*
X456484600Y-152689400D01*
X456484600Y-152689400D02*
X457344700Y-152689400D01*
X453390000Y-154940000D02*
X454515300Y-154940000D01*
X458470000Y-154940000D02*
X458470000Y-153814700D01*
X462280000Y-127000000D02*
X462280000Y-128125300D01*
D33*
X311399900Y-142667800D02*
X323869900Y-130197800D01*
X323869900Y-130197800D02*
X323869900Y-105390100D01*
X323869900Y-105390100D02*
X332740000Y-96520000D01*
X327389700Y-160462300D02*
X311399800Y-144472400D01*
X311399800Y-144472400D02*
X311399800Y-142667900D01*
X311399800Y-142667900D02*
X311399900Y-142667800D01*
X306672000Y-137940000D02*
X311399900Y-142667800D01*
X327389700Y-160462300D02*
X323850000Y-164002000D01*
X323850000Y-164002000D02*
X323850000Y-172720000D01*
X328942000Y-158910000D02*
X327389700Y-160462300D01*
X356870000Y-152400000D02*
X356870000Y-153700300D01*
X356870000Y-153700300D02*
X369570000Y-166400300D01*
X369570000Y-166400300D02*
X369570000Y-181610000D01*
X340360000Y-110490000D02*
X340360000Y-102267700D01*
X340360000Y-102267700D02*
X334612300Y-96520000D01*
X334612300Y-96520000D02*
X332740000Y-96520000D01*
X454660000Y-96520000D02*
X454660000Y-102173800D01*
X454660000Y-102173800D02*
X455534700Y-103048500D01*
X461010000Y-109239700D02*
X460628200Y-108857900D01*
X460628200Y-108857900D02*
X460628200Y-103048500D01*
X461010000Y-110490000D02*
X461010000Y-109239700D01*
X454660000Y-95894800D02*
X454660000Y-96520000D01*
X454660000Y-95894800D02*
X454660000Y-95269700D01*
X467360000Y-73660000D02*
X467360000Y-75110300D01*
X461694900Y-88900000D02*
X461694900Y-80775400D01*
X461694900Y-80775400D02*
X467360000Y-75110300D01*
X461694900Y-88900000D02*
X461109700Y-88900000D01*
X462280000Y-88900000D02*
X461694900Y-88900000D01*
X392430000Y-172720000D02*
X393600300Y-172720000D01*
X393600300Y-172720000D02*
X393600300Y-159021700D01*
X393600300Y-159021700D02*
X394982000Y-157640000D01*
X396744000Y-102706300D02*
X394190400Y-105259900D01*
X394190400Y-105259900D02*
X394190400Y-113030000D01*
X396744000Y-101406000D02*
X396744000Y-102706300D01*
X432955000Y-62420300D02*
X432955000Y-89389000D01*
X432955000Y-89389000D02*
X437337700Y-93771700D01*
X345440000Y-73660000D02*
X344269700Y-73660000D01*
X342900000Y-62150000D02*
X344269700Y-63519700D01*
X344269700Y-63519700D02*
X344269700Y-73660000D01*
X457200000Y-66040000D02*
X458470000Y-67310000D01*
X458470000Y-67310000D02*
X458470000Y-89592500D01*
X458470000Y-89592500D02*
X459249300Y-90371800D01*
X459249300Y-90371800D02*
X460207800Y-90371800D01*
X460207800Y-90371800D02*
X461109700Y-89469900D01*
X461109700Y-89469900D02*
X461109700Y-88900000D01*
X324370000Y-19210000D02*
X324370000Y-20460300D01*
X324370000Y-20460300D02*
X311122000Y-33708300D01*
X311122000Y-33708300D02*
X311122000Y-59469000D01*
X445770000Y-174880000D02*
X444519700Y-174880000D01*
X444519700Y-174880000D02*
X444519700Y-175320300D01*
X444519700Y-175320300D02*
X438150000Y-181690000D01*
X445850000Y-168910000D02*
X445770000Y-168990000D01*
X445770000Y-168990000D02*
X445770000Y-174880000D01*
X459740000Y-127000000D02*
X459740000Y-128250300D01*
X459740000Y-128250300D02*
X448310000Y-139680300D01*
X448310000Y-139680300D02*
X448310000Y-147320000D01*
X461010000Y-111740300D02*
X459740000Y-113010300D01*
X459740000Y-113010300D02*
X459740000Y-127000000D01*
X448310000Y-147320000D02*
X447059700Y-147320000D01*
X445816100Y-149287400D02*
X447059700Y-148043800D01*
X447059700Y-148043800D02*
X447059700Y-147320000D01*
X382282000Y-142400000D02*
X382282000Y-134217500D01*
X384689800Y-126922000D02*
X384689800Y-126879800D01*
X384689800Y-126879800D02*
X370840000Y-113030000D01*
X383540000Y-127000000D02*
X384611800Y-127000000D01*
X384611800Y-127000000D02*
X384689800Y-126922000D01*
X384689800Y-126922000D02*
X386124500Y-126922000D01*
X328180000Y-19210000D02*
X328180000Y-14720000D01*
X328180000Y-14720000D02*
X336550000Y-6350000D01*
X454660000Y-95269700D02*
X455509500Y-94420200D01*
X455509500Y-94420200D02*
X455509500Y-92009900D01*
X347880000Y-155178000D02*
X347880000Y-160258000D01*
X347880000Y-150098000D02*
X347880000Y-155178000D01*
X438150000Y-110490000D02*
X438150000Y-94584000D01*
X438150000Y-94584000D02*
X437337700Y-93771700D01*
X472500000Y-174880000D02*
X472500000Y-168970000D01*
X472500000Y-168970000D02*
X472440000Y-168910000D01*
X432955000Y-61120000D02*
X432955000Y-62420300D01*
X461010000Y-110490000D02*
X461010000Y-111740300D01*
D32*
X370840000Y-2540000D02*
X370840000Y-38590900D01*
X370840000Y-38590900D02*
X346710000Y-62720900D01*
X346710000Y-62720900D02*
X346710000Y-74161300D01*
X346710000Y-74161300D02*
X336325300Y-84546000D01*
X336325300Y-84546000D02*
X336325300Y-88900000D01*
X336325300Y-88900000D02*
X336325300Y-89194000D01*
X336325300Y-89194000D02*
X350937600Y-103806300D01*
X350937600Y-103806300D02*
X355692300Y-103806300D01*
X355692300Y-103806300D02*
X362094700Y-110208700D01*
X362094700Y-110208700D02*
X362094700Y-110490000D01*
X335280000Y-88900000D02*
X336325300Y-88900000D01*
X363220000Y-110490000D02*
X362094700Y-110490000D01*
X399097000Y-134542000D02*
X393731500Y-129176500D01*
X393731500Y-129176500D02*
X392112200Y-129176500D01*
X392112200Y-129176500D02*
X389182100Y-126246400D01*
X389182100Y-126246400D02*
X389182100Y-125719800D01*
X389182100Y-125719800D02*
X385314000Y-121851700D01*
X385314000Y-121851700D02*
X385314000Y-12790500D01*
X385314000Y-12790500D02*
X373863800Y-1340300D01*
X373863800Y-1340300D02*
X370309700Y-1340300D01*
X370309700Y-1340300D02*
X369475300Y-2174700D01*
X369475300Y-2174700D02*
X369475300Y-2540000D01*
X368300000Y-2540000D02*
X369475300Y-2540000D01*
X392602300Y-134542000D02*
X392602300Y-134823300D01*
X392602300Y-134823300D02*
X393481400Y-135702400D01*
X393481400Y-135702400D02*
X397064300Y-135702400D01*
X397064300Y-135702400D02*
X397736600Y-135030100D01*
X397736600Y-135030100D02*
X397736600Y-134049600D01*
X397736600Y-134049600D02*
X393472800Y-129785800D01*
X393472800Y-129785800D02*
X392072200Y-129785800D01*
X392072200Y-129785800D02*
X388731800Y-126445400D01*
X388731800Y-126445400D02*
X388731800Y-125906400D01*
X388731800Y-125906400D02*
X373380000Y-110554600D01*
X373380000Y-110554600D02*
X373380000Y-2540000D01*
X391477000Y-134542000D02*
X392602300Y-134542000D01*
X485140000Y-134620000D02*
X484014700Y-134620000D01*
X484014700Y-134620000D02*
X484014700Y-134901300D01*
X484014700Y-134901300D02*
X482832100Y-136083900D01*
X482832100Y-136083900D02*
X474430900Y-136083900D01*
X419510200Y-118695700D02*
X417333000Y-116518500D01*
X417333000Y-116518500D02*
X417333000Y-100631100D01*
X417333000Y-100631100D02*
X413978000Y-97276100D01*
X413978000Y-97276100D02*
X413978000Y-48203100D01*
X413978000Y-48203100D02*
X413527700Y-47752800D01*
X413527700Y-47752800D02*
X413527700Y-39825000D01*
X413527700Y-39825000D02*
X374547300Y-844600D01*
X374547300Y-844600D02*
X368263400Y-844600D01*
X368263400Y-844600D02*
X366935300Y-2172700D01*
X366935300Y-2172700D02*
X366935300Y-2540000D01*
X365760000Y-2540000D02*
X366935300Y-2540000D01*
X451996600Y-116556100D02*
X452491600Y-116061100D01*
X452491600Y-116061100D02*
X452491600Y-113333900D01*
X452491600Y-113333900D02*
X451996600Y-112838900D01*
X451996600Y-112838900D02*
X451996600Y-90558800D01*
X474980000Y-127000000D02*
X474980000Y-111600000D01*
X474980000Y-111600000D02*
X460562800Y-97182800D01*
X460562800Y-97182800D02*
X460562800Y-94855500D01*
X460562800Y-94855500D02*
X456126800Y-90419500D01*
X456126800Y-90419500D02*
X456126800Y-71856500D01*
X456126800Y-71856500D02*
X456394700Y-71588600D01*
X456394700Y-71588600D02*
X456394700Y-70987600D01*
X456394700Y-70987600D02*
X456037500Y-70630400D01*
X456037500Y-70630400D02*
X456037500Y-48058200D01*
X456037500Y-48058200D02*
X420370000Y-12390700D01*
X420370000Y-12390700D02*
X420370000Y-2540000D01*
X474980000Y-128125300D02*
X473705600Y-129399700D01*
X473705600Y-129399700D02*
X473705600Y-161059100D01*
X473705600Y-161059100D02*
X461010000Y-173754700D01*
X474980000Y-127450000D02*
X474980000Y-127000000D01*
X474980000Y-127450000D02*
X474980000Y-128125300D01*
X461010000Y-174880000D02*
X461010000Y-173754700D01*
X359410000Y-142240000D02*
X360585300Y-142240000D01*
X360585300Y-142240000D02*
X375985300Y-157640000D01*
X375985300Y-157640000D02*
X377202000Y-157640000D01*
X328912000Y-144360000D02*
X328942000Y-144390000D01*
X328942000Y-144390000D02*
X328942000Y-151290000D01*
X400029600Y-135602300D02*
X400282600Y-135349300D01*
X400282600Y-135349300D02*
X400282600Y-134127600D01*
X400282600Y-134127600D02*
X397581300Y-131426300D01*
X397581300Y-131426300D02*
X396923800Y-131426300D01*
X396923800Y-131426300D02*
X392747000Y-127249500D01*
X392747000Y-127249500D02*
X392747000Y-103081000D01*
X355535600Y-103081000D02*
X353281500Y-103081000D01*
X353281500Y-103081000D02*
X350520000Y-100319500D01*
X350520000Y-100319500D02*
X350520000Y-88900000D01*
X401637000Y-134542000D02*
X401637000Y-133416700D01*
X401637000Y-133416700D02*
X402762300Y-132291400D01*
X402762300Y-132291400D02*
X402762300Y-120162000D01*
X402762300Y-120162000D02*
X414418400Y-108505900D01*
X414418400Y-108505900D02*
X415224200Y-108505900D01*
X372430800Y-29776400D02*
X372430800Y-105677200D01*
X372430800Y-105677200D02*
X369674000Y-108434000D01*
X369674000Y-108434000D02*
X369674000Y-121197200D01*
X369674000Y-121197200D02*
X380803000Y-132326200D01*
X309880000Y-124460000D02*
X309880000Y-123284700D01*
X309880000Y-123284700D02*
X307340000Y-120744700D01*
X307340000Y-120744700D02*
X307340000Y-110490000D01*
X389124000Y-101406000D02*
X389124000Y-70556900D01*
X386584000Y-101406000D02*
X386584000Y-77580800D01*
X384044000Y-100230700D02*
X377582200Y-93768900D01*
X377582200Y-93768900D02*
X377582200Y-71826000D01*
X384044000Y-101406000D02*
X384044000Y-100230700D01*
X355600000Y-88900000D02*
X354554700Y-88900000D01*
X354554700Y-88900000D02*
X354554700Y-89945300D01*
X354554700Y-89945300D02*
X352311600Y-92188400D01*
X352311600Y-92188400D02*
X352311600Y-101057800D01*
X358140000Y-73660000D02*
X359185300Y-73660000D01*
X350520000Y-110490000D02*
X351645300Y-110490000D01*
X351645300Y-110490000D02*
X351645300Y-110771300D01*
X351645300Y-110771300D02*
X353945100Y-113071100D01*
X353945100Y-113071100D02*
X364400000Y-113071100D01*
X364400000Y-113071100D02*
X365780300Y-111690800D01*
X365780300Y-111690800D02*
X365780300Y-80255000D01*
X365780300Y-80255000D02*
X359185300Y-73660000D01*
X354105300Y-73660000D02*
X354105300Y-74705300D01*
X354105300Y-74705300D02*
X365308300Y-85908300D01*
X365308300Y-85908300D02*
X365308300Y-111475200D01*
X365308300Y-111475200D02*
X364167200Y-112616300D01*
X364167200Y-112616300D02*
X358570300Y-112616300D01*
X358570300Y-112616300D02*
X356725300Y-110771300D01*
X356725300Y-110771300D02*
X356725300Y-110490000D01*
X353060000Y-73660000D02*
X354105300Y-73660000D01*
X355600000Y-110490000D02*
X356725300Y-110490000D01*
X351565300Y-73660000D02*
X351565300Y-75342100D01*
X351565300Y-75342100D02*
X364857900Y-88634700D01*
X364857900Y-88634700D02*
X364857900Y-111220300D01*
X364857900Y-111220300D02*
X363955100Y-112123100D01*
X363955100Y-112123100D02*
X360617100Y-112123100D01*
X360617100Y-112123100D02*
X359265300Y-110771300D01*
X359265300Y-110771300D02*
X359265300Y-110490000D01*
X350520000Y-73660000D02*
X351565300Y-73660000D01*
X358140000Y-110490000D02*
X359265300Y-110490000D01*
X349025300Y-73660000D02*
X349025300Y-75342100D01*
X349025300Y-75342100D02*
X364407500Y-90724300D01*
X364407500Y-90724300D02*
X364407500Y-110959300D01*
X364407500Y-110959300D02*
X363701800Y-111665000D01*
X363701800Y-111665000D02*
X361855000Y-111665000D01*
X361855000Y-111665000D02*
X360680000Y-110490000D01*
X347980000Y-73660000D02*
X349025300Y-73660000D01*
X324074700Y-34290000D02*
X323624400Y-34740300D01*
X323624400Y-34740300D02*
X323624400Y-57029200D01*
X323624400Y-57029200D02*
X327659900Y-61064700D01*
X327659900Y-61064700D02*
X327659900Y-64864700D01*
X327659900Y-64864700D02*
X327660000Y-64864700D01*
X327660000Y-66040000D02*
X327660000Y-64864700D01*
X325120000Y-34290000D02*
X324074700Y-34290000D01*
X325120000Y-34290000D02*
X325120000Y-32964700D01*
X324370000Y-26830000D02*
X324370000Y-32214700D01*
X324370000Y-32214700D02*
X325120000Y-32964700D01*
X327660000Y-34290000D02*
X326614700Y-34290000D01*
X326614700Y-34290000D02*
X326614700Y-35335300D01*
X326614700Y-35335300D02*
X324074700Y-37875300D01*
X324074700Y-37875300D02*
X324074700Y-56186100D01*
X324074700Y-56186100D02*
X328840300Y-60951700D01*
X328840300Y-60951700D02*
X328840300Y-66568700D01*
X328840300Y-66568700D02*
X328193700Y-67215300D01*
X328193700Y-67215300D02*
X327103200Y-67215300D01*
X327103200Y-67215300D02*
X326295300Y-66407400D01*
X326295300Y-66407400D02*
X326295300Y-66040000D01*
X325120000Y-66040000D02*
X326295300Y-66040000D01*
X328180000Y-27955300D02*
X327660000Y-28475300D01*
X327660000Y-28475300D02*
X327660000Y-34290000D01*
X328180000Y-26830000D02*
X328180000Y-27955300D01*
X328822000Y-59342000D02*
X325120000Y-55640000D01*
X325120000Y-55640000D02*
X325120000Y-49530000D01*
X325120000Y-90252400D02*
X325120000Y-88900000D01*
X325120000Y-96520000D02*
X325120000Y-90252400D01*
X325120000Y-90252400D02*
X330681400Y-90252400D01*
X330681400Y-90252400D02*
X331246200Y-89687600D01*
X331246200Y-89687600D02*
X331246200Y-61766200D01*
X331246200Y-61766200D02*
X328822000Y-59342000D01*
X447040000Y-73660000D02*
X448085300Y-73660000D01*
X455669400Y-71288100D02*
X450163200Y-71288100D01*
X450163200Y-71288100D02*
X448085300Y-73366000D01*
X448085300Y-73366000D02*
X448085300Y-73660000D01*
X347980000Y-88900000D02*
X349025300Y-88900000D01*
X359410000Y-100330000D02*
X356870000Y-97790000D01*
X356870000Y-97790000D02*
X356870000Y-88405000D01*
X356870000Y-88405000D02*
X356017500Y-87552500D01*
X356017500Y-87552500D02*
X350078800Y-87552500D01*
X350078800Y-87552500D02*
X349025300Y-88606000D01*
X349025300Y-88606000D02*
X349025300Y-88900000D01*
X347980000Y-97990000D02*
X347980000Y-88900000D01*
X347980000Y-102870000D02*
X344170000Y-102870000D01*
X344170000Y-102870000D02*
X341630000Y-100330000D01*
X466621800Y-91204400D02*
X466621800Y-101968000D01*
X466621800Y-101968000D02*
X468756000Y-104102200D01*
X468756000Y-104102200D02*
X469782800Y-104102200D01*
X469782800Y-104102200D02*
X470420000Y-103465000D01*
X467360000Y-88900000D02*
X467360000Y-90225300D01*
X467360000Y-97238500D02*
X467360000Y-90225300D01*
X469442300Y-95832800D02*
X470420000Y-96810500D01*
X470420000Y-96810500D02*
X470420000Y-98585000D01*
X309245000Y-13570000D02*
X310527000Y-14852000D01*
X310527000Y-14852000D02*
X310527000Y-26830000D01*
X468854700Y-73660000D02*
X468854700Y-74705300D01*
X468854700Y-74705300D02*
X465887100Y-77672900D01*
X465887100Y-77672900D02*
X465887100Y-101870200D01*
X465887100Y-101870200D02*
X473012200Y-108995300D01*
X473012200Y-108995300D02*
X473444500Y-108995300D01*
X469900000Y-73660000D02*
X468854700Y-73660000D01*
X471394700Y-73660000D02*
X471394700Y-74140600D01*
X471394700Y-74140600D02*
X468630000Y-76905300D01*
X468630000Y-76905300D02*
X468630000Y-90365900D01*
X468630000Y-90365900D02*
X468241100Y-90754800D01*
X468241100Y-90754800D02*
X468241100Y-102140500D01*
X472440000Y-73660000D02*
X471394700Y-73660000D01*
X473934700Y-73660000D02*
X473934700Y-90314700D01*
X473934700Y-90314700D02*
X468717000Y-95532400D01*
X468717000Y-95532400D02*
X468717000Y-96133200D01*
X468717000Y-96133200D02*
X469056400Y-96472600D01*
X469056400Y-96472600D02*
X469056400Y-103376900D01*
X453390000Y-118110000D02*
X453390000Y-116984700D01*
X474980000Y-73660000D02*
X473934700Y-73660000D01*
X453390000Y-116984700D02*
X454147900Y-116226800D01*
X454147900Y-116226800D02*
X454147900Y-115540700D01*
X454147900Y-115540700D02*
X455571900Y-114116700D01*
X457256200Y-121563300D02*
X457256200Y-114680400D01*
X457256200Y-114680400D02*
X459651400Y-112285200D01*
X459651400Y-112285200D02*
X459651400Y-95116000D01*
X459651400Y-95116000D02*
X455820000Y-91284600D01*
X455820000Y-91284600D02*
X455285100Y-91284600D01*
X455285100Y-91284600D02*
X453567500Y-89567000D01*
X453567500Y-89567000D02*
X453567500Y-85888100D01*
X453567500Y-85888100D02*
X453680900Y-85774700D01*
X448310000Y-118110000D02*
X448310000Y-116984700D01*
X448310000Y-116984700D02*
X448416000Y-116984700D01*
X448416000Y-116984700D02*
X451766300Y-113634400D01*
X445770000Y-118110000D02*
X445770000Y-116984700D01*
X445770000Y-116984700D02*
X446895300Y-116984700D01*
X446895300Y-116984700D02*
X451260900Y-112619100D01*
X443230000Y-116984700D02*
X443511300Y-116984700D01*
X443511300Y-116984700D02*
X449580000Y-110916000D01*
X449580000Y-110916000D02*
X449580000Y-108762400D01*
X443230000Y-118110000D02*
X443230000Y-116984700D01*
X440690000Y-116984700D02*
X441155200Y-116984700D01*
X441155200Y-116984700D02*
X446895400Y-111244500D01*
X446895400Y-111244500D02*
X446895400Y-108574300D01*
X440690000Y-118110000D02*
X440690000Y-116984700D01*
X330200000Y-88900000D02*
X329154700Y-88900000D01*
X316202000Y-59469000D02*
X316202000Y-60644300D01*
X316202000Y-60644300D02*
X316422400Y-60644300D01*
X316422400Y-60644300D02*
X329154700Y-73376600D01*
X329154700Y-73376600D02*
X329154700Y-88900000D01*
X313662000Y-59469000D02*
X313662000Y-60644300D01*
X327660000Y-88900000D02*
X326614700Y-88900000D01*
X313662000Y-60644300D02*
X313882400Y-60644300D01*
X313882400Y-60644300D02*
X326614700Y-73376600D01*
X326614700Y-73376600D02*
X326614700Y-88900000D01*
X452120000Y-88900000D02*
X451074700Y-88900000D01*
X438035000Y-61120000D02*
X438035000Y-62295300D01*
X438035000Y-62295300D02*
X444912800Y-69173100D01*
X444912800Y-69173100D02*
X444912800Y-81692800D01*
X444912800Y-81692800D02*
X451074700Y-87854700D01*
X451074700Y-87854700D02*
X451074700Y-88900000D01*
X448534700Y-88900000D02*
X448534700Y-86555400D01*
X448534700Y-86555400D02*
X443448500Y-81469200D01*
X443448500Y-81469200D02*
X443448500Y-70248800D01*
X443448500Y-70248800D02*
X435495000Y-62295300D01*
X449580000Y-88900000D02*
X448534700Y-88900000D01*
X435495000Y-61120000D02*
X435495000Y-62295300D01*
X447040000Y-96520000D02*
X447040000Y-88900000D01*
X347980000Y-49530000D02*
X349025300Y-49530000D01*
X356235000Y-25400000D02*
X349025300Y-32609700D01*
X349025300Y-32609700D02*
X349025300Y-49530000D01*
X330200000Y-34290000D02*
X330200000Y-32964700D01*
X347540000Y-6150000D02*
X347540000Y-7275300D01*
X347540000Y-7275300D02*
X348689400Y-8424700D01*
X348689400Y-8424700D02*
X348689400Y-14475300D01*
X348689400Y-14475300D02*
X330200000Y-32964700D01*
X345440000Y-49530000D02*
X346485300Y-49530000D01*
X355515000Y-19180000D02*
X346485300Y-28209700D01*
X346485300Y-28209700D02*
X346485300Y-49530000D01*
X360240000Y-13770000D02*
X360240000Y-14895300D01*
X361115000Y-25400000D02*
X361115000Y-15770300D01*
X361115000Y-15770300D02*
X360240000Y-14895300D01*
X351205300Y-6150000D02*
X351205300Y-5868700D01*
X351205300Y-5868700D02*
X352558300Y-4515700D01*
X352558300Y-4515700D02*
X362784400Y-4515700D01*
X362784400Y-4515700D02*
X364798600Y-6529900D01*
X364798600Y-6529900D02*
X364798600Y-40254600D01*
X364798600Y-40254600D02*
X356645300Y-48407900D01*
X356645300Y-48407900D02*
X356645300Y-49530000D01*
X355600000Y-49530000D02*
X356645300Y-49530000D01*
X350080000Y-6150000D02*
X351205300Y-6150000D01*
X356285300Y-6150000D02*
X356285300Y-5868700D01*
X356285300Y-5868700D02*
X357182300Y-4971700D01*
X357182300Y-4971700D02*
X360697400Y-4971700D01*
X360697400Y-4971700D02*
X361565400Y-5839700D01*
X361565400Y-5839700D02*
X361565400Y-24250100D01*
X361565400Y-24250100D02*
X362190400Y-24875100D01*
X362190400Y-24875100D02*
X362190400Y-40322800D01*
X362190400Y-40322800D02*
X354105300Y-48407900D01*
X354105300Y-48407900D02*
X354105300Y-49530000D01*
X353060000Y-49530000D02*
X354105300Y-49530000D01*
X355160000Y-6150000D02*
X356285300Y-6150000D01*
X350520000Y-49530000D02*
X351565300Y-49530000D01*
X351565300Y-49530000D02*
X351565300Y-48484700D01*
X351565300Y-48484700D02*
X359839000Y-40211000D01*
X359839000Y-40211000D02*
X359839000Y-18502000D01*
X359839000Y-18502000D02*
X358970000Y-17633000D01*
X358970000Y-17633000D02*
X358970000Y-10330800D01*
X337820000Y-49530000D02*
X338865300Y-49530000D01*
X360240000Y-6150000D02*
X360240000Y-7275300D01*
X360240000Y-7275300D02*
X356430000Y-11085300D01*
X356430000Y-11085300D02*
X356430000Y-16115800D01*
X356430000Y-16115800D02*
X338865300Y-33680500D01*
X338865300Y-33680500D02*
X338865300Y-49530000D01*
X335280000Y-49530000D02*
X336325300Y-49530000D01*
X355160000Y-13770000D02*
X354034700Y-13770000D01*
X354034700Y-13770000D02*
X354034700Y-14144900D01*
X354034700Y-14144900D02*
X352061500Y-16118100D01*
X352061500Y-16118100D02*
X351954300Y-16118100D01*
X351954300Y-16118100D02*
X336325300Y-31747100D01*
X336325300Y-31747100D02*
X336325300Y-49530000D01*
X352620000Y-14895300D02*
X352460800Y-14895300D01*
X352460800Y-14895300D02*
X333785300Y-33570800D01*
X333785300Y-33570800D02*
X333785300Y-49530000D01*
X332740000Y-49530000D02*
X333785300Y-49530000D01*
X352620000Y-13770000D02*
X352620000Y-14895300D01*
X330200000Y-49530000D02*
X331245300Y-49530000D01*
X350080000Y-13770000D02*
X350080000Y-14895300D01*
X350080000Y-14895300D02*
X331245300Y-33730000D01*
X331245300Y-33730000D02*
X331245300Y-49530000D01*
X327660000Y-49530000D02*
X328705300Y-49530000D01*
X347540000Y-13770000D02*
X347540000Y-14895300D01*
X347540000Y-14895300D02*
X328705300Y-33730000D01*
X328705300Y-33730000D02*
X328705300Y-49530000D01*
X314292000Y-137940000D02*
X307340000Y-130988000D01*
X307340000Y-130988000D02*
X307340000Y-124460000D01*
X458470000Y-173754700D02*
X458470000Y-171590200D01*
X458470000Y-171590200D02*
X439420000Y-152540200D01*
X439420000Y-152540200D02*
X439420000Y-117283600D01*
X439420000Y-117283600D02*
X428067800Y-105931400D01*
X428067800Y-105931400D02*
X428067800Y-105294500D01*
X428067800Y-105294500D02*
X422836400Y-100063100D01*
X422836400Y-100063100D02*
X422836400Y-99691400D01*
X422836400Y-99691400D02*
X421356800Y-98211800D01*
X421356800Y-98211800D02*
X421282700Y-98211800D01*
X421282700Y-98211800D02*
X418580800Y-95509900D01*
X418580800Y-95509900D02*
X418580800Y-41427000D01*
X418580800Y-41427000D02*
X417967700Y-40813900D01*
X417967700Y-40813900D02*
X417967600Y-40813900D01*
X417967600Y-40813900D02*
X417967600Y-3852900D01*
X417967600Y-3852900D02*
X417830000Y-3715300D01*
X417830000Y-2540000D02*
X417830000Y-3715300D01*
X458470000Y-174880000D02*
X458470000Y-173754700D01*
X407944400Y-35267500D02*
X407944400Y-43031300D01*
X407944400Y-43031300D02*
X413527700Y-48614600D01*
X413527700Y-48614600D02*
X413527700Y-97462700D01*
X413527700Y-97462700D02*
X416882700Y-100817700D01*
X416882700Y-100817700D02*
X416882700Y-126052700D01*
X416882700Y-126052700D02*
X422910000Y-132080000D01*
X393487300Y-157640000D02*
X393487300Y-157346000D01*
X393487300Y-157346000D02*
X399318700Y-151514600D01*
X399318700Y-151514600D02*
X405408600Y-151514600D01*
X405408600Y-151514600D02*
X414032000Y-142891200D01*
X414032000Y-142891200D02*
X414032000Y-141881200D01*
X414032000Y-141881200D02*
X415643500Y-140269700D01*
X415643500Y-140269700D02*
X415718600Y-140269700D01*
X415718600Y-140269700D02*
X422910000Y-133078300D01*
X422910000Y-133078300D02*
X422910000Y-132080000D01*
X392442000Y-157640000D02*
X393487300Y-157640000D01*
D33*
X486313000Y-35519400D02*
X488804200Y-35519400D01*
X488804200Y-35519400D02*
X491986000Y-38701200D01*
X491986000Y-38701200D02*
X491986000Y-68478700D01*
X491986000Y-68478700D02*
X491828200Y-68636500D01*
X491828200Y-68636500D02*
X491828200Y-70087300D01*
X491828200Y-70087300D02*
X492038600Y-70297700D01*
X492038600Y-70297700D02*
X492038600Y-114287100D01*
X492038600Y-114287100D02*
X489839000Y-116486700D01*
X486313000Y-35519400D02*
X486313000Y-40543000D01*
X486313000Y-40543000D02*
X487680000Y-41910000D01*
X489069700Y-24130000D02*
X487919400Y-25280300D01*
X487919400Y-25280300D02*
X486570400Y-25280300D01*
X486570400Y-25280300D02*
X485724900Y-26125800D01*
X485724900Y-26125800D02*
X485724900Y-34931300D01*
X485724900Y-34931300D02*
X486313000Y-35519400D01*
X489839000Y-118237000D02*
X489839000Y-116486700D01*
X490220000Y-24130000D02*
X489069700Y-24130000D01*
M02*
