G04 #@! TF.GenerationSoftware,KiCad,Pcbnew,(5.1.7)-1*
G04 #@! TF.CreationDate,2020-12-04T08:14:49+03:00*
G04 #@! TF.ProjectId,SmartyKitPCB,536d6172-7479-44b6-9974-5043422e6b69,rev?*
G04 #@! TF.SameCoordinates,Original*
G04 #@! TF.FileFunction,Soldermask,Top*
G04 #@! TF.FilePolarity,Negative*
%FSLAX46Y46*%
G04 Gerber Fmt 4.6, Leading zero omitted, Abs format (unit mm)*
G04 Created by KiCad (PCBNEW (5.1.7)-1) date 2020-12-04 08:14:49*
%MOMM*%
%LPD*%
G01*
G04 APERTURE LIST*
%ADD10C,2.600000*%
%ADD11R,2.600000X2.600000*%
%ADD12O,1.700000X1.700000*%
%ADD13R,1.700000X1.700000*%
%ADD14O,1.440000X2.000000*%
%ADD15R,1.440000X2.000000*%
%ADD16O,1.600000X1.600000*%
%ADD17C,1.600000*%
%ADD18R,1.600000X1.600000*%
%ADD19C,1.500000*%
%ADD20C,2.000000*%
%ADD21C,3.616000*%
%ADD22C,2.550000*%
%ADD23C,1.800000*%
%ADD24R,1.800000X1.800000*%
%ADD25C,1.400000*%
%ADD26R,1.400000X1.400000*%
%ADD27O,2.000000X4.000000*%
%ADD28O,3.500000X2.000000*%
%ADD29C,3.450000*%
%ADD30C,3.000000*%
%ADD31R,3.000000X3.000000*%
G04 APERTURE END LIST*
D10*
X489839000Y-113237000D03*
D11*
X489839000Y-118237000D03*
D12*
X490728000Y-104140000D03*
X490728000Y-101600000D03*
D13*
X490728000Y-99060000D03*
G36*
G01*
X488792000Y-15496250D02*
X488792000Y-14983750D01*
G75*
G02*
X489010750Y-14765000I218750J0D01*
G01*
X489448250Y-14765000D01*
G75*
G02*
X489667000Y-14983750I0J-218750D01*
G01*
X489667000Y-15496250D01*
G75*
G02*
X489448250Y-15715000I-218750J0D01*
G01*
X489010750Y-15715000D01*
G75*
G02*
X488792000Y-15496250I0J218750D01*
G01*
G37*
G36*
G01*
X487217000Y-15496250D02*
X487217000Y-14983750D01*
G75*
G02*
X487435750Y-14765000I218750J0D01*
G01*
X487873250Y-14765000D01*
G75*
G02*
X488092000Y-14983750I0J-218750D01*
G01*
X488092000Y-15496250D01*
G75*
G02*
X487873250Y-15715000I-218750J0D01*
G01*
X487435750Y-15715000D01*
G75*
G02*
X487217000Y-15496250I0J218750D01*
G01*
G37*
D14*
X425462000Y-142400000D03*
X425462000Y-157640000D03*
X422922000Y-142400000D03*
X422922000Y-157640000D03*
X420382000Y-142400000D03*
X420382000Y-157640000D03*
X417842000Y-142400000D03*
X417842000Y-157640000D03*
X415302000Y-142400000D03*
X415302000Y-157640000D03*
X412762000Y-142400000D03*
X412762000Y-157640000D03*
X410222000Y-142400000D03*
X410222000Y-157640000D03*
X407682000Y-142400000D03*
X407682000Y-157640000D03*
X405142000Y-142400000D03*
X405142000Y-157640000D03*
X402602000Y-142400000D03*
X402602000Y-157640000D03*
X400062000Y-142400000D03*
X400062000Y-157640000D03*
X397522000Y-142400000D03*
X397522000Y-157640000D03*
X394982000Y-142400000D03*
X394982000Y-157640000D03*
X392442000Y-142400000D03*
X392442000Y-157640000D03*
X389902000Y-142400000D03*
X389902000Y-157640000D03*
X387362000Y-142400000D03*
X387362000Y-157640000D03*
X384822000Y-142400000D03*
X384822000Y-157640000D03*
X382282000Y-142400000D03*
X382282000Y-157640000D03*
X379742000Y-142400000D03*
X379742000Y-157640000D03*
X377202000Y-142400000D03*
D15*
X377202000Y-157640000D03*
D14*
X356870000Y-172720000D03*
X356870000Y-187960000D03*
X354330000Y-172720000D03*
X354330000Y-187960000D03*
X351790000Y-172720000D03*
X351790000Y-187960000D03*
X349250000Y-172720000D03*
X349250000Y-187960000D03*
X346710000Y-172720000D03*
X346710000Y-187960000D03*
X344170000Y-172720000D03*
X344170000Y-187960000D03*
X341630000Y-172720000D03*
X341630000Y-187960000D03*
X339090000Y-172720000D03*
X339090000Y-187960000D03*
X336550000Y-172720000D03*
X336550000Y-187960000D03*
X334010000Y-172720000D03*
X334010000Y-187960000D03*
X331470000Y-172720000D03*
X331470000Y-187960000D03*
X328930000Y-172720000D03*
X328930000Y-187960000D03*
X326390000Y-172720000D03*
X326390000Y-187960000D03*
X323850000Y-172720000D03*
D15*
X323850000Y-187960000D03*
D14*
X358140000Y-34290000D03*
X358140000Y-49530000D03*
X355600000Y-34290000D03*
X355600000Y-49530000D03*
X353060000Y-34290000D03*
X353060000Y-49530000D03*
X350520000Y-34290000D03*
X350520000Y-49530000D03*
X347980000Y-34290000D03*
X347980000Y-49530000D03*
X345440000Y-34290000D03*
X345440000Y-49530000D03*
X342900000Y-34290000D03*
X342900000Y-49530000D03*
X340360000Y-34290000D03*
X340360000Y-49530000D03*
X337820000Y-34290000D03*
X337820000Y-49530000D03*
X335280000Y-34290000D03*
X335280000Y-49530000D03*
X332740000Y-34290000D03*
X332740000Y-49530000D03*
X330200000Y-34290000D03*
X330200000Y-49530000D03*
X327660000Y-34290000D03*
X327660000Y-49530000D03*
X325120000Y-34290000D03*
D15*
X325120000Y-49530000D03*
D14*
X480060000Y-73660000D03*
X480060000Y-88900000D03*
X477520000Y-73660000D03*
X477520000Y-88900000D03*
X474980000Y-73660000D03*
X474980000Y-88900000D03*
X472440000Y-73660000D03*
X472440000Y-88900000D03*
X469900000Y-73660000D03*
X469900000Y-88900000D03*
X467360000Y-73660000D03*
X467360000Y-88900000D03*
X464820000Y-73660000D03*
X464820000Y-88900000D03*
X462280000Y-73660000D03*
X462280000Y-88900000D03*
X459740000Y-73660000D03*
X459740000Y-88900000D03*
X457200000Y-73660000D03*
X457200000Y-88900000D03*
X454660000Y-73660000D03*
X454660000Y-88900000D03*
X452120000Y-73660000D03*
X452120000Y-88900000D03*
X449580000Y-73660000D03*
X449580000Y-88900000D03*
X447040000Y-73660000D03*
D15*
X447040000Y-88900000D03*
D14*
X358140000Y-73660000D03*
X358140000Y-88900000D03*
X355600000Y-73660000D03*
X355600000Y-88900000D03*
X353060000Y-73660000D03*
X353060000Y-88900000D03*
X350520000Y-73660000D03*
X350520000Y-88900000D03*
X347980000Y-73660000D03*
X347980000Y-88900000D03*
X345440000Y-73660000D03*
X345440000Y-88900000D03*
X342900000Y-73660000D03*
X342900000Y-88900000D03*
X340360000Y-73660000D03*
X340360000Y-88900000D03*
X337820000Y-73660000D03*
X337820000Y-88900000D03*
X335280000Y-73660000D03*
X335280000Y-88900000D03*
X332740000Y-73660000D03*
X332740000Y-88900000D03*
X330200000Y-73660000D03*
X330200000Y-88900000D03*
X327660000Y-73660000D03*
X327660000Y-88900000D03*
X325120000Y-73660000D03*
D15*
X325120000Y-88900000D03*
D14*
X425450000Y-172720000D03*
X425450000Y-187960000D03*
X422910000Y-172720000D03*
X422910000Y-187960000D03*
X420370000Y-172720000D03*
X420370000Y-187960000D03*
X417830000Y-172720000D03*
X417830000Y-187960000D03*
X415290000Y-172720000D03*
X415290000Y-187960000D03*
X412750000Y-172720000D03*
X412750000Y-187960000D03*
X410210000Y-172720000D03*
X410210000Y-187960000D03*
X407670000Y-172720000D03*
X407670000Y-187960000D03*
X405130000Y-172720000D03*
X405130000Y-187960000D03*
X402590000Y-172720000D03*
X402590000Y-187960000D03*
X400050000Y-172720000D03*
X400050000Y-187960000D03*
X397510000Y-172720000D03*
X397510000Y-187960000D03*
X394970000Y-172720000D03*
X394970000Y-187960000D03*
X392430000Y-172720000D03*
D15*
X392430000Y-187960000D03*
D12*
X406400000Y-2540000D03*
D13*
X403860000Y-2540000D03*
D12*
X388620000Y-2540000D03*
D13*
X386080000Y-2540000D03*
D16*
X438150000Y-132080000D03*
D17*
X430530000Y-132080000D03*
D12*
X373380000Y-2540000D03*
X370840000Y-2540000D03*
X368300000Y-2540000D03*
D13*
X365760000Y-2540000D03*
D12*
X425450000Y-2540000D03*
X422910000Y-2540000D03*
X420370000Y-2540000D03*
D13*
X417830000Y-2540000D03*
D12*
X491490000Y-2540000D03*
X488950000Y-2540000D03*
X486410000Y-2540000D03*
X483870000Y-2540000D03*
X481330000Y-2540000D03*
X478790000Y-2540000D03*
X476250000Y-2540000D03*
D13*
X473710000Y-2540000D03*
D12*
X468630000Y-2540000D03*
X466090000Y-2540000D03*
X463550000Y-2540000D03*
X461010000Y-2540000D03*
X458470000Y-2540000D03*
X455930000Y-2540000D03*
X453390000Y-2540000D03*
X450850000Y-2540000D03*
X448310000Y-2540000D03*
X445770000Y-2540000D03*
X443230000Y-2540000D03*
X440690000Y-2540000D03*
X438150000Y-2540000D03*
X435610000Y-2540000D03*
X433070000Y-2540000D03*
D13*
X430530000Y-2540000D03*
D16*
X462280000Y-52070000D03*
D17*
X469900000Y-52070000D03*
D12*
X469900000Y-58420000D03*
D13*
X469900000Y-60960000D03*
D12*
X487680000Y-36830000D03*
X487680000Y-39370000D03*
D13*
X487680000Y-41910000D03*
D17*
X355520000Y-66040000D03*
X350520000Y-66040000D03*
X462200000Y-66040000D03*
X457200000Y-66040000D03*
X438150000Y-181690000D03*
X438150000Y-186690000D03*
X369570000Y-186610000D03*
X369570000Y-181610000D03*
D12*
X309880000Y-110490000D03*
D13*
X307340000Y-110490000D03*
D12*
X312420000Y-124460000D03*
X309880000Y-124460000D03*
D13*
X307340000Y-124460000D03*
D17*
X336550000Y-11350000D03*
X336550000Y-6350000D03*
X342900000Y-62150000D03*
X342900000Y-57150000D03*
X482680000Y-140970000D03*
X487680000Y-140970000D03*
X445850000Y-168910000D03*
X450850000Y-168910000D03*
X468630000Y-118030000D03*
X468630000Y-113030000D03*
X438150000Y-147240000D03*
X438150000Y-142240000D03*
X370840000Y-118030000D03*
X370840000Y-113030000D03*
D16*
X321310000Y-8890000D03*
D17*
X328930000Y-8890000D03*
D16*
X345000000Y-6150000D03*
X362780000Y-13770000D03*
X347540000Y-6150000D03*
X360240000Y-13770000D03*
X350080000Y-6150000D03*
X357700000Y-13770000D03*
X352620000Y-6150000D03*
X355160000Y-13770000D03*
X355160000Y-6150000D03*
X352620000Y-13770000D03*
X357700000Y-6150000D03*
X350080000Y-13770000D03*
X360240000Y-6150000D03*
X347540000Y-13770000D03*
X362780000Y-6150000D03*
D18*
X345000000Y-13770000D03*
D12*
X359410000Y-152400000D03*
D13*
X356870000Y-152400000D03*
D12*
X359410000Y-142240000D03*
D13*
X356870000Y-142240000D03*
D19*
X356235000Y-25400000D03*
X361115000Y-25400000D03*
D16*
X328180000Y-26830000D03*
D17*
X328180000Y-19210000D03*
D16*
X324370000Y-19210000D03*
D17*
X324370000Y-26830000D03*
X350515000Y-19180000D03*
X355515000Y-19180000D03*
X358665000Y-19180000D03*
X363665000Y-19180000D03*
D12*
X440575000Y-61120000D03*
X438035000Y-61120000D03*
X435495000Y-61120000D03*
X432955000Y-61120000D03*
X430415000Y-61120000D03*
D13*
X427875000Y-61120000D03*
D12*
X318742000Y-59469000D03*
X316202000Y-59469000D03*
X313662000Y-59469000D03*
X311122000Y-59469000D03*
X308582000Y-59469000D03*
D13*
X306042000Y-59469000D03*
D17*
X450909000Y-61247000D03*
X445909000Y-61247000D03*
X328822000Y-59342000D03*
X323822000Y-59342000D03*
D20*
X309915000Y-75852000D03*
X309915000Y-80352000D03*
X303415000Y-75852000D03*
X303415000Y-80352000D03*
D19*
X347980000Y-97990000D03*
X347980000Y-102870000D03*
D16*
X325120000Y-96520000D03*
D17*
X332740000Y-96520000D03*
X336630000Y-100330000D03*
X341630000Y-100330000D03*
X354410000Y-100330000D03*
X359410000Y-100330000D03*
D16*
X313067000Y-26830000D03*
D17*
X320687000Y-26830000D03*
D16*
X302907000Y-26830000D03*
D17*
X310527000Y-26830000D03*
D21*
X309245000Y-9070000D03*
X304245000Y-13570000D03*
X314245000Y-13570000D03*
D22*
X309245000Y-13570000D03*
D12*
X327660000Y-66040000D03*
D13*
X325120000Y-66040000D03*
D12*
X391664000Y-101406000D03*
X389124000Y-101406000D03*
X386584000Y-101406000D03*
X384044000Y-101406000D03*
X381504000Y-101406000D03*
D13*
X378964000Y-101406000D03*
D12*
X414524000Y-101406000D03*
X411984000Y-101406000D03*
X409444000Y-101406000D03*
X406904000Y-101406000D03*
D13*
X404364000Y-101406000D03*
D12*
X399284000Y-101406000D03*
D13*
X396744000Y-101406000D03*
D23*
X422910000Y-132080000D03*
D24*
X425450000Y-132080000D03*
D25*
X486920000Y-29130000D03*
X486920000Y-26630000D03*
X486920000Y-24130000D03*
X490220000Y-29130000D03*
X490220000Y-26630000D03*
D26*
X490220000Y-24130000D03*
D16*
X492760000Y-7620000D03*
D17*
X485140000Y-7620000D03*
X477440000Y-168910000D03*
X472440000Y-168910000D03*
X471170000Y-154860000D03*
X471170000Y-149860000D03*
X383540000Y-132000000D03*
X383540000Y-127000000D03*
D19*
X470420000Y-103465000D03*
X470420000Y-98585000D03*
D16*
X454660000Y-96520000D03*
D17*
X447040000Y-96520000D03*
D16*
X340260000Y-160258000D03*
D17*
X347880000Y-160258000D03*
D16*
X340260000Y-150098000D03*
D17*
X347880000Y-150098000D03*
D16*
X340260000Y-155178000D03*
D17*
X347880000Y-155178000D03*
X457280000Y-101600000D03*
X462280000Y-101600000D03*
X477600000Y-101600000D03*
X482600000Y-101600000D03*
D27*
X490060000Y-58450000D03*
D17*
X483610000Y-61850000D03*
X483610000Y-55050000D03*
X486410000Y-61850000D03*
X486410000Y-55050000D03*
X486410000Y-59750000D03*
D18*
X486410000Y-57150000D03*
D28*
X489260000Y-51600000D03*
X489260000Y-65300000D03*
D16*
X391477000Y-126922000D03*
X406717000Y-134542000D03*
X394017000Y-126922000D03*
X404177000Y-134542000D03*
X396557000Y-126922000D03*
X401637000Y-134542000D03*
X399097000Y-126922000D03*
X399097000Y-134542000D03*
X401637000Y-126922000D03*
X396557000Y-134542000D03*
X404177000Y-126922000D03*
X394017000Y-134542000D03*
X406717000Y-126922000D03*
D18*
X391477000Y-134542000D03*
D16*
X340360000Y-110490000D03*
X363220000Y-118110000D03*
X342900000Y-110490000D03*
X360680000Y-118110000D03*
X345440000Y-110490000D03*
X358140000Y-118110000D03*
X347980000Y-110490000D03*
X355600000Y-118110000D03*
X350520000Y-110490000D03*
X353060000Y-118110000D03*
X353060000Y-110490000D03*
X350520000Y-118110000D03*
X355600000Y-110490000D03*
X347980000Y-118110000D03*
X358140000Y-110490000D03*
X345440000Y-118110000D03*
X360680000Y-110490000D03*
X342900000Y-118110000D03*
X363220000Y-110490000D03*
D18*
X340360000Y-118110000D03*
D16*
X438150000Y-110490000D03*
X461010000Y-118110000D03*
X440690000Y-110490000D03*
X458470000Y-118110000D03*
X443230000Y-110490000D03*
X455930000Y-118110000D03*
X445770000Y-110490000D03*
X453390000Y-118110000D03*
X448310000Y-110490000D03*
X450850000Y-118110000D03*
X450850000Y-110490000D03*
X448310000Y-118110000D03*
X453390000Y-110490000D03*
X445770000Y-118110000D03*
X455930000Y-110490000D03*
X443230000Y-118110000D03*
X458470000Y-110490000D03*
X440690000Y-118110000D03*
X461010000Y-110490000D03*
D18*
X438150000Y-118110000D03*
D16*
X459740000Y-127000000D03*
X487680000Y-134620000D03*
X462280000Y-127000000D03*
X485140000Y-134620000D03*
X464820000Y-127000000D03*
X482600000Y-134620000D03*
X467360000Y-127000000D03*
X480060000Y-134620000D03*
X469900000Y-127000000D03*
X477520000Y-134620000D03*
X472440000Y-127000000D03*
X474980000Y-134620000D03*
X474980000Y-127000000D03*
X472440000Y-134620000D03*
X477520000Y-127000000D03*
X469900000Y-134620000D03*
X480060000Y-127000000D03*
X467360000Y-134620000D03*
X482600000Y-127000000D03*
X464820000Y-134620000D03*
X485140000Y-127000000D03*
X462280000Y-134620000D03*
X487680000Y-127000000D03*
D18*
X459740000Y-134620000D03*
D16*
X472500000Y-174880000D03*
X487740000Y-182500000D03*
X475040000Y-174880000D03*
X485200000Y-182500000D03*
X477580000Y-174880000D03*
X482660000Y-182500000D03*
X480120000Y-174880000D03*
X480120000Y-182500000D03*
X482660000Y-174880000D03*
X477580000Y-182500000D03*
X485200000Y-174880000D03*
X475040000Y-182500000D03*
X487740000Y-174880000D03*
D18*
X472500000Y-182500000D03*
D16*
X445770000Y-174880000D03*
X463550000Y-182500000D03*
X448310000Y-174880000D03*
X461010000Y-182500000D03*
X450850000Y-174880000D03*
X458470000Y-182500000D03*
X453390000Y-174880000D03*
X455930000Y-182500000D03*
X455930000Y-174880000D03*
X453390000Y-182500000D03*
X458470000Y-174880000D03*
X450850000Y-182500000D03*
X461010000Y-174880000D03*
X448310000Y-182500000D03*
X463550000Y-174880000D03*
D18*
X445770000Y-182500000D03*
D16*
X448310000Y-147320000D03*
X463550000Y-154940000D03*
X450850000Y-147320000D03*
X461010000Y-154940000D03*
X453390000Y-147320000D03*
X458470000Y-154940000D03*
X455930000Y-147320000D03*
X455930000Y-154940000D03*
X458470000Y-147320000D03*
X453390000Y-154940000D03*
X461010000Y-147320000D03*
X450850000Y-154940000D03*
X463550000Y-147320000D03*
D18*
X448310000Y-154940000D03*
D16*
X328942000Y-151290000D03*
D17*
X328942000Y-158910000D03*
D20*
X328912000Y-139860000D03*
X328912000Y-144360000D03*
X322412000Y-139860000D03*
X322412000Y-144360000D03*
D29*
X454250000Y-38740000D03*
X454250000Y-15240000D03*
D30*
X430530000Y-27940000D03*
D31*
X430530000Y-15240000D03*
D17*
X314292000Y-145560000D03*
X314292000Y-137940000D03*
X306672000Y-137940000D03*
D18*
X306672000Y-145560000D03*
M02*
