G04 #@! TF.GenerationSoftware,KiCad,Pcbnew,(5.1.7)-1*
G04 #@! TF.CreationDate,2020-12-04T08:14:49+03:00*
G04 #@! TF.ProjectId,SmartyKitPCB,536d6172-7479-44b6-9974-5043422e6b69,rev?*
G04 #@! TF.SameCoordinates,Original*
G04 #@! TF.FileFunction,Copper,L1,Top*
G04 #@! TF.FilePolarity,Positive*
%FSLAX46Y46*%
G04 Gerber Fmt 4.6, Leading zero omitted, Abs format (unit mm)*
G04 Created by KiCad (PCBNEW (5.1.7)-1) date 2020-12-04 08:14:49*
%MOMM*%
%LPD*%
G01*
G04 APERTURE LIST*
G04 #@! TA.AperFunction,ComponentPad*
%ADD10C,2.600000*%
G04 #@! TD*
G04 #@! TA.AperFunction,ComponentPad*
%ADD11R,2.600000X2.600000*%
G04 #@! TD*
G04 #@! TA.AperFunction,ComponentPad*
%ADD12O,1.700000X1.700000*%
G04 #@! TD*
G04 #@! TA.AperFunction,ComponentPad*
%ADD13R,1.700000X1.700000*%
G04 #@! TD*
G04 #@! TA.AperFunction,ComponentPad*
%ADD14O,1.440000X2.000000*%
G04 #@! TD*
G04 #@! TA.AperFunction,ComponentPad*
%ADD15R,1.440000X2.000000*%
G04 #@! TD*
G04 #@! TA.AperFunction,ComponentPad*
%ADD16O,1.600000X1.600000*%
G04 #@! TD*
G04 #@! TA.AperFunction,ComponentPad*
%ADD17C,1.600000*%
G04 #@! TD*
G04 #@! TA.AperFunction,ComponentPad*
%ADD18R,1.600000X1.600000*%
G04 #@! TD*
G04 #@! TA.AperFunction,ComponentPad*
%ADD19C,1.500000*%
G04 #@! TD*
G04 #@! TA.AperFunction,ComponentPad*
%ADD20C,2.000000*%
G04 #@! TD*
G04 #@! TA.AperFunction,ComponentPad*
%ADD21C,3.616000*%
G04 #@! TD*
G04 #@! TA.AperFunction,ComponentPad*
%ADD22C,2.550000*%
G04 #@! TD*
G04 #@! TA.AperFunction,ComponentPad*
%ADD23C,1.800000*%
G04 #@! TD*
G04 #@! TA.AperFunction,ComponentPad*
%ADD24R,1.800000X1.800000*%
G04 #@! TD*
G04 #@! TA.AperFunction,ComponentPad*
%ADD25C,1.400000*%
G04 #@! TD*
G04 #@! TA.AperFunction,ComponentPad*
%ADD26R,1.400000X1.400000*%
G04 #@! TD*
G04 #@! TA.AperFunction,ComponentPad*
%ADD27O,2.000000X4.000000*%
G04 #@! TD*
G04 #@! TA.AperFunction,ComponentPad*
%ADD28O,3.500000X2.000000*%
G04 #@! TD*
G04 #@! TA.AperFunction,ComponentPad*
%ADD29C,3.000000*%
G04 #@! TD*
G04 #@! TA.AperFunction,ComponentPad*
%ADD30R,3.000000X3.000000*%
G04 #@! TD*
G04 #@! TA.AperFunction,ViaPad*
%ADD31C,0.800000*%
G04 #@! TD*
G04 #@! TA.AperFunction,Conductor*
%ADD32C,0.250000*%
G04 #@! TD*
G04 #@! TA.AperFunction,Conductor*
%ADD33C,0.500000*%
G04 #@! TD*
G04 APERTURE END LIST*
D10*
X489839000Y-113237000D03*
D11*
X489839000Y-118237000D03*
D12*
X490728000Y-104140000D03*
X490728000Y-101600000D03*
D13*
X490728000Y-99060000D03*
G04 #@! TA.AperFunction,SMDPad,CuDef*
G36*
G01*
X488792000Y-15496250D02*
X488792000Y-14983750D01*
G75*
G02*
X489010750Y-14765000I218750J0D01*
G01*
X489448250Y-14765000D01*
G75*
G02*
X489667000Y-14983750I0J-218750D01*
G01*
X489667000Y-15496250D01*
G75*
G02*
X489448250Y-15715000I-218750J0D01*
G01*
X489010750Y-15715000D01*
G75*
G02*
X488792000Y-15496250I0J218750D01*
G01*
G37*
G04 #@! TD.AperFunction*
G04 #@! TA.AperFunction,SMDPad,CuDef*
G36*
G01*
X487217000Y-15496250D02*
X487217000Y-14983750D01*
G75*
G02*
X487435750Y-14765000I218750J0D01*
G01*
X487873250Y-14765000D01*
G75*
G02*
X488092000Y-14983750I0J-218750D01*
G01*
X488092000Y-15496250D01*
G75*
G02*
X487873250Y-15715000I-218750J0D01*
G01*
X487435750Y-15715000D01*
G75*
G02*
X487217000Y-15496250I0J218750D01*
G01*
G37*
G04 #@! TD.AperFunction*
D14*
X425462000Y-142400000D03*
X425462000Y-157640000D03*
X422922000Y-142400000D03*
X422922000Y-157640000D03*
X420382000Y-142400000D03*
X420382000Y-157640000D03*
X417842000Y-142400000D03*
X417842000Y-157640000D03*
X415302000Y-142400000D03*
X415302000Y-157640000D03*
X412762000Y-142400000D03*
X412762000Y-157640000D03*
X410222000Y-142400000D03*
X410222000Y-157640000D03*
X407682000Y-142400000D03*
X407682000Y-157640000D03*
X405142000Y-142400000D03*
X405142000Y-157640000D03*
X402602000Y-142400000D03*
X402602000Y-157640000D03*
X400062000Y-142400000D03*
X400062000Y-157640000D03*
X397522000Y-142400000D03*
X397522000Y-157640000D03*
X394982000Y-142400000D03*
X394982000Y-157640000D03*
X392442000Y-142400000D03*
X392442000Y-157640000D03*
X389902000Y-142400000D03*
X389902000Y-157640000D03*
X387362000Y-142400000D03*
X387362000Y-157640000D03*
X384822000Y-142400000D03*
X384822000Y-157640000D03*
X382282000Y-142400000D03*
X382282000Y-157640000D03*
X379742000Y-142400000D03*
X379742000Y-157640000D03*
X377202000Y-142400000D03*
D15*
X377202000Y-157640000D03*
D14*
X356870000Y-172720000D03*
X356870000Y-187960000D03*
X354330000Y-172720000D03*
X354330000Y-187960000D03*
X351790000Y-172720000D03*
X351790000Y-187960000D03*
X349250000Y-172720000D03*
X349250000Y-187960000D03*
X346710000Y-172720000D03*
X346710000Y-187960000D03*
X344170000Y-172720000D03*
X344170000Y-187960000D03*
X341630000Y-172720000D03*
X341630000Y-187960000D03*
X339090000Y-172720000D03*
X339090000Y-187960000D03*
X336550000Y-172720000D03*
X336550000Y-187960000D03*
X334010000Y-172720000D03*
X334010000Y-187960000D03*
X331470000Y-172720000D03*
X331470000Y-187960000D03*
X328930000Y-172720000D03*
X328930000Y-187960000D03*
X326390000Y-172720000D03*
X326390000Y-187960000D03*
X323850000Y-172720000D03*
D15*
X323850000Y-187960000D03*
D14*
X358140000Y-34290000D03*
X358140000Y-49530000D03*
X355600000Y-34290000D03*
X355600000Y-49530000D03*
X353060000Y-34290000D03*
X353060000Y-49530000D03*
X350520000Y-34290000D03*
X350520000Y-49530000D03*
X347980000Y-34290000D03*
X347980000Y-49530000D03*
X345440000Y-34290000D03*
X345440000Y-49530000D03*
X342900000Y-34290000D03*
X342900000Y-49530000D03*
X340360000Y-34290000D03*
X340360000Y-49530000D03*
X337820000Y-34290000D03*
X337820000Y-49530000D03*
X335280000Y-34290000D03*
X335280000Y-49530000D03*
X332740000Y-34290000D03*
X332740000Y-49530000D03*
X330200000Y-34290000D03*
X330200000Y-49530000D03*
X327660000Y-34290000D03*
X327660000Y-49530000D03*
X325120000Y-34290000D03*
D15*
X325120000Y-49530000D03*
D14*
X480060000Y-73660000D03*
X480060000Y-88900000D03*
X477520000Y-73660000D03*
X477520000Y-88900000D03*
X474980000Y-73660000D03*
X474980000Y-88900000D03*
X472440000Y-73660000D03*
X472440000Y-88900000D03*
X469900000Y-73660000D03*
X469900000Y-88900000D03*
X467360000Y-73660000D03*
X467360000Y-88900000D03*
X464820000Y-73660000D03*
X464820000Y-88900000D03*
X462280000Y-73660000D03*
X462280000Y-88900000D03*
X459740000Y-73660000D03*
X459740000Y-88900000D03*
X457200000Y-73660000D03*
X457200000Y-88900000D03*
X454660000Y-73660000D03*
X454660000Y-88900000D03*
X452120000Y-73660000D03*
X452120000Y-88900000D03*
X449580000Y-73660000D03*
X449580000Y-88900000D03*
X447040000Y-73660000D03*
D15*
X447040000Y-88900000D03*
D14*
X358140000Y-73660000D03*
X358140000Y-88900000D03*
X355600000Y-73660000D03*
X355600000Y-88900000D03*
X353060000Y-73660000D03*
X353060000Y-88900000D03*
X350520000Y-73660000D03*
X350520000Y-88900000D03*
X347980000Y-73660000D03*
X347980000Y-88900000D03*
X345440000Y-73660000D03*
X345440000Y-88900000D03*
X342900000Y-73660000D03*
X342900000Y-88900000D03*
X340360000Y-73660000D03*
X340360000Y-88900000D03*
X337820000Y-73660000D03*
X337820000Y-88900000D03*
X335280000Y-73660000D03*
X335280000Y-88900000D03*
X332740000Y-73660000D03*
X332740000Y-88900000D03*
X330200000Y-73660000D03*
X330200000Y-88900000D03*
X327660000Y-73660000D03*
X327660000Y-88900000D03*
X325120000Y-73660000D03*
D15*
X325120000Y-88900000D03*
D14*
X425450000Y-172720000D03*
X425450000Y-187960000D03*
X422910000Y-172720000D03*
X422910000Y-187960000D03*
X420370000Y-172720000D03*
X420370000Y-187960000D03*
X417830000Y-172720000D03*
X417830000Y-187960000D03*
X415290000Y-172720000D03*
X415290000Y-187960000D03*
X412750000Y-172720000D03*
X412750000Y-187960000D03*
X410210000Y-172720000D03*
X410210000Y-187960000D03*
X407670000Y-172720000D03*
X407670000Y-187960000D03*
X405130000Y-172720000D03*
X405130000Y-187960000D03*
X402590000Y-172720000D03*
X402590000Y-187960000D03*
X400050000Y-172720000D03*
X400050000Y-187960000D03*
X397510000Y-172720000D03*
X397510000Y-187960000D03*
X394970000Y-172720000D03*
X394970000Y-187960000D03*
X392430000Y-172720000D03*
D15*
X392430000Y-187960000D03*
D12*
X406400000Y-2540000D03*
D13*
X403860000Y-2540000D03*
D12*
X388620000Y-2540000D03*
D13*
X386080000Y-2540000D03*
D16*
X438150000Y-132080000D03*
D17*
X430530000Y-132080000D03*
D12*
X373380000Y-2540000D03*
X370840000Y-2540000D03*
X368300000Y-2540000D03*
D13*
X365760000Y-2540000D03*
D12*
X425450000Y-2540000D03*
X422910000Y-2540000D03*
X420370000Y-2540000D03*
D13*
X417830000Y-2540000D03*
D12*
X491490000Y-2540000D03*
X488950000Y-2540000D03*
X486410000Y-2540000D03*
X483870000Y-2540000D03*
X481330000Y-2540000D03*
X478790000Y-2540000D03*
X476250000Y-2540000D03*
D13*
X473710000Y-2540000D03*
D12*
X468630000Y-2540000D03*
X466090000Y-2540000D03*
X463550000Y-2540000D03*
X461010000Y-2540000D03*
X458470000Y-2540000D03*
X455930000Y-2540000D03*
X453390000Y-2540000D03*
X450850000Y-2540000D03*
X448310000Y-2540000D03*
X445770000Y-2540000D03*
X443230000Y-2540000D03*
X440690000Y-2540000D03*
X438150000Y-2540000D03*
X435610000Y-2540000D03*
X433070000Y-2540000D03*
D13*
X430530000Y-2540000D03*
D16*
X462280000Y-52070000D03*
D17*
X469900000Y-52070000D03*
D12*
X469900000Y-58420000D03*
D13*
X469900000Y-60960000D03*
D12*
X487680000Y-36830000D03*
X487680000Y-39370000D03*
D13*
X487680000Y-41910000D03*
D17*
X355520000Y-66040000D03*
X350520000Y-66040000D03*
X462200000Y-66040000D03*
X457200000Y-66040000D03*
X438150000Y-181690000D03*
X438150000Y-186690000D03*
X369570000Y-186610000D03*
X369570000Y-181610000D03*
D12*
X309880000Y-110490000D03*
D13*
X307340000Y-110490000D03*
D12*
X312420000Y-124460000D03*
X309880000Y-124460000D03*
D13*
X307340000Y-124460000D03*
D17*
X336550000Y-11350000D03*
X336550000Y-6350000D03*
X342900000Y-62150000D03*
X342900000Y-57150000D03*
X482680000Y-140970000D03*
X487680000Y-140970000D03*
X445850000Y-168910000D03*
X450850000Y-168910000D03*
X468630000Y-118030000D03*
X468630000Y-113030000D03*
X438150000Y-147240000D03*
X438150000Y-142240000D03*
X370840000Y-118030000D03*
X370840000Y-113030000D03*
D16*
X321310000Y-8890000D03*
D17*
X328930000Y-8890000D03*
D16*
X345000000Y-6150000D03*
X362780000Y-13770000D03*
X347540000Y-6150000D03*
X360240000Y-13770000D03*
X350080000Y-6150000D03*
X357700000Y-13770000D03*
X352620000Y-6150000D03*
X355160000Y-13770000D03*
X355160000Y-6150000D03*
X352620000Y-13770000D03*
X357700000Y-6150000D03*
X350080000Y-13770000D03*
X360240000Y-6150000D03*
X347540000Y-13770000D03*
X362780000Y-6150000D03*
D18*
X345000000Y-13770000D03*
D12*
X359410000Y-152400000D03*
D13*
X356870000Y-152400000D03*
D12*
X359410000Y-142240000D03*
D13*
X356870000Y-142240000D03*
D19*
X356235000Y-25400000D03*
X361115000Y-25400000D03*
D16*
X328180000Y-26830000D03*
D17*
X328180000Y-19210000D03*
D16*
X324370000Y-19210000D03*
D17*
X324370000Y-26830000D03*
X350515000Y-19180000D03*
X355515000Y-19180000D03*
X358665000Y-19180000D03*
X363665000Y-19180000D03*
D12*
X440575000Y-61120000D03*
X438035000Y-61120000D03*
X435495000Y-61120000D03*
X432955000Y-61120000D03*
X430415000Y-61120000D03*
D13*
X427875000Y-61120000D03*
D12*
X318742000Y-59469000D03*
X316202000Y-59469000D03*
X313662000Y-59469000D03*
X311122000Y-59469000D03*
X308582000Y-59469000D03*
D13*
X306042000Y-59469000D03*
D17*
X450909000Y-61247000D03*
X445909000Y-61247000D03*
X328822000Y-59342000D03*
X323822000Y-59342000D03*
D20*
X309915000Y-75852000D03*
X309915000Y-80352000D03*
X303415000Y-75852000D03*
X303415000Y-80352000D03*
D19*
X347980000Y-97990000D03*
X347980000Y-102870000D03*
D16*
X325120000Y-96520000D03*
D17*
X332740000Y-96520000D03*
X336630000Y-100330000D03*
X341630000Y-100330000D03*
X354410000Y-100330000D03*
X359410000Y-100330000D03*
D16*
X313067000Y-26830000D03*
D17*
X320687000Y-26830000D03*
D16*
X302907000Y-26830000D03*
D17*
X310527000Y-26830000D03*
D21*
X309245000Y-9070000D03*
X304245000Y-13570000D03*
X314245000Y-13570000D03*
D22*
X309245000Y-13570000D03*
D12*
X327660000Y-66040000D03*
D13*
X325120000Y-66040000D03*
D12*
X391664000Y-101406000D03*
X389124000Y-101406000D03*
X386584000Y-101406000D03*
X384044000Y-101406000D03*
X381504000Y-101406000D03*
D13*
X378964000Y-101406000D03*
D12*
X414524000Y-101406000D03*
X411984000Y-101406000D03*
X409444000Y-101406000D03*
X406904000Y-101406000D03*
D13*
X404364000Y-101406000D03*
D12*
X399284000Y-101406000D03*
D13*
X396744000Y-101406000D03*
D23*
X422910000Y-132080000D03*
D24*
X425450000Y-132080000D03*
D25*
X486920000Y-29130000D03*
X486920000Y-26630000D03*
X486920000Y-24130000D03*
X490220000Y-29130000D03*
X490220000Y-26630000D03*
D26*
X490220000Y-24130000D03*
D16*
X492760000Y-7620000D03*
D17*
X485140000Y-7620000D03*
X477440000Y-168910000D03*
X472440000Y-168910000D03*
X471170000Y-154860000D03*
X471170000Y-149860000D03*
X383540000Y-132000000D03*
X383540000Y-127000000D03*
D19*
X470420000Y-103465000D03*
X470420000Y-98585000D03*
D16*
X454660000Y-96520000D03*
D17*
X447040000Y-96520000D03*
D16*
X340260000Y-160258000D03*
D17*
X347880000Y-160258000D03*
D16*
X340260000Y-150098000D03*
D17*
X347880000Y-150098000D03*
D16*
X340260000Y-155178000D03*
D17*
X347880000Y-155178000D03*
X457280000Y-101600000D03*
X462280000Y-101600000D03*
X477600000Y-101600000D03*
X482600000Y-101600000D03*
D27*
X490060000Y-58450000D03*
D17*
X483610000Y-61850000D03*
X483610000Y-55050000D03*
X486410000Y-61850000D03*
X486410000Y-55050000D03*
X486410000Y-59750000D03*
D18*
X486410000Y-57150000D03*
D28*
X489260000Y-51600000D03*
X489260000Y-65300000D03*
D16*
X391477000Y-126922000D03*
X406717000Y-134542000D03*
X394017000Y-126922000D03*
X404177000Y-134542000D03*
X396557000Y-126922000D03*
X401637000Y-134542000D03*
X399097000Y-126922000D03*
X399097000Y-134542000D03*
X401637000Y-126922000D03*
X396557000Y-134542000D03*
X404177000Y-126922000D03*
X394017000Y-134542000D03*
X406717000Y-126922000D03*
D18*
X391477000Y-134542000D03*
D16*
X340360000Y-110490000D03*
X363220000Y-118110000D03*
X342900000Y-110490000D03*
X360680000Y-118110000D03*
X345440000Y-110490000D03*
X358140000Y-118110000D03*
X347980000Y-110490000D03*
X355600000Y-118110000D03*
X350520000Y-110490000D03*
X353060000Y-118110000D03*
X353060000Y-110490000D03*
X350520000Y-118110000D03*
X355600000Y-110490000D03*
X347980000Y-118110000D03*
X358140000Y-110490000D03*
X345440000Y-118110000D03*
X360680000Y-110490000D03*
X342900000Y-118110000D03*
X363220000Y-110490000D03*
D18*
X340360000Y-118110000D03*
D16*
X438150000Y-110490000D03*
X461010000Y-118110000D03*
X440690000Y-110490000D03*
X458470000Y-118110000D03*
X443230000Y-110490000D03*
X455930000Y-118110000D03*
X445770000Y-110490000D03*
X453390000Y-118110000D03*
X448310000Y-110490000D03*
X450850000Y-118110000D03*
X450850000Y-110490000D03*
X448310000Y-118110000D03*
X453390000Y-110490000D03*
X445770000Y-118110000D03*
X455930000Y-110490000D03*
X443230000Y-118110000D03*
X458470000Y-110490000D03*
X440690000Y-118110000D03*
X461010000Y-110490000D03*
D18*
X438150000Y-118110000D03*
D16*
X459740000Y-127000000D03*
X487680000Y-134620000D03*
X462280000Y-127000000D03*
X485140000Y-134620000D03*
X464820000Y-127000000D03*
X482600000Y-134620000D03*
X467360000Y-127000000D03*
X480060000Y-134620000D03*
X469900000Y-127000000D03*
X477520000Y-134620000D03*
X472440000Y-127000000D03*
X474980000Y-134620000D03*
X474980000Y-127000000D03*
X472440000Y-134620000D03*
X477520000Y-127000000D03*
X469900000Y-134620000D03*
X480060000Y-127000000D03*
X467360000Y-134620000D03*
X482600000Y-127000000D03*
X464820000Y-134620000D03*
X485140000Y-127000000D03*
X462280000Y-134620000D03*
X487680000Y-127000000D03*
D18*
X459740000Y-134620000D03*
D16*
X472500000Y-174880000D03*
X487740000Y-182500000D03*
X475040000Y-174880000D03*
X485200000Y-182500000D03*
X477580000Y-174880000D03*
X482660000Y-182500000D03*
X480120000Y-174880000D03*
X480120000Y-182500000D03*
X482660000Y-174880000D03*
X477580000Y-182500000D03*
X485200000Y-174880000D03*
X475040000Y-182500000D03*
X487740000Y-174880000D03*
D18*
X472500000Y-182500000D03*
D16*
X445770000Y-174880000D03*
X463550000Y-182500000D03*
X448310000Y-174880000D03*
X461010000Y-182500000D03*
X450850000Y-174880000D03*
X458470000Y-182500000D03*
X453390000Y-174880000D03*
X455930000Y-182500000D03*
X455930000Y-174880000D03*
X453390000Y-182500000D03*
X458470000Y-174880000D03*
X450850000Y-182500000D03*
X461010000Y-174880000D03*
X448310000Y-182500000D03*
X463550000Y-174880000D03*
D18*
X445770000Y-182500000D03*
D16*
X448310000Y-147320000D03*
X463550000Y-154940000D03*
X450850000Y-147320000D03*
X461010000Y-154940000D03*
X453390000Y-147320000D03*
X458470000Y-154940000D03*
X455930000Y-147320000D03*
X455930000Y-154940000D03*
X458470000Y-147320000D03*
X453390000Y-154940000D03*
X461010000Y-147320000D03*
X450850000Y-154940000D03*
X463550000Y-147320000D03*
D18*
X448310000Y-154940000D03*
D16*
X328942000Y-151290000D03*
D17*
X328942000Y-158910000D03*
D20*
X328912000Y-139860000D03*
X328912000Y-144360000D03*
X322412000Y-139860000D03*
X322412000Y-144360000D03*
D29*
X430530000Y-27940000D03*
D30*
X430530000Y-15240000D03*
D17*
X314292000Y-145560000D03*
X314292000Y-137940000D03*
X306672000Y-137940000D03*
D18*
X306672000Y-145560000D03*
D31*
X365631100Y-166364800D03*
X354540800Y-186280400D03*
X396448700Y-166364800D03*
X416371300Y-169732700D03*
X431626200Y-143464500D03*
X463694600Y-143725400D03*
X388905800Y-188221400D03*
X426054000Y-153938600D03*
X431626200Y-144464900D03*
X414151600Y-17859600D03*
X409634300Y-168074900D03*
X345440000Y-169080400D03*
X436855500Y-149659600D03*
X417242300Y-7026300D03*
X398459800Y-185757000D03*
X398459800Y-183600400D03*
X349946400Y-177365200D03*
X427133900Y-158703100D03*
X418508700Y-103149400D03*
X419763200Y-95666400D03*
X419040300Y-18127700D03*
X401484400Y-191435600D03*
X339090000Y-191395100D03*
X426897800Y-114335800D03*
X437535900Y-114335800D03*
X424705400Y-17771300D03*
X406705900Y-164129300D03*
X336963000Y-164288500D03*
X414178200Y-174045300D03*
X438693500Y-152909200D03*
X417855500Y-41727500D03*
X391667700Y-185054400D03*
X349526800Y-176347300D03*
X428248700Y-115677700D03*
X440679500Y-114704500D03*
X426010700Y-19057200D03*
X404669600Y-163679000D03*
X334010000Y-162837800D03*
X410445400Y-169060700D03*
X402460600Y-169060700D03*
X434152800Y-115639600D03*
X438632700Y-115073400D03*
X425430700Y-29776400D03*
X393604000Y-190261300D03*
X335239200Y-190222800D03*
X428248700Y-117968800D03*
X442436500Y-113623400D03*
X428992300Y-22055000D03*
X402151100Y-163563100D03*
X408909000Y-173933900D03*
X420309900Y-100738300D03*
X456847000Y-64493500D03*
X397035700Y-190084700D03*
X353141500Y-191008400D03*
X423514900Y-108638700D03*
X431778100Y-104760000D03*
X431931500Y-25783600D03*
X414384900Y-143917500D03*
X395659100Y-169055600D03*
X397500700Y-169205900D03*
X415250300Y-139544400D03*
X411870900Y-53678600D03*
X405722500Y-169786000D03*
X428013900Y-142784100D03*
X431096400Y-140336900D03*
X414855200Y-1357000D03*
X434835800Y-140523800D03*
X432561400Y-183625300D03*
X394970000Y-190024200D03*
X416432400Y-138500900D03*
X412667900Y-49694900D03*
X347096700Y-174450700D03*
X434798600Y-141586500D03*
X433354000Y-171390200D03*
X394705800Y-139537100D03*
X388632000Y-184842900D03*
X326284400Y-12614100D03*
X471150400Y-137849900D03*
X462424700Y-100145600D03*
X388389700Y-134443100D03*
X475766200Y-83340500D03*
X378964000Y-114430400D03*
X489132400Y-38737100D03*
X353695000Y-105694900D03*
X463649700Y-98032900D03*
X377582200Y-170731900D03*
X415000400Y-169857400D03*
X470618600Y-100492400D03*
X490020400Y-70668400D03*
X451214000Y-121628300D03*
X417873200Y-169001200D03*
X348204700Y-168006800D03*
X434772100Y-137744900D03*
X428376200Y-174171400D03*
X455930000Y-95342600D03*
X471359400Y-90513800D03*
X471359400Y-75201600D03*
X493579100Y-69361900D03*
X441429100Y-137744900D03*
X416630200Y-182740000D03*
X472687500Y-93012200D03*
X489596500Y-37514300D03*
X414631400Y-109346100D03*
X422910000Y-164113600D03*
X354330000Y-160979700D03*
X434060100Y-136965100D03*
X428567800Y-172050500D03*
X450850000Y-92067000D03*
X494304400Y-71502300D03*
X440424600Y-136910700D03*
X412975000Y-112219800D03*
X356870000Y-168147500D03*
X425386600Y-168851900D03*
X441303600Y-77404400D03*
X461484900Y-64066800D03*
X472064500Y-10984400D03*
X413893700Y-111053800D03*
X391654500Y-132689000D03*
X388006500Y-126206900D03*
X354330000Y-193084400D03*
X422910000Y-193084400D03*
X443593100Y-83276500D03*
X461470600Y-67972100D03*
X468997700Y-10067500D03*
X441059700Y-116054400D03*
X385549600Y-191622600D03*
X351790000Y-191061200D03*
X420370000Y-190571200D03*
X437516600Y-82378600D03*
X459707100Y-68461900D03*
X441096100Y-113583100D03*
X390069300Y-188953600D03*
X440574200Y-92043500D03*
X459391700Y-80496500D03*
X440012800Y-112824300D03*
X460607700Y-130990200D03*
X421111900Y-122761600D03*
X413435500Y-170614800D03*
X428740800Y-145921600D03*
X460628200Y-103048500D03*
X455534700Y-103048500D03*
X394190400Y-113030000D03*
X445816100Y-149287400D03*
X382282000Y-134217500D03*
X455509500Y-92009900D03*
X437337700Y-93771700D03*
X386124500Y-126922000D03*
X474430900Y-136083900D03*
X419510200Y-118695700D03*
X451996600Y-90558800D03*
X451996600Y-116556100D03*
X355535600Y-103081000D03*
X392747000Y-103081000D03*
X400029600Y-135602300D03*
X415224200Y-108505900D03*
X380803000Y-132326200D03*
X372430800Y-29776400D03*
X389124000Y-70556900D03*
X386584000Y-77580800D03*
X377582200Y-71826000D03*
X352311600Y-101057800D03*
X455669400Y-71288100D03*
X466621800Y-91204400D03*
X467360000Y-97238500D03*
X469442300Y-95832800D03*
X473444500Y-108995300D03*
X468241100Y-102140500D03*
X469056400Y-103376900D03*
X455571900Y-114116700D03*
X453680900Y-85774700D03*
X457256200Y-121563300D03*
X451766300Y-113634400D03*
X451260900Y-112619100D03*
X449580000Y-108762400D03*
X446895400Y-108574300D03*
X358970000Y-10330800D03*
X407944400Y-35267500D03*
D32*
X346710000Y-187960000D02*
X347755300Y-187960000D01*
X396448700Y-166364800D02*
X365631100Y-166364800D01*
X347755300Y-187960000D02*
X347755300Y-187666000D01*
X347755300Y-187666000D02*
X349140900Y-186280400D01*
X349140900Y-186280400D02*
X354540800Y-186280400D01*
X396448700Y-166364800D02*
X413003400Y-166364800D01*
X413003400Y-166364800D02*
X416371300Y-169732700D01*
X398567300Y-157640000D02*
X398567300Y-157346000D01*
X398567300Y-157346000D02*
X411287300Y-144626000D01*
X411287300Y-144626000D02*
X414067700Y-144626000D01*
X414067700Y-144626000D02*
X414084500Y-144642800D01*
X414084500Y-144642800D02*
X414685400Y-144642800D01*
X414685400Y-144642800D02*
X414702200Y-144626000D01*
X414702200Y-144626000D02*
X430439500Y-144626000D01*
X430439500Y-144626000D02*
X430439500Y-144625900D01*
X430439500Y-144625900D02*
X431340000Y-143725400D01*
X431340000Y-143725400D02*
X431626200Y-143725400D01*
X431626200Y-143725400D02*
X463694600Y-143725400D01*
X431626200Y-143725400D02*
X431626200Y-143464500D01*
X397522000Y-157640000D02*
X398567300Y-157640000D01*
X345215300Y-187960000D02*
X345215300Y-187666000D01*
X345215300Y-187666000D02*
X347405400Y-185475900D01*
X347405400Y-185475900D02*
X386160300Y-185475900D01*
X386160300Y-185475900D02*
X388905800Y-188221400D01*
X344170000Y-187960000D02*
X345215300Y-187960000D01*
X426054000Y-153938600D02*
X426054000Y-147561400D01*
X426054000Y-147561400D02*
X428539100Y-145076300D01*
X428539100Y-145076300D02*
X431014800Y-145076300D01*
X431014800Y-145076300D02*
X431626200Y-144464900D01*
X469900000Y-128125300D02*
X470181300Y-128125300D01*
X470181300Y-128125300D02*
X476172000Y-134116000D01*
X476172000Y-134116000D02*
X476172000Y-135368600D01*
X476172000Y-135368600D02*
X467075700Y-144464900D01*
X467075700Y-144464900D02*
X431626200Y-144464900D01*
X426054000Y-153938600D02*
X404514700Y-153938600D01*
X404514700Y-153938600D02*
X401107300Y-157346000D01*
X401107300Y-157346000D02*
X401107300Y-157640000D01*
X431894700Y-2540000D02*
X431894700Y-3348000D01*
X431894700Y-3348000D02*
X417383100Y-17859600D01*
X417383100Y-17859600D02*
X414151600Y-17859600D01*
X433070000Y-2540000D02*
X431894700Y-2540000D01*
X400062000Y-157640000D02*
X401107300Y-157640000D01*
X469900000Y-127000000D02*
X469900000Y-128125300D01*
X409634300Y-168074900D02*
X365098300Y-168074900D01*
X365098300Y-168074900D02*
X364248700Y-168924500D01*
X364248700Y-168924500D02*
X358007200Y-168924500D01*
X358007200Y-168924500D02*
X357556900Y-169374800D01*
X357556900Y-169374800D02*
X345734400Y-169374800D01*
X345734400Y-169374800D02*
X345440000Y-169080400D01*
X436855500Y-149659600D02*
X431653700Y-149659600D01*
X431653700Y-149659600D02*
X423967300Y-157346000D01*
X423967300Y-157346000D02*
X423967300Y-157640000D01*
X454754700Y-2540000D02*
X454754700Y-2172700D01*
X454754700Y-2172700D02*
X453213600Y-631600D01*
X453213600Y-631600D02*
X414546600Y-631600D01*
X414546600Y-631600D02*
X414089900Y-1088300D01*
X414089900Y-1088300D02*
X414089900Y-3873900D01*
X414089900Y-3873900D02*
X417242300Y-7026300D01*
X455930000Y-2540000D02*
X454754700Y-2540000D01*
X422922000Y-157640000D02*
X423967300Y-157640000D01*
X398459800Y-183600400D02*
X369317800Y-183600400D01*
X369317800Y-183600400D02*
X361342800Y-175625400D01*
X361342800Y-175625400D02*
X349830700Y-175625400D01*
X349830700Y-175625400D02*
X349733700Y-175528400D01*
X349733700Y-175528400D02*
X349257500Y-175528400D01*
X349257500Y-175528400D02*
X348801300Y-175984600D01*
X348801300Y-175984600D02*
X348801300Y-176647700D01*
X348801300Y-176647700D02*
X349518800Y-177365200D01*
X349518800Y-177365200D02*
X349946400Y-177365200D01*
X410210000Y-187960000D02*
X409164700Y-187960000D01*
X398459800Y-185757000D02*
X407255700Y-185757000D01*
X407255700Y-185757000D02*
X409164700Y-187666000D01*
X409164700Y-187666000D02*
X409164700Y-187960000D01*
X427133900Y-158703100D02*
X426852900Y-158984100D01*
X426852900Y-158984100D02*
X404658100Y-158984100D01*
X404658100Y-158984100D02*
X403647300Y-157973300D01*
X403647300Y-157973300D02*
X403647300Y-157640000D01*
X402602000Y-157640000D02*
X403647300Y-157640000D01*
X419763200Y-95666400D02*
X418508700Y-96920900D01*
X418508700Y-96920900D02*
X418508700Y-103149400D01*
X434434700Y-2540000D02*
X434434700Y-2892500D01*
X434434700Y-2892500D02*
X427557200Y-9770000D01*
X427557200Y-9770000D02*
X427398000Y-9770000D01*
X427398000Y-9770000D02*
X419040300Y-18127700D01*
X435610000Y-2540000D02*
X434434700Y-2540000D01*
X339090000Y-191395100D02*
X340042800Y-192347900D01*
X340042800Y-192347900D02*
X400572100Y-192347900D01*
X400572100Y-192347900D02*
X401484400Y-191435600D01*
X438150000Y-3715300D02*
X431645000Y-10220300D01*
X431645000Y-10220300D02*
X427584600Y-10220300D01*
X427584600Y-10220300D02*
X424705400Y-13099500D01*
X424705400Y-13099500D02*
X424705400Y-17771300D01*
X437535900Y-114335800D02*
X426897800Y-114335800D01*
X438150000Y-2540000D02*
X438150000Y-3715300D01*
X406705900Y-164129300D02*
X406430800Y-164404400D01*
X406430800Y-164404400D02*
X402071700Y-164404400D01*
X402071700Y-164404400D02*
X401955800Y-164288500D01*
X401955800Y-164288500D02*
X336963000Y-164288500D01*
X406175300Y-172720000D02*
X406175300Y-172426000D01*
X406175300Y-172426000D02*
X407211100Y-171390200D01*
X407211100Y-171390200D02*
X410681300Y-171390200D01*
X410681300Y-171390200D02*
X411255400Y-171964300D01*
X411255400Y-171964300D02*
X411255400Y-173004900D01*
X411255400Y-173004900D02*
X412295800Y-174045300D01*
X412295800Y-174045300D02*
X414178200Y-174045300D01*
X405130000Y-172720000D02*
X406175300Y-172720000D01*
X457294700Y-2540000D02*
X457294700Y-2907300D01*
X457294700Y-2907300D02*
X447730200Y-12471800D01*
X447730200Y-12471800D02*
X428517600Y-12471800D01*
X428517600Y-12471800D02*
X427804100Y-13185300D01*
X427804100Y-13185300D02*
X427804100Y-17248000D01*
X427804100Y-17248000D02*
X433166700Y-22610600D01*
X433166700Y-22610600D02*
X433166700Y-28674100D01*
X433166700Y-28674100D02*
X420113300Y-41727500D01*
X420113300Y-41727500D02*
X417855500Y-41727500D01*
X426507300Y-157640000D02*
X431238100Y-152909200D01*
X431238100Y-152909200D02*
X438693500Y-152909200D01*
X458470000Y-2540000D02*
X457294700Y-2540000D01*
X425462000Y-157640000D02*
X426507300Y-157640000D01*
X391667700Y-185054400D02*
X390730900Y-184117600D01*
X390730900Y-184117600D02*
X368879700Y-184117600D01*
X368879700Y-184117600D02*
X361109400Y-176347300D01*
X361109400Y-176347300D02*
X349526800Y-176347300D01*
X439514700Y-2540000D02*
X439514700Y-2990200D01*
X439514700Y-2990200D02*
X431834300Y-10670600D01*
X431834300Y-10670600D02*
X427771200Y-10670600D01*
X427771200Y-10670600D02*
X426002900Y-12438900D01*
X426002900Y-12438900D02*
X426002900Y-19049400D01*
X426002900Y-19049400D02*
X426010700Y-19057200D01*
X428248700Y-115677700D02*
X428935900Y-116364900D01*
X428935900Y-116364900D02*
X434453300Y-116364900D01*
X434453300Y-116364900D02*
X434771800Y-116046400D01*
X434771800Y-116046400D02*
X439337600Y-116046400D01*
X439337600Y-116046400D02*
X440679500Y-114704500D01*
X440690000Y-2540000D02*
X439514700Y-2540000D01*
X404669600Y-163679000D02*
X403828400Y-162837800D01*
X403828400Y-162837800D02*
X334010000Y-162837800D01*
X402460600Y-169060700D02*
X410445400Y-169060700D01*
X452214700Y-2540000D02*
X452214700Y-2907300D01*
X452214700Y-2907300D02*
X443100500Y-12021500D01*
X443100500Y-12021500D02*
X428331000Y-12021500D01*
X428331000Y-12021500D02*
X427353800Y-12998700D01*
X427353800Y-12998700D02*
X427353800Y-17434600D01*
X427353800Y-17434600D02*
X432695300Y-22776100D01*
X432695300Y-22776100D02*
X432695300Y-28438100D01*
X432695300Y-28438100D02*
X431357000Y-29776400D01*
X431357000Y-29776400D02*
X425430700Y-29776400D01*
X438632700Y-115073400D02*
X434719000Y-115073400D01*
X434719000Y-115073400D02*
X434152800Y-115639600D01*
X453390000Y-2540000D02*
X452214700Y-2540000D01*
X335239200Y-190222800D02*
X335277700Y-190261300D01*
X335277700Y-190261300D02*
X393604000Y-190261300D01*
X442054700Y-2540000D02*
X442054700Y-2907300D01*
X442054700Y-2907300D02*
X433841100Y-11120900D01*
X433841100Y-11120900D02*
X427957800Y-11120900D01*
X427957800Y-11120900D02*
X426453200Y-12625500D01*
X426453200Y-12625500D02*
X426453200Y-17807800D01*
X426453200Y-17807800D02*
X428992300Y-20346900D01*
X428992300Y-20346900D02*
X428992300Y-22055000D01*
X428248700Y-117968800D02*
X434123200Y-117968800D01*
X434123200Y-117968800D02*
X435145000Y-116947000D01*
X435145000Y-116947000D02*
X441204000Y-116947000D01*
X441204000Y-116947000D02*
X442436500Y-115714500D01*
X442436500Y-115714500D02*
X442436500Y-113623400D01*
X443230000Y-2540000D02*
X442054700Y-2540000D01*
X402151100Y-163563100D02*
X333770100Y-163563100D01*
X333770100Y-163563100D02*
X325324100Y-172009100D01*
X325324100Y-172009100D02*
X325324100Y-173470000D01*
X325324100Y-173470000D02*
X325936600Y-174082500D01*
X325936600Y-174082500D02*
X330107500Y-174082500D01*
X330107500Y-174082500D02*
X331470000Y-172720000D01*
X401095300Y-172720000D02*
X401095300Y-173014000D01*
X401095300Y-173014000D02*
X402168900Y-174087600D01*
X402168900Y-174087600D02*
X408755300Y-174087600D01*
X408755300Y-174087600D02*
X408909000Y-173933900D01*
X400050000Y-172720000D02*
X401095300Y-172720000D01*
X456847000Y-64493500D02*
X453166000Y-64493500D01*
X453166000Y-64493500D02*
X437216300Y-80443200D01*
X437216300Y-80443200D02*
X437216300Y-81653300D01*
X437216300Y-81653300D02*
X437216200Y-81653300D01*
X437216200Y-81653300D02*
X420309900Y-98559600D01*
X420309900Y-98559600D02*
X420309900Y-100738300D01*
X397035700Y-190084700D02*
X396112000Y-191008400D01*
X396112000Y-191008400D02*
X385961200Y-191008400D01*
X385961200Y-191008400D02*
X385850100Y-190897300D01*
X385850100Y-190897300D02*
X353252600Y-190897300D01*
X353252600Y-190897300D02*
X353141500Y-191008400D01*
X444594700Y-2540000D02*
X444594700Y-2907300D01*
X444594700Y-2907300D02*
X435930800Y-11571200D01*
X435930800Y-11571200D02*
X428144400Y-11571200D01*
X428144400Y-11571200D02*
X426903500Y-12812100D01*
X426903500Y-12812100D02*
X426903500Y-17621200D01*
X426903500Y-17621200D02*
X431931500Y-22649200D01*
X431931500Y-22649200D02*
X431931500Y-25783600D01*
X431778100Y-104760000D02*
X427899400Y-108638700D01*
X427899400Y-108638700D02*
X423514900Y-108638700D01*
X445770000Y-2540000D02*
X444594700Y-2540000D01*
X329975300Y-172720000D02*
X329975300Y-172426000D01*
X329975300Y-172426000D02*
X332576200Y-169825100D01*
X332576200Y-169825100D02*
X357743500Y-169825100D01*
X357743500Y-169825100D02*
X358176000Y-169392600D01*
X358176000Y-169392600D02*
X395472400Y-169392600D01*
X395472400Y-169392600D02*
X395659100Y-169205900D01*
X397500700Y-169205900D02*
X395659100Y-169205900D01*
X395659100Y-169205900D02*
X395659100Y-169055600D01*
X416755900Y-141050000D02*
X417518300Y-140287600D01*
X417518300Y-140287600D02*
X419336700Y-142106000D01*
X419336700Y-142106000D02*
X419336700Y-142400000D01*
X414384900Y-143917500D02*
X415566800Y-143917500D01*
X415566800Y-143917500D02*
X416731300Y-142753000D01*
X416731300Y-142753000D02*
X416731300Y-141074600D01*
X416731300Y-141074600D02*
X416755900Y-141050000D01*
X416755900Y-141050000D02*
X415250300Y-139544400D01*
X398555300Y-172720000D02*
X398555300Y-173014000D01*
X398555300Y-173014000D02*
X400613200Y-175071900D01*
X400613200Y-175071900D02*
X440459900Y-175071900D01*
X440459900Y-175071900D02*
X447184700Y-181796700D01*
X447184700Y-181796700D02*
X447184700Y-182500000D01*
X328930000Y-172720000D02*
X329975300Y-172720000D01*
X463550000Y-2540000D02*
X462374700Y-2540000D01*
X420382000Y-142400000D02*
X419336700Y-142400000D01*
X462374700Y-2540000D02*
X462374700Y-2907300D01*
X462374700Y-2907300D02*
X451909600Y-13372400D01*
X451909600Y-13372400D02*
X428890800Y-13372400D01*
X428890800Y-13372400D02*
X428704700Y-13558500D01*
X428704700Y-13558500D02*
X428704700Y-16874800D01*
X428704700Y-16874800D02*
X434154300Y-22324400D01*
X434154300Y-22324400D02*
X434154300Y-31395200D01*
X434154300Y-31395200D02*
X411870900Y-53678600D01*
X397510000Y-172720000D02*
X398555300Y-172720000D01*
X448310000Y-182500000D02*
X447184700Y-182500000D01*
X329975300Y-187960000D02*
X329975300Y-186914700D01*
X329975300Y-186914700D02*
X342900000Y-173990000D01*
X342900000Y-173990000D02*
X342900000Y-172168700D01*
X342900000Y-172168700D02*
X344793300Y-170275400D01*
X344793300Y-170275400D02*
X357930100Y-170275400D01*
X357930100Y-170275400D02*
X358198900Y-170006600D01*
X358198900Y-170006600D02*
X405501900Y-170006600D01*
X405501900Y-170006600D02*
X405722500Y-169786000D01*
X328930000Y-187960000D02*
X329975300Y-187960000D01*
X431096400Y-140336900D02*
X430461100Y-140336900D01*
X430461100Y-140336900D02*
X428013900Y-142784100D01*
X447134700Y-2540000D02*
X447134700Y-2172700D01*
X447134700Y-2172700D02*
X446319000Y-1357000D01*
X446319000Y-1357000D02*
X414855200Y-1357000D01*
X448310000Y-2540000D02*
X447134700Y-2540000D01*
X327435300Y-187960000D02*
X327435300Y-188254000D01*
X327435300Y-188254000D02*
X328616500Y-189435200D01*
X328616500Y-189435200D02*
X350122000Y-189435200D01*
X350122000Y-189435200D02*
X350469000Y-189782200D01*
X350469000Y-189782200D02*
X390266500Y-189782200D01*
X390266500Y-189782200D02*
X390526800Y-189521900D01*
X390526800Y-189521900D02*
X393890400Y-189521900D01*
X393890400Y-189521900D02*
X394392700Y-190024200D01*
X394392700Y-190024200D02*
X394970000Y-190024200D01*
X432561400Y-183625300D02*
X432561400Y-183625400D01*
X432561400Y-183625400D02*
X399565700Y-183625400D01*
X399565700Y-183625400D02*
X396015300Y-187175800D01*
X396015300Y-187175800D02*
X396015300Y-187960000D01*
X432561400Y-183625300D02*
X443519400Y-183625300D01*
X443519400Y-183625300D02*
X444644700Y-182500000D01*
X434835800Y-140523800D02*
X432202900Y-140523800D01*
X432202900Y-140523800D02*
X431365300Y-141361400D01*
X431365300Y-141361400D02*
X430462600Y-141361400D01*
X430462600Y-141361400D02*
X428098600Y-143725400D01*
X428098600Y-143725400D02*
X424973400Y-143725400D01*
X424973400Y-143725400D02*
X423967300Y-142719300D01*
X423967300Y-142719300D02*
X423967300Y-142400000D01*
X422922000Y-142400000D02*
X423967300Y-142400000D01*
X326390000Y-187960000D02*
X327435300Y-187960000D01*
X459834700Y-2540000D02*
X459834700Y-2907300D01*
X459834700Y-2907300D02*
X449819900Y-12922100D01*
X449819900Y-12922100D02*
X428704200Y-12922100D01*
X428704200Y-12922100D02*
X428254400Y-13371900D01*
X428254400Y-13371900D02*
X428254400Y-17061400D01*
X428254400Y-17061400D02*
X433654600Y-22461600D01*
X433654600Y-22461600D02*
X433654600Y-28826800D01*
X433654600Y-28826800D02*
X412786500Y-49694900D01*
X412786500Y-49694900D02*
X412667900Y-49694900D01*
X421876700Y-142400000D02*
X421876700Y-142106000D01*
X421876700Y-142106000D02*
X418271600Y-138500900D01*
X418271600Y-138500900D02*
X416432400Y-138500900D01*
X461010000Y-2540000D02*
X459834700Y-2540000D01*
X422922000Y-142400000D02*
X421876700Y-142400000D01*
X394970000Y-187960000D02*
X396015300Y-187960000D01*
X445770000Y-182500000D02*
X444644700Y-182500000D01*
X347096700Y-174450700D02*
X349281200Y-174450700D01*
X349281200Y-174450700D02*
X350520000Y-173211900D01*
X350520000Y-173211900D02*
X350520000Y-172189600D01*
X350520000Y-172189600D02*
X351316300Y-171393300D01*
X351316300Y-171393300D02*
X377217900Y-171393300D01*
X377217900Y-171393300D02*
X377281800Y-171457200D01*
X377281800Y-171457200D02*
X377882700Y-171457200D01*
X377882700Y-171457200D02*
X377946600Y-171393300D01*
X377946600Y-171393300D02*
X393643300Y-171393300D01*
X393643300Y-171393300D02*
X394970000Y-172720000D01*
X396015300Y-172720000D02*
X396015300Y-172426000D01*
X396015300Y-172426000D02*
X397174600Y-171266700D01*
X397174600Y-171266700D02*
X405904500Y-171266700D01*
X405904500Y-171266700D02*
X406231300Y-170939900D01*
X406231300Y-170939900D02*
X411216900Y-170939900D01*
X411216900Y-170939900D02*
X411667200Y-171390200D01*
X411667200Y-171390200D02*
X428202400Y-171390200D01*
X428202400Y-171390200D02*
X428267400Y-171325200D01*
X428267400Y-171325200D02*
X433289000Y-171325200D01*
X433289000Y-171325200D02*
X433354000Y-171390200D01*
X417842000Y-142400000D02*
X419617700Y-144175700D01*
X419617700Y-144175700D02*
X428332900Y-144175700D01*
X428332900Y-144175700D02*
X430510300Y-141998300D01*
X430510300Y-141998300D02*
X434386800Y-141998300D01*
X434386800Y-141998300D02*
X434798600Y-141586500D01*
X433354000Y-171390200D02*
X438896200Y-171390200D01*
X438896200Y-171390200D02*
X449724700Y-182218700D01*
X449724700Y-182218700D02*
X449724700Y-182500000D01*
X394970000Y-172720000D02*
X396015300Y-172720000D01*
X450850000Y-182500000D02*
X449724700Y-182500000D01*
X391384700Y-187960000D02*
X388632000Y-185207300D01*
X388632000Y-185207300D02*
X388632000Y-184842900D01*
X345215300Y-172720000D02*
X345215300Y-173698600D01*
X345215300Y-173698600D02*
X356359600Y-184842900D01*
X356359600Y-184842900D02*
X388632000Y-184842900D01*
X415302000Y-142400000D02*
X414256700Y-142400000D01*
X394705800Y-139537100D02*
X399048000Y-139537100D01*
X399048000Y-139537100D02*
X401332000Y-141821100D01*
X401332000Y-141821100D02*
X401332000Y-142892300D01*
X401332000Y-142892300D02*
X402181300Y-143741600D01*
X402181300Y-143741600D02*
X413189300Y-143741600D01*
X413189300Y-143741600D02*
X414256700Y-142674200D01*
X414256700Y-142674200D02*
X414256700Y-142400000D01*
X392430000Y-187960000D02*
X391384700Y-187960000D01*
X344170000Y-172720000D02*
X345215300Y-172720000D01*
X392952700Y-187960000D02*
X392430000Y-187960000D01*
X392952700Y-187960000D02*
X393475300Y-187960000D01*
X458470000Y-182500000D02*
X451677400Y-189292600D01*
X451677400Y-189292600D02*
X394513900Y-189292600D01*
X394513900Y-189292600D02*
X393475300Y-188254000D01*
X393475300Y-188254000D02*
X393475300Y-187960000D01*
D33*
X336550000Y-11350000D02*
X335285900Y-12614100D01*
X335285900Y-12614100D02*
X326284400Y-12614100D01*
X345000000Y-13770000D02*
X338970000Y-13770000D01*
X338970000Y-13770000D02*
X336550000Y-11350000D01*
X438150000Y-142233200D02*
X466767100Y-142233200D01*
X466767100Y-142233200D02*
X471150400Y-137849900D01*
X426632300Y-142400000D02*
X429545700Y-139486600D01*
X429545700Y-139486600D02*
X435403400Y-139486600D01*
X435403400Y-139486600D02*
X438150000Y-142233200D01*
X438150000Y-142233200D02*
X438150000Y-142240000D01*
X462195300Y-99916200D02*
X462195300Y-99487300D01*
X462195300Y-99487300D02*
X463649700Y-98032900D01*
X462195300Y-99916200D02*
X458963800Y-99916200D01*
X458963800Y-99916200D02*
X457280000Y-101600000D01*
X462424700Y-100145600D02*
X462195300Y-99916200D01*
X388389700Y-134443100D02*
X385983100Y-134443100D01*
X385983100Y-134443100D02*
X383540000Y-132000000D01*
X427875000Y-61120000D02*
X429286300Y-62531300D01*
X429286300Y-62531300D02*
X449655900Y-62531300D01*
X464820000Y-88900000D02*
X465990300Y-88900000D01*
X475766200Y-83340500D02*
X470979900Y-83340500D01*
X470979900Y-83340500D02*
X465990300Y-88330100D01*
X465990300Y-88330100D02*
X465990300Y-88900000D01*
X342900000Y-88900000D02*
X341729700Y-88900000D01*
X341729700Y-88900000D02*
X341729700Y-90070300D01*
X341729700Y-90070300D02*
X336630000Y-95170000D01*
X336630000Y-95170000D02*
X336630000Y-100330000D01*
X309915000Y-75852000D02*
X338168000Y-75852000D01*
X338168000Y-75852000D02*
X340360000Y-73660000D01*
X303415000Y-75852000D02*
X309915000Y-75852000D01*
X370840000Y-118030000D02*
X374439600Y-114430400D01*
X374439600Y-114430400D02*
X378964000Y-114430400D01*
X425462000Y-142400000D02*
X426632300Y-142400000D01*
X449655900Y-62531300D02*
X458691300Y-62531300D01*
X458691300Y-62531300D02*
X462200000Y-66040000D01*
X462280000Y-52070000D02*
X458282400Y-52070000D01*
X458282400Y-52070000D02*
X449655900Y-60696500D01*
X449655900Y-60696500D02*
X449655900Y-62531300D01*
X462905200Y-52070000D02*
X462280000Y-52070000D01*
X462905200Y-52070000D02*
X463530300Y-52070000D01*
X492760000Y-7620000D02*
X492760000Y-35588600D01*
X492760000Y-35588600D02*
X489611500Y-38737100D01*
X489611500Y-38737100D02*
X489132400Y-38737100D01*
X489260000Y-51600000D02*
X487059700Y-51600000D01*
X487059700Y-51600000D02*
X486252100Y-50792400D01*
X486252100Y-50792400D02*
X464807900Y-50792400D01*
X464807900Y-50792400D02*
X463530300Y-52070000D01*
X355520000Y-66040000D02*
X346630000Y-57150000D01*
X346630000Y-57150000D02*
X342900000Y-57150000D01*
X425450000Y-187960000D02*
X426620300Y-187960000D01*
X438150000Y-186690000D02*
X427890300Y-186690000D01*
X427890300Y-186690000D02*
X426620300Y-187960000D01*
X452139700Y-182500000D02*
X452139700Y-183047000D01*
X452139700Y-183047000D02*
X448496700Y-186690000D01*
X448496700Y-186690000D02*
X438150000Y-186690000D01*
X356870000Y-187960000D02*
X358040300Y-187960000D01*
X369570000Y-186610000D02*
X359390300Y-186610000D01*
X359390300Y-186610000D02*
X358040300Y-187960000D01*
X351783600Y-20448600D02*
X340360000Y-31872200D01*
X340360000Y-31872200D02*
X340360000Y-34290000D01*
X358665000Y-19180000D02*
X357396400Y-20448600D01*
X357396400Y-20448600D02*
X351783600Y-20448600D01*
X351783600Y-20448600D02*
X350515000Y-19180000D01*
X453390000Y-182500000D02*
X452139700Y-182500000D01*
X453390000Y-182500000D02*
X455930000Y-182500000D01*
X487680000Y-134620000D02*
X486429700Y-134620000D01*
X472440000Y-127000000D02*
X473690300Y-127000000D01*
X473690300Y-127000000D02*
X473690300Y-127547100D01*
X473690300Y-127547100D02*
X474393500Y-128250300D01*
X474393500Y-128250300D02*
X480603900Y-128250300D01*
X480603900Y-128250300D02*
X486429700Y-134076100D01*
X486429700Y-134076100D02*
X486429700Y-134620000D01*
X336630000Y-100330000D02*
X326470000Y-110490000D01*
X326470000Y-110490000D02*
X309880000Y-110490000D01*
X354410000Y-100330000D02*
X353695000Y-101045000D01*
X353695000Y-101045000D02*
X353695000Y-105694900D01*
X477440000Y-168910000D02*
X476179100Y-170170900D01*
X476179100Y-170170900D02*
X471321100Y-170170900D01*
X471321100Y-170170900D02*
X470060200Y-168910000D01*
X470060200Y-168910000D02*
X450850000Y-168910000D01*
X471090000Y-154940000D02*
X471170000Y-154860000D01*
X463550000Y-154940000D02*
X471090000Y-154940000D01*
X471090000Y-154940000D02*
X471090000Y-162560000D01*
X471090000Y-162560000D02*
X477440000Y-168910000D01*
X321310000Y-8890000D02*
X318925000Y-8890000D01*
X318925000Y-8890000D02*
X314245000Y-13570000D01*
X345000000Y-13770000D02*
X346250300Y-13770000D01*
X350515000Y-19180000D02*
X346250300Y-14915300D01*
X346250300Y-14915300D02*
X346250300Y-13770000D01*
X362780000Y-13770000D02*
X361529700Y-13770000D01*
X357700000Y-13770000D02*
X358950300Y-13770000D01*
X358950300Y-13770000D02*
X358950300Y-13223000D01*
X358950300Y-13223000D02*
X359716500Y-12456800D01*
X359716500Y-12456800D02*
X360760400Y-12456800D01*
X360760400Y-12456800D02*
X361529700Y-13226100D01*
X361529700Y-13226100D02*
X361529700Y-13770000D01*
X477600000Y-101600000D02*
X489237000Y-113237000D01*
X489237000Y-113237000D02*
X489839000Y-113237000D01*
X378964000Y-101406000D02*
X380264400Y-100105600D01*
X380264400Y-100105600D02*
X397983600Y-100105600D01*
X397983600Y-100105600D02*
X399284000Y-101406000D01*
X314245000Y-13570000D02*
X309745000Y-9070000D01*
X309745000Y-9070000D02*
X309245000Y-9070000D01*
X438150000Y-132080000D02*
X436899700Y-132080000D01*
X406717000Y-134542000D02*
X434437700Y-134542000D01*
X434437700Y-134542000D02*
X436899700Y-132080000D01*
X363220000Y-118110000D02*
X370760000Y-118110000D01*
X370760000Y-118110000D02*
X370840000Y-118030000D01*
X455930000Y-182500000D02*
X457180300Y-182500000D01*
X457180300Y-182500000D02*
X457180300Y-181953000D01*
X457180300Y-181953000D02*
X457920400Y-181212900D01*
X457920400Y-181212900D02*
X461556500Y-181212900D01*
X461556500Y-181212900D02*
X462299700Y-181956100D01*
X462299700Y-181956100D02*
X462299700Y-182500000D01*
X463550000Y-182500000D02*
X462299700Y-182500000D01*
X356870000Y-142240000D02*
X355569700Y-142240000D01*
X328912000Y-139860000D02*
X353189700Y-139860000D01*
X353189700Y-139860000D02*
X355569700Y-142240000D01*
X322412000Y-139860000D02*
X328912000Y-139860000D01*
D32*
X453614700Y-88900000D02*
X453614700Y-86850600D01*
X453614700Y-86850600D02*
X452914900Y-86150800D01*
X452914900Y-86150800D02*
X452914900Y-85514600D01*
X452914900Y-85514600D02*
X457207700Y-81221800D01*
X457207700Y-81221800D02*
X459692200Y-81221800D01*
X459692200Y-81221800D02*
X466090000Y-74824000D01*
X466090000Y-74824000D02*
X466090000Y-72570000D01*
X466090000Y-72570000D02*
X483610000Y-55050000D01*
X454660000Y-88900000D02*
X453614700Y-88900000D01*
X377582200Y-170731900D02*
X405802400Y-170731900D01*
X405802400Y-170731900D02*
X406676900Y-169857400D01*
X406676900Y-169857400D02*
X415000400Y-169857400D01*
X347755300Y-172720000D02*
X347755300Y-172426000D01*
X347755300Y-172426000D02*
X349449400Y-170731900D01*
X349449400Y-170731900D02*
X377582200Y-170731900D01*
X346710000Y-172720000D02*
X347755300Y-172720000D01*
X405302300Y-134542000D02*
X405302300Y-134337500D01*
X405302300Y-134337500D02*
X418011500Y-121628300D01*
X418011500Y-121628300D02*
X451214000Y-121628300D01*
X491490000Y-2540000D02*
X491490000Y-3715300D01*
X470618600Y-100492400D02*
X468166700Y-100492400D01*
X468166700Y-100492400D02*
X458470000Y-110189100D01*
X458470000Y-110189100D02*
X458470000Y-110490000D01*
X491490000Y-3715300D02*
X494329200Y-6554500D01*
X494329200Y-6554500D02*
X494329200Y-69711000D01*
X494329200Y-69711000D02*
X493371800Y-70668400D01*
X493371800Y-70668400D02*
X490020400Y-70668400D01*
X404177000Y-134542000D02*
X403051700Y-134542000D01*
X396557000Y-134542000D02*
X397682300Y-134542000D01*
X397682300Y-134542000D02*
X397682300Y-134260700D01*
X397682300Y-134260700D02*
X398526300Y-133416700D01*
X398526300Y-133416700D02*
X402207800Y-133416700D01*
X402207800Y-133416700D02*
X403051700Y-134260600D01*
X403051700Y-134260600D02*
X403051700Y-134542000D01*
X404177000Y-134542000D02*
X405302300Y-134542000D01*
X417873200Y-169001200D02*
X414627300Y-165755300D01*
X414627300Y-165755300D02*
X401511900Y-165755300D01*
X401511900Y-165755300D02*
X401396000Y-165639400D01*
X401396000Y-165639400D02*
X364262500Y-165639400D01*
X364262500Y-165639400D02*
X361427800Y-168474100D01*
X361427800Y-168474100D02*
X357595400Y-168474100D01*
X357595400Y-168474100D02*
X357145000Y-168924500D01*
X357145000Y-168924500D02*
X349122400Y-168924500D01*
X349122400Y-168924500D02*
X348204700Y-168006800D01*
X418875300Y-172720000D02*
X418875300Y-173014000D01*
X418875300Y-173014000D02*
X420370400Y-174509100D01*
X420370400Y-174509100D02*
X428038500Y-174509100D01*
X428038500Y-174509100D02*
X428376200Y-174171400D01*
X417830000Y-172720000D02*
X418875300Y-172720000D01*
X434772100Y-137744900D02*
X441429100Y-137744900D01*
X411267300Y-142400000D02*
X411267300Y-142106000D01*
X411267300Y-142106000D02*
X415628400Y-137744900D01*
X415628400Y-137744900D02*
X434772100Y-137744900D01*
X455930000Y-95342600D02*
X458892500Y-92380100D01*
X458892500Y-92380100D02*
X469493100Y-92380100D01*
X469493100Y-92380100D02*
X471359400Y-90513800D01*
X493579100Y-69361900D02*
X481669200Y-69361900D01*
X481669200Y-69361900D02*
X479003500Y-72027600D01*
X479003500Y-72027600D02*
X474788500Y-72027600D01*
X474788500Y-72027600D02*
X473934600Y-72881500D01*
X473934600Y-72881500D02*
X473934600Y-73933500D01*
X473934600Y-73933500D02*
X472666500Y-75201600D01*
X472666500Y-75201600D02*
X471359400Y-75201600D01*
X410222000Y-142400000D02*
X411267300Y-142400000D01*
X352835300Y-172720000D02*
X352835300Y-173014000D01*
X352835300Y-173014000D02*
X354996300Y-175175000D01*
X354996300Y-175175000D02*
X361543600Y-175175000D01*
X361543600Y-175175000D02*
X369108600Y-182740000D01*
X369108600Y-182740000D02*
X416630200Y-182740000D01*
X351790000Y-172720000D02*
X352835300Y-172720000D01*
X486410000Y-2540000D02*
X486410000Y-10045300D01*
X486410000Y-10045300D02*
X491979600Y-15614900D01*
X491979600Y-15614900D02*
X491979600Y-35131200D01*
X491979600Y-35131200D02*
X489596500Y-37514300D01*
X448793000Y-109346200D02*
X448954800Y-109508000D01*
X448954800Y-109508000D02*
X450240400Y-109508000D01*
X450240400Y-109508000D02*
X450404000Y-109344400D01*
X450404000Y-109344400D02*
X451400400Y-109344400D01*
X451400400Y-109344400D02*
X452264700Y-110208700D01*
X452264700Y-110208700D02*
X452264700Y-110490000D01*
X414631400Y-109346100D02*
X414708600Y-109423300D01*
X414708600Y-109423300D02*
X423760000Y-109423300D01*
X423760000Y-109423300D02*
X423837100Y-109346200D01*
X423837100Y-109346200D02*
X448793000Y-109346200D01*
X472687500Y-93012200D02*
X471431100Y-94268600D01*
X471431100Y-94268600D02*
X462967300Y-94268600D01*
X462967300Y-94268600D02*
X448793000Y-108442900D01*
X448793000Y-108442900D02*
X448793000Y-109346200D01*
X414631400Y-109346100D02*
X362751100Y-109346100D01*
X362751100Y-109346100D02*
X361950000Y-110147200D01*
X361950000Y-110147200D02*
X361950000Y-110916000D01*
X361950000Y-110916000D02*
X355881300Y-116984700D01*
X355881300Y-116984700D02*
X355600000Y-116984700D01*
X355600000Y-118110000D02*
X355600000Y-116984700D01*
X453390000Y-110490000D02*
X452264700Y-110490000D01*
X422910000Y-164113600D02*
X419776100Y-160979700D01*
X419776100Y-160979700D02*
X354330000Y-160979700D01*
X422910000Y-172720000D02*
X423955300Y-172720000D01*
X434060100Y-136965100D02*
X440370200Y-136965100D01*
X440370200Y-136965100D02*
X440424600Y-136910700D01*
X423955300Y-172720000D02*
X423955300Y-173014000D01*
X423955300Y-173014000D02*
X425000100Y-174058800D01*
X425000100Y-174058800D02*
X426559500Y-174058800D01*
X426559500Y-174058800D02*
X428567800Y-172050500D01*
X450850000Y-92067000D02*
X454001300Y-92067000D01*
X454001300Y-92067000D02*
X455815400Y-90252900D01*
X455815400Y-90252900D02*
X457684500Y-90252900D01*
X457684500Y-90252900D02*
X458470000Y-89467400D01*
X458470000Y-89467400D02*
X458470000Y-88394500D01*
X458470000Y-88394500D02*
X460364400Y-86500100D01*
X460364400Y-86500100D02*
X466538000Y-86500100D01*
X466538000Y-86500100D02*
X478790000Y-74248100D01*
X478790000Y-74248100D02*
X478790000Y-73167800D01*
X478790000Y-73167800D02*
X480455500Y-71502300D01*
X480455500Y-71502300D02*
X494304400Y-71502300D01*
X405142000Y-142400000D02*
X406187300Y-142400000D01*
X440424600Y-136910700D02*
X411382600Y-136910700D01*
X411382600Y-136910700D02*
X406187300Y-142106000D01*
X406187300Y-142106000D02*
X406187300Y-142400000D01*
X447184700Y-110490000D02*
X447184700Y-110771400D01*
X447184700Y-110771400D02*
X446340800Y-111615300D01*
X446340800Y-111615300D02*
X414455200Y-111615300D01*
X414455200Y-111615300D02*
X413893700Y-111053800D01*
X350520000Y-118110000D02*
X351645300Y-118110000D01*
X351645300Y-118110000D02*
X351645300Y-118391400D01*
X351645300Y-118391400D02*
X352489200Y-119235300D01*
X352489200Y-119235300D02*
X402346200Y-119235300D01*
X402346200Y-119235300D02*
X409361700Y-112219800D01*
X409361700Y-112219800D02*
X412975000Y-112219800D01*
X425386600Y-168851900D02*
X421839700Y-165305000D01*
X421839700Y-165305000D02*
X401698500Y-165305000D01*
X401698500Y-165305000D02*
X401582600Y-165189100D01*
X401582600Y-165189100D02*
X363851000Y-165189100D01*
X363851000Y-165189100D02*
X363400700Y-165639400D01*
X363400700Y-165639400D02*
X359378100Y-165639400D01*
X359378100Y-165639400D02*
X356870000Y-168147500D01*
X461484900Y-64066800D02*
X461869500Y-64066800D01*
X461869500Y-64066800D02*
X463330200Y-65527500D01*
X463330200Y-65527500D02*
X463330200Y-66501400D01*
X463330200Y-66501400D02*
X462666300Y-67165300D01*
X462666300Y-67165300D02*
X451131100Y-67165300D01*
X451131100Y-67165300D02*
X441303600Y-76992800D01*
X441303600Y-76992800D02*
X441303600Y-77404400D01*
X481330000Y-2540000D02*
X480154700Y-2540000D01*
X480154700Y-2540000D02*
X480154700Y-2894200D01*
X480154700Y-2894200D02*
X472064500Y-10984400D01*
X448310000Y-110490000D02*
X447184700Y-110490000D01*
X349105300Y-118110000D02*
X349105300Y-118391400D01*
X349105300Y-118391400D02*
X350399500Y-119685600D01*
X350399500Y-119685600D02*
X381485200Y-119685600D01*
X381485200Y-119685600D02*
X388006500Y-126206900D01*
X347980000Y-118110000D02*
X349105300Y-118110000D01*
X441059700Y-116054400D02*
X440617400Y-116496700D01*
X440617400Y-116496700D02*
X434958400Y-116496700D01*
X434958400Y-116496700D02*
X434639900Y-116815200D01*
X434639900Y-116815200D02*
X419484400Y-116815200D01*
X419484400Y-116815200D02*
X403610600Y-132689000D01*
X403610600Y-132689000D02*
X391654500Y-132689000D01*
X391654500Y-132689000D02*
X391222300Y-132689000D01*
X391222300Y-132689000D02*
X390351600Y-133559700D01*
X390351600Y-133559700D02*
X390351600Y-136208600D01*
X390351600Y-136208600D02*
X394405400Y-140262400D01*
X394405400Y-140262400D02*
X397173100Y-140262400D01*
X397173100Y-140262400D02*
X399016700Y-142106000D01*
X399016700Y-142106000D02*
X399016700Y-142400000D01*
X354330000Y-193084400D02*
X422910000Y-193084400D01*
X461470600Y-67972100D02*
X460240400Y-69202300D01*
X460240400Y-69202300D02*
X454758800Y-69202300D01*
X454758800Y-69202300D02*
X450850000Y-73111100D01*
X450850000Y-73111100D02*
X450850000Y-76019600D01*
X450850000Y-76019600D02*
X443593100Y-83276500D01*
X478790000Y-2540000D02*
X477614700Y-2540000D01*
X477614700Y-2540000D02*
X477614700Y-2907300D01*
X477614700Y-2907300D02*
X470454500Y-10067500D01*
X470454500Y-10067500D02*
X468997700Y-10067500D01*
X400062000Y-142400000D02*
X399016700Y-142400000D01*
X441096100Y-113583100D02*
X415920200Y-113583100D01*
X415920200Y-113583100D02*
X402907000Y-126596300D01*
X402907000Y-126596300D02*
X402907000Y-127321800D01*
X402907000Y-127321800D02*
X398348400Y-131880400D01*
X398348400Y-131880400D02*
X391354100Y-131880400D01*
X391354100Y-131880400D02*
X389846700Y-133387800D01*
X389846700Y-133387800D02*
X389846700Y-136340600D01*
X389846700Y-136340600D02*
X394322000Y-140815900D01*
X394322000Y-140815900D02*
X395199900Y-140815900D01*
X395199900Y-140815900D02*
X396476700Y-142092700D01*
X396476700Y-142092700D02*
X396476700Y-142400000D01*
X420370000Y-190571200D02*
X401323100Y-190571200D01*
X401323100Y-190571200D02*
X400271700Y-191622600D01*
X400271700Y-191622600D02*
X385549600Y-191622600D01*
X385549600Y-191622600D02*
X385385700Y-191786500D01*
X385385700Y-191786500D02*
X352515300Y-191786500D01*
X352515300Y-191786500D02*
X351790000Y-191061200D01*
X437516600Y-82378600D02*
X444491500Y-75403700D01*
X444491500Y-75403700D02*
X444491500Y-74441800D01*
X444491500Y-74441800D02*
X450471400Y-68461900D01*
X450471400Y-68461900D02*
X459707100Y-68461900D01*
X397522000Y-142400000D02*
X396476700Y-142400000D01*
X390364400Y-132194500D02*
X392623300Y-129935600D01*
X392623300Y-129935600D02*
X395197600Y-129935600D01*
X395197600Y-129935600D02*
X397827000Y-127306200D01*
X397827000Y-127306200D02*
X397827000Y-126565100D01*
X397827000Y-126565100D02*
X411447000Y-112945100D01*
X411447000Y-112945100D02*
X439892000Y-112945100D01*
X439892000Y-112945100D02*
X440012800Y-112824300D01*
X344025300Y-118110000D02*
X344025300Y-118391400D01*
X344025300Y-118391400D02*
X345769800Y-120135900D01*
X345769800Y-120135900D02*
X378305800Y-120135900D01*
X378305800Y-120135900D02*
X390364400Y-132194500D01*
X349250000Y-187960000D02*
X350295300Y-187960000D01*
X350295300Y-187960000D02*
X350295300Y-188233300D01*
X350295300Y-188233300D02*
X351384600Y-189322600D01*
X351384600Y-189322600D02*
X389700300Y-189322600D01*
X389700300Y-189322600D02*
X390069300Y-188953600D01*
X459391700Y-80496500D02*
X457186800Y-80496500D01*
X457186800Y-80496500D02*
X450752100Y-86931200D01*
X450752100Y-86931200D02*
X450752100Y-89504800D01*
X450752100Y-89504800D02*
X448213400Y-92043500D01*
X448213400Y-92043500D02*
X440574200Y-92043500D01*
X390364400Y-132194500D02*
X389363000Y-133195900D01*
X389363000Y-133195900D02*
X389363000Y-136781000D01*
X389363000Y-136781000D02*
X393936700Y-141354700D01*
X393936700Y-141354700D02*
X393936700Y-142400000D01*
X342900000Y-118110000D02*
X344025300Y-118110000D01*
X394982000Y-142400000D02*
X393936700Y-142400000D01*
X459884700Y-154940000D02*
X459884700Y-155221300D01*
X459884700Y-155221300D02*
X450251300Y-164854700D01*
X450251300Y-164854700D02*
X401885100Y-164854700D01*
X401885100Y-164854700D02*
X401769200Y-164738800D01*
X401769200Y-164738800D02*
X363664300Y-164738800D01*
X363664300Y-164738800D02*
X363214000Y-165189100D01*
X363214000Y-165189100D02*
X334672200Y-165189100D01*
X334672200Y-165189100D02*
X327435300Y-172426000D01*
X327435300Y-172426000D02*
X327435300Y-172720000D01*
X460607700Y-130990200D02*
X452379100Y-122761600D01*
X452379100Y-122761600D02*
X421111900Y-122761600D01*
X326390000Y-172720000D02*
X327435300Y-172720000D01*
X461010000Y-154940000D02*
X459884700Y-154940000D01*
X472500000Y-182500000D02*
X471374700Y-182500000D01*
X461010000Y-182500000D02*
X462135300Y-183625300D01*
X462135300Y-183625300D02*
X470249400Y-183625300D01*
X470249400Y-183625300D02*
X471374700Y-182500000D01*
X476454700Y-182500000D02*
X476454700Y-182218700D01*
X476454700Y-182218700D02*
X464850800Y-170614800D01*
X464850800Y-170614800D02*
X413435500Y-170614800D01*
X477580000Y-182500000D02*
X476454700Y-182500000D01*
X475040000Y-182500000D02*
X473914700Y-182500000D01*
X463550000Y-174880000D02*
X466998000Y-174880000D01*
X466998000Y-174880000D02*
X473914700Y-181796700D01*
X473914700Y-181796700D02*
X473914700Y-182500000D01*
X452264700Y-154940000D02*
X452264700Y-154658700D01*
X452264700Y-154658700D02*
X443527600Y-145921600D01*
X443527600Y-145921600D02*
X428740800Y-145921600D01*
X453390000Y-154940000D02*
X452264700Y-154940000D01*
X384822000Y-157640000D02*
X383776700Y-157640000D01*
X340260000Y-155178000D02*
X341385300Y-155178000D01*
X341385300Y-155178000D02*
X345172700Y-158965400D01*
X345172700Y-158965400D02*
X382745300Y-158965400D01*
X382745300Y-158965400D02*
X383776700Y-157934000D01*
X383776700Y-157934000D02*
X383776700Y-157640000D01*
X388856700Y-157640000D02*
X388856700Y-157346000D01*
X388856700Y-157346000D02*
X385137700Y-153627000D01*
X385137700Y-153627000D02*
X349417200Y-153627000D01*
X349417200Y-153627000D02*
X345888200Y-150098000D01*
X345888200Y-150098000D02*
X341385300Y-150098000D01*
X389902000Y-157640000D02*
X388856700Y-157640000D01*
X340260000Y-150098000D02*
X341385300Y-150098000D01*
X379742000Y-157640000D02*
X378696700Y-157640000D01*
X340260000Y-160258000D02*
X340260000Y-159132700D01*
X340260000Y-159132700D02*
X339134200Y-158006900D01*
X339134200Y-158006900D02*
X339134200Y-154677300D01*
X339134200Y-154677300D02*
X339790500Y-154021000D01*
X339790500Y-154021000D02*
X348949000Y-154021000D01*
X348949000Y-154021000D02*
X350124000Y-155196000D01*
X350124000Y-155196000D02*
X376938700Y-155196000D01*
X376938700Y-155196000D02*
X378696700Y-156954000D01*
X378696700Y-156954000D02*
X378696700Y-157640000D01*
D33*
X324370000Y-19210000D02*
X328180000Y-19210000D01*
X486410000Y-61850000D02*
X487887300Y-60372700D01*
X487887300Y-60372700D02*
X487887300Y-56196400D01*
X487887300Y-56196400D02*
X491465200Y-52618500D01*
X491465200Y-52618500D02*
X491465200Y-50977800D01*
X491465200Y-50977800D02*
X486379600Y-45892200D01*
X486379600Y-45892200D02*
X486379600Y-31343500D01*
X486379600Y-31343500D02*
X490220000Y-27503100D01*
X490220000Y-27503100D02*
X490220000Y-26630000D01*
X468530300Y-73660000D02*
X468530300Y-73090100D01*
X468530300Y-73090100D02*
X470168200Y-71452200D01*
X470168200Y-71452200D02*
X476807800Y-71452200D01*
X476807800Y-71452200D02*
X486410000Y-61850000D01*
X382282000Y-142400000D02*
X383452300Y-142400000D01*
X383452300Y-142400000D02*
X383452300Y-143570300D01*
X383452300Y-143570300D02*
X394982000Y-155100000D01*
X394982000Y-155100000D02*
X394982000Y-157640000D01*
X386124500Y-126922000D02*
X387519100Y-126922000D01*
X387519100Y-126922000D02*
X387654300Y-127057200D01*
X387654300Y-127057200D02*
X388358800Y-127057200D01*
X388358800Y-127057200D02*
X388494000Y-126922000D01*
X388494000Y-126922000D02*
X391477000Y-126922000D01*
X460628200Y-103048500D02*
X455534700Y-103048500D01*
X342900000Y-62150000D02*
X342900000Y-60786200D01*
X342900000Y-60786200D02*
X337759300Y-55645500D01*
X350520000Y-66040000D02*
X346630000Y-62150000D01*
X346630000Y-62150000D02*
X342900000Y-62150000D01*
X337759300Y-55645500D02*
X339189700Y-54215100D01*
X339189700Y-54215100D02*
X339189700Y-49530000D01*
X311122000Y-59469000D02*
X314945500Y-55645500D01*
X314945500Y-55645500D02*
X337759300Y-55645500D01*
X339809900Y-88900000D02*
X345440000Y-83269900D01*
X345440000Y-83269900D02*
X345440000Y-73660000D01*
X339809900Y-88900000D02*
X339189700Y-88900000D01*
X340360000Y-88900000D02*
X339809900Y-88900000D01*
X438150000Y-181690000D02*
X402000400Y-181690000D01*
X402000400Y-181690000D02*
X393600300Y-173289900D01*
X393600300Y-173289900D02*
X393600300Y-172720000D01*
X370840000Y-113030000D02*
X394190400Y-113030000D01*
X332740000Y-96520000D02*
X339189700Y-90070300D01*
X339189700Y-90070300D02*
X339189700Y-88900000D01*
X392430000Y-172720000D02*
X393600300Y-172720000D01*
X392430000Y-172720000D02*
X391259700Y-172720000D01*
X369570000Y-181610000D02*
X382369700Y-181610000D01*
X382369700Y-181610000D02*
X391259700Y-172720000D01*
X462280000Y-167615800D02*
X447144200Y-167615800D01*
X447144200Y-167615800D02*
X445850000Y-168910000D01*
X472440000Y-168910000D02*
X471145800Y-167615800D01*
X471145800Y-167615800D02*
X462280000Y-167615800D01*
X462280000Y-149860000D02*
X462280000Y-167615800D01*
X462280000Y-149860000D02*
X471170000Y-149860000D01*
X449560300Y-147320000D02*
X449560300Y-147867000D01*
X449560300Y-147867000D02*
X451553300Y-149860000D01*
X451553300Y-149860000D02*
X462280000Y-149860000D01*
X438150000Y-147240000D02*
X443768700Y-147240000D01*
X443768700Y-147240000D02*
X445816100Y-149287400D01*
X383540000Y-127000000D02*
X382282000Y-128258000D01*
X382282000Y-128258000D02*
X382282000Y-134217500D01*
X471170000Y-149860000D02*
X473790000Y-149860000D01*
X473790000Y-149860000D02*
X482680000Y-140970000D01*
X462280000Y-88900000D02*
X461109700Y-88900000D01*
X455509500Y-92009900D02*
X456194200Y-91325200D01*
X456194200Y-91325200D02*
X459254400Y-91325200D01*
X459254400Y-91325200D02*
X461109700Y-89469900D01*
X461109700Y-89469900D02*
X461109700Y-88900000D01*
X347880000Y-160258000D02*
X346627000Y-161511000D01*
X346627000Y-161511000D02*
X331543000Y-161511000D01*
X331543000Y-161511000D02*
X328942000Y-158910000D01*
X345000000Y-6150000D02*
X336750000Y-6150000D01*
X336750000Y-6150000D02*
X336550000Y-6350000D01*
X345625200Y-6150000D02*
X345000000Y-6150000D01*
X345625200Y-6150000D02*
X346250300Y-6150000D01*
X362780000Y-6150000D02*
X361529700Y-6150000D01*
X361529700Y-6150000D02*
X361529700Y-5603000D01*
X361529700Y-5603000D02*
X360784500Y-4857800D01*
X360784500Y-4857800D02*
X346998600Y-4857800D01*
X346998600Y-4857800D02*
X346250300Y-5606100D01*
X346250300Y-5606100D02*
X346250300Y-6150000D01*
X356870000Y-152400000D02*
X350182000Y-152400000D01*
X350182000Y-152400000D02*
X347880000Y-150098000D01*
X454660000Y-96520000D02*
X453409700Y-96520000D01*
X437337700Y-93771700D02*
X450661400Y-93771700D01*
X450661400Y-93771700D02*
X453409700Y-96520000D01*
X340360000Y-49530000D02*
X339189700Y-49530000D01*
X490220000Y-26630000D02*
X491370400Y-25479600D01*
X491370400Y-25479600D02*
X491370400Y-17380900D01*
X491370400Y-17380900D02*
X489229500Y-15240000D01*
X467360000Y-73660000D02*
X468530300Y-73660000D01*
X448310000Y-147320000D02*
X449560300Y-147320000D01*
X461010000Y-110490000D02*
X466090000Y-110490000D01*
X466090000Y-110490000D02*
X468630000Y-113030000D01*
D32*
X485140000Y-7620000D02*
X485140000Y-12725500D01*
X485140000Y-12725500D02*
X487654500Y-15240000D01*
X481474700Y-134620000D02*
X481474700Y-134338600D01*
X481474700Y-134338600D02*
X480630800Y-133494700D01*
X480630800Y-133494700D02*
X477330400Y-133494700D01*
X477330400Y-133494700D02*
X471170000Y-127334300D01*
X471170000Y-127334300D02*
X471170000Y-126649600D01*
X471170000Y-126649600D02*
X464579000Y-120058600D01*
X464579000Y-120058600D02*
X456221900Y-120058600D01*
X456221900Y-120058600D02*
X454660000Y-118496700D01*
X454660000Y-118496700D02*
X454660000Y-117700700D01*
X454660000Y-117700700D02*
X449024900Y-112065600D01*
X449024900Y-112065600D02*
X413846600Y-112065600D01*
X413846600Y-112065600D02*
X412271000Y-110490000D01*
X412271000Y-110490000D02*
X364345300Y-110490000D01*
X363220000Y-110490000D02*
X364345300Y-110490000D01*
X482600000Y-134620000D02*
X481474700Y-134620000D01*
X473854700Y-134620000D02*
X473854700Y-134901300D01*
X473854700Y-134901300D02*
X473003300Y-135752700D01*
X473003300Y-135752700D02*
X440929300Y-135752700D01*
X440929300Y-135752700D02*
X440911700Y-135735100D01*
X440911700Y-135735100D02*
X401188200Y-135735100D01*
X401188200Y-135735100D02*
X400222400Y-134769300D01*
X400222400Y-134769300D02*
X400222300Y-134769300D01*
X400222300Y-134769300D02*
X400222300Y-134542000D01*
X399097000Y-134542000D02*
X400222300Y-134542000D01*
X474980000Y-134620000D02*
X473854700Y-134620000D01*
X392602300Y-134542000D02*
X392602300Y-134823300D01*
X392602300Y-134823300D02*
X394133300Y-136354300D01*
X394133300Y-136354300D02*
X400303400Y-136354300D01*
X400303400Y-136354300D02*
X400472300Y-136185400D01*
X400472300Y-136185400D02*
X440725100Y-136185400D01*
X440725100Y-136185400D02*
X440786300Y-136246600D01*
X440786300Y-136246600D02*
X474268200Y-136246600D01*
X474268200Y-136246600D02*
X474430900Y-136083900D01*
X391477000Y-134542000D02*
X392602300Y-134542000D01*
X392442000Y-142400000D02*
X396252000Y-146210000D01*
X396252000Y-146210000D02*
X396252000Y-158147300D01*
X396252000Y-158147300D02*
X397539100Y-159434400D01*
X397539100Y-159434400D02*
X442690300Y-159434400D01*
X442690300Y-159434400D02*
X447184700Y-154940000D01*
X448310000Y-154940000D02*
X447184700Y-154940000D01*
X450850000Y-154940000D02*
X448310000Y-154940000D01*
X380787300Y-142400000D02*
X380787300Y-143445300D01*
X380787300Y-143445300D02*
X393712000Y-156370000D01*
X393712000Y-156370000D02*
X393712000Y-158146700D01*
X393712000Y-158146700D02*
X395450000Y-159884700D01*
X395450000Y-159884700D02*
X450141300Y-159884700D01*
X450141300Y-159884700D02*
X454804700Y-155221300D01*
X454804700Y-155221300D02*
X454804700Y-154940000D01*
X379742000Y-142400000D02*
X380787300Y-142400000D01*
X455930000Y-154940000D02*
X454804700Y-154940000D01*
X449707200Y-119268800D02*
X440152700Y-119268800D01*
X440152700Y-119268800D02*
X439275300Y-118391400D01*
X439275300Y-118391400D02*
X439275300Y-118110000D01*
X463694700Y-134620000D02*
X463694700Y-133051400D01*
X463694700Y-133051400D02*
X449912100Y-119268800D01*
X449912100Y-119268800D02*
X449707200Y-119268800D01*
X449707200Y-119268800D02*
X449707200Y-117649700D01*
X449707200Y-117649700D02*
X450800800Y-116556100D01*
X450800800Y-116556100D02*
X451996600Y-116556100D01*
X437024700Y-118110000D02*
X436439000Y-118695700D01*
X436439000Y-118695700D02*
X419510200Y-118695700D01*
X438150000Y-118110000D02*
X437024700Y-118110000D01*
X456154700Y-88900000D02*
X456154700Y-89173100D01*
X456154700Y-89173100D02*
X454769000Y-90558800D01*
X454769000Y-90558800D02*
X451996600Y-90558800D01*
X457200000Y-88900000D02*
X456154700Y-88900000D01*
X438150000Y-118110000D02*
X439275300Y-118110000D01*
X464820000Y-134620000D02*
X463694700Y-134620000D01*
X387362000Y-142400000D02*
X386316700Y-142400000D01*
X359410000Y-152400000D02*
X369050900Y-152400000D01*
X369050900Y-152400000D02*
X378472000Y-142978900D01*
X378472000Y-142978900D02*
X378472000Y-141848800D01*
X378472000Y-141848800D02*
X379247100Y-141073700D01*
X379247100Y-141073700D02*
X385284400Y-141073700D01*
X385284400Y-141073700D02*
X386316700Y-142106000D01*
X386316700Y-142106000D02*
X386316700Y-142400000D01*
X377202000Y-142400000D02*
X376156700Y-142400000D01*
X328912000Y-144360000D02*
X374196700Y-144360000D01*
X374196700Y-144360000D02*
X376156700Y-142400000D01*
X322412000Y-144360000D02*
X328912000Y-144360000D01*
X394017000Y-134542000D02*
X395142300Y-134542000D01*
X355535600Y-103081000D02*
X392747000Y-103081000D01*
X395142300Y-134542000D02*
X395142300Y-134823300D01*
X395142300Y-134823300D02*
X395987600Y-135668600D01*
X395987600Y-135668600D02*
X399963300Y-135668600D01*
X399963300Y-135668600D02*
X400029600Y-135602300D01*
X471394700Y-88900000D02*
X471394700Y-89208900D01*
X471394700Y-89208900D02*
X468673800Y-91929800D01*
X468673800Y-91929800D02*
X456615400Y-91929800D01*
X456615400Y-91929800D02*
X455752900Y-92792300D01*
X455752900Y-92792300D02*
X430937800Y-92792300D01*
X430937800Y-92792300D02*
X415224200Y-108505900D01*
X472440000Y-88900000D02*
X471394700Y-88900000D01*
X379924800Y-133204400D02*
X388433600Y-141713200D01*
X388433600Y-141713200D02*
X388433600Y-143130300D01*
X388433600Y-143130300D02*
X387838500Y-143725400D01*
X387838500Y-143725400D02*
X386147400Y-143725400D01*
X386147400Y-143725400D02*
X384822000Y-142400000D01*
X311055300Y-124460000D02*
X311055300Y-124827400D01*
X311055300Y-124827400D02*
X319432300Y-133204400D01*
X319432300Y-133204400D02*
X379924800Y-133204400D01*
X380803000Y-132326200D02*
X379924800Y-133204400D01*
X403860000Y-2540000D02*
X399667200Y-2540000D01*
X399667200Y-2540000D02*
X372430800Y-29776400D01*
X309880000Y-124460000D02*
X311055300Y-124460000D01*
X331245300Y-73660000D02*
X331245300Y-73366000D01*
X331245300Y-73366000D02*
X334054400Y-70556900D01*
X334054400Y-70556900D02*
X389124000Y-70556900D01*
X330200000Y-73660000D02*
X331245300Y-73660000D01*
X333785300Y-73660000D02*
X333785300Y-73366000D01*
X333785300Y-73366000D02*
X336100200Y-71051100D01*
X336100200Y-71051100D02*
X380054300Y-71051100D01*
X380054300Y-71051100D02*
X386584000Y-77580800D01*
X332740000Y-73660000D02*
X333785300Y-73660000D01*
X336325300Y-73660000D02*
X336325300Y-73366000D01*
X336325300Y-73366000D02*
X337865300Y-71826000D01*
X337865300Y-71826000D02*
X377582200Y-71826000D01*
X335280000Y-73660000D02*
X336325300Y-73660000D01*
X337820000Y-73660000D02*
X338865300Y-73660000D01*
X381504000Y-101406000D02*
X380328700Y-101406000D01*
X380328700Y-101406000D02*
X380328700Y-102214000D01*
X380328700Y-102214000D02*
X379961300Y-102581400D01*
X379961300Y-102581400D02*
X377915600Y-102581400D01*
X377915600Y-102581400D02*
X356870000Y-81535800D01*
X356870000Y-81535800D02*
X356870000Y-73142400D01*
X356870000Y-73142400D02*
X356013100Y-72285500D01*
X356013100Y-72285500D02*
X339945800Y-72285500D01*
X339945800Y-72285500D02*
X338865300Y-73366000D01*
X338865300Y-73366000D02*
X338865300Y-73660000D01*
X353060000Y-88900000D02*
X352014700Y-88900000D01*
X342900000Y-110490000D02*
X342900000Y-99060000D01*
X342900000Y-99060000D02*
X352014700Y-89945300D01*
X352014700Y-89945300D02*
X352014700Y-88900000D01*
X345440000Y-110490000D02*
X345440000Y-109364700D01*
X345440000Y-109364700D02*
X352311600Y-102493100D01*
X352311600Y-102493100D02*
X352311600Y-101057800D01*
X349105300Y-110490000D02*
X349105300Y-110771300D01*
X349105300Y-110771300D02*
X349990100Y-111656100D01*
X349990100Y-111656100D02*
X353541700Y-111656100D01*
X353541700Y-111656100D02*
X354420300Y-110777500D01*
X354420300Y-110777500D02*
X354420300Y-103170600D01*
X354420300Y-103170600D02*
X358140000Y-99450900D01*
X358140000Y-99450900D02*
X358140000Y-88900000D01*
X347980000Y-110490000D02*
X349105300Y-110490000D01*
X353060000Y-110490000D02*
X353060000Y-109364700D01*
X354554700Y-73660000D02*
X354554700Y-94045200D01*
X354554700Y-94045200D02*
X353060000Y-95539900D01*
X353060000Y-95539900D02*
X353060000Y-105304200D01*
X353060000Y-105304200D02*
X352969700Y-105394500D01*
X352969700Y-105394500D02*
X352969700Y-109274400D01*
X352969700Y-109274400D02*
X353060000Y-109364700D01*
X355600000Y-73660000D02*
X354554700Y-73660000D01*
X325120000Y-73660000D02*
X326165300Y-73660000D01*
X327660000Y-66040000D02*
X327660000Y-67215300D01*
X327660000Y-67215300D02*
X328725000Y-68280300D01*
X328725000Y-68280300D02*
X328725000Y-74370600D01*
X328725000Y-74370600D02*
X328102100Y-74993500D01*
X328102100Y-74993500D02*
X327204800Y-74993500D01*
X327204800Y-74993500D02*
X326165300Y-73954000D01*
X326165300Y-73954000D02*
X326165300Y-73660000D01*
X325120000Y-66040000D02*
X325120000Y-67215300D01*
X325120000Y-67215300D02*
X327660000Y-69755300D01*
X327660000Y-69755300D02*
X327660000Y-73660000D01*
X325120000Y-88900000D02*
X324074700Y-88900000D01*
X309915000Y-80352000D02*
X315526700Y-80352000D01*
X315526700Y-80352000D02*
X324074700Y-88900000D01*
X303415000Y-80352000D02*
X309915000Y-80352000D01*
X469900000Y-60960000D02*
X469900000Y-62135300D01*
X469900000Y-62135300D02*
X460747200Y-71288100D01*
X460747200Y-71288100D02*
X455669400Y-71288100D01*
X313595300Y-124460000D02*
X325762100Y-112293200D01*
X325762100Y-112293200D02*
X355437600Y-112293200D01*
X355437600Y-112293200D02*
X356870000Y-110860800D01*
X356870000Y-110860800D02*
X356870000Y-110111000D01*
X356870000Y-110111000D02*
X363106300Y-103874700D01*
X363106300Y-103874700D02*
X418809200Y-103874700D01*
X418809200Y-103874700D02*
X448534700Y-74149200D01*
X448534700Y-74149200D02*
X448534700Y-73660000D01*
X449580000Y-73660000D02*
X448534700Y-73660000D01*
X312420000Y-124460000D02*
X313595300Y-124460000D01*
X345440000Y-88900000D02*
X344394700Y-88900000D01*
X341630000Y-100330000D02*
X341630000Y-92710000D01*
X341630000Y-92710000D02*
X344394700Y-89945300D01*
X344394700Y-89945300D02*
X344394700Y-88900000D01*
X470420000Y-103465000D02*
X469555300Y-102600300D01*
X469555300Y-102600300D02*
X468807100Y-102600300D01*
X468807100Y-102600300D02*
X468541600Y-102865800D01*
X468541600Y-102865800D02*
X467940700Y-102865800D01*
X467940700Y-102865800D02*
X467509000Y-102434100D01*
X467509000Y-102434100D02*
X467509000Y-101792100D01*
X467509000Y-101792100D02*
X468083400Y-101217700D01*
X468083400Y-101217700D02*
X470919100Y-101217700D01*
X470919100Y-101217700D02*
X471680900Y-100455900D01*
X471680900Y-100455900D02*
X481455900Y-100455900D01*
X481455900Y-100455900D02*
X482600000Y-101600000D01*
X468854700Y-88900000D02*
X468854700Y-89204700D01*
X468854700Y-89204700D02*
X466855000Y-91204400D01*
X466855000Y-91204400D02*
X466621800Y-91204400D01*
X469900000Y-88900000D02*
X468854700Y-88900000D01*
X467360000Y-97238500D02*
X468765700Y-95832800D01*
X468765700Y-95832800D02*
X469442300Y-95832800D01*
X462280000Y-101600000D02*
X466641500Y-97238500D01*
X466641500Y-97238500D02*
X467360000Y-97238500D01*
X352620000Y-6150000D02*
X351494700Y-6150000D01*
X351494700Y-6150000D02*
X351494700Y-6431300D01*
X351494700Y-6431300D02*
X350450700Y-7475300D01*
X350450700Y-7475300D02*
X328290200Y-7475300D01*
X328290200Y-7475300D02*
X308935500Y-26830000D01*
X308935500Y-26830000D02*
X302907000Y-26830000D01*
X358140000Y-49530000D02*
X357094700Y-49530000D01*
X320687000Y-26830000D02*
X326481900Y-32624900D01*
X326481900Y-32624900D02*
X330383900Y-32624900D01*
X330383900Y-32624900D02*
X331470000Y-33711000D01*
X331470000Y-33711000D02*
X331470000Y-34782200D01*
X331470000Y-34782200D02*
X340092400Y-43404600D01*
X340092400Y-43404600D02*
X351263300Y-43404600D01*
X351263300Y-43404600D02*
X357094700Y-49236000D01*
X357094700Y-49236000D02*
X357094700Y-49530000D01*
X310527000Y-26830000D02*
X313067000Y-26830000D01*
X459595300Y-118110000D02*
X459595300Y-118391300D01*
X459595300Y-118391300D02*
X460455600Y-119251600D01*
X460455600Y-119251600D02*
X464693400Y-119251600D01*
X464693400Y-119251600D02*
X473444500Y-110500500D01*
X473444500Y-110500500D02*
X473444500Y-108995300D01*
X458470000Y-118110000D02*
X459595300Y-118110000D01*
X457055300Y-118110000D02*
X457055300Y-117828600D01*
X457055300Y-117828600D02*
X457899200Y-116984700D01*
X457899200Y-116984700D02*
X466270100Y-116984700D01*
X466270100Y-116984700D02*
X471522000Y-111732800D01*
X471522000Y-111732800D02*
X471522000Y-102970900D01*
X471522000Y-102970900D02*
X470691600Y-102140500D01*
X470691600Y-102140500D02*
X468241100Y-102140500D01*
X455930000Y-118110000D02*
X457055300Y-118110000D01*
X455571900Y-114116700D02*
X456500000Y-114116700D01*
X456500000Y-114116700D02*
X459740000Y-110876700D01*
X459740000Y-110876700D02*
X459740000Y-110120600D01*
X459740000Y-110120600D02*
X466483700Y-103376900D01*
X466483700Y-103376900D02*
X469056400Y-103376900D01*
X453680900Y-85774700D02*
X464654000Y-85774700D01*
X464654000Y-85774700D02*
X476474700Y-73954000D01*
X476474700Y-73954000D02*
X476474700Y-73660000D01*
X450850000Y-118110000D02*
X451975300Y-118110000D01*
X477520000Y-73660000D02*
X476474700Y-73660000D01*
X451975300Y-118110000D02*
X451975300Y-118391300D01*
X451975300Y-118391300D02*
X455147300Y-121563300D01*
X455147300Y-121563300D02*
X457256200Y-121563300D01*
X481105300Y-73660000D02*
X481105300Y-89626100D01*
X481105300Y-89626100D02*
X470964300Y-99767100D01*
X470964300Y-99767100D02*
X467539400Y-99767100D01*
X467539400Y-99767100D02*
X457055400Y-110251100D01*
X457055400Y-110251100D02*
X457055400Y-111018300D01*
X457055400Y-111018300D02*
X454439300Y-113634400D01*
X454439300Y-113634400D02*
X451766300Y-113634400D01*
X480060000Y-73660000D02*
X481105300Y-73660000D01*
X451260900Y-112619100D02*
X452917500Y-112619100D01*
X452917500Y-112619100D02*
X454660000Y-110876600D01*
X454660000Y-110876600D02*
X454660000Y-110155600D01*
X454660000Y-110155600D02*
X455602800Y-109212800D01*
X455602800Y-109212800D02*
X457449700Y-109212800D01*
X457449700Y-109212800D02*
X469654100Y-97008400D01*
X469654100Y-97008400D02*
X471200300Y-97008400D01*
X471200300Y-97008400D02*
X479014700Y-89194000D01*
X479014700Y-89194000D02*
X479014700Y-88900000D01*
X480060000Y-88900000D02*
X479014700Y-88900000D01*
X449580000Y-108762400D02*
X456906300Y-108762400D01*
X456906300Y-108762400D02*
X469110600Y-96558100D01*
X469110600Y-96558100D02*
X470167400Y-96558100D01*
X470167400Y-96558100D02*
X476474700Y-90250800D01*
X476474700Y-90250800D02*
X476474700Y-88900000D01*
X477520000Y-88900000D02*
X476474700Y-88900000D01*
X446895400Y-108574300D02*
X462189000Y-93280700D01*
X462189000Y-93280700D02*
X469894700Y-93280700D01*
X469894700Y-93280700D02*
X473934700Y-89240700D01*
X473934700Y-89240700D02*
X473934700Y-88900000D01*
X474980000Y-88900000D02*
X473934700Y-88900000D01*
X450909000Y-61247000D02*
X459690900Y-61247000D01*
X459690900Y-61247000D02*
X463780500Y-65336600D01*
X463780500Y-65336600D02*
X463780500Y-66688000D01*
X463780500Y-66688000D02*
X459905700Y-70562800D01*
X459905700Y-70562800D02*
X455369000Y-70562800D01*
X455369000Y-70562800D02*
X453390000Y-72541800D01*
X453390000Y-72541800D02*
X453390000Y-82550000D01*
X453390000Y-82550000D02*
X448085300Y-87854700D01*
X448085300Y-87854700D02*
X448085300Y-88900000D01*
X447040000Y-88900000D02*
X448085300Y-88900000D01*
X318742000Y-59469000D02*
X323695000Y-59469000D01*
X323695000Y-59469000D02*
X323822000Y-59342000D01*
X440575000Y-61120000D02*
X445782000Y-61120000D01*
X445782000Y-61120000D02*
X445909000Y-61247000D01*
X363665000Y-19180000D02*
X357445000Y-25400000D01*
X357445000Y-25400000D02*
X356235000Y-25400000D01*
X360240000Y-13770000D02*
X360240000Y-14895300D01*
X355515000Y-19180000D02*
X359799700Y-14895300D01*
X359799700Y-14895300D02*
X360240000Y-14895300D01*
X355822600Y-7183400D02*
X354116000Y-8890000D01*
X354116000Y-8890000D02*
X328930000Y-8890000D01*
X356574700Y-6150000D02*
X356574700Y-6431300D01*
X356574700Y-6431300D02*
X355822600Y-7183400D01*
X355822600Y-7183400D02*
X358970000Y-10330800D01*
X357700000Y-6150000D02*
X356574700Y-6150000D01*
X469900000Y-52070000D02*
X469900000Y-58420000D01*
X425450000Y-132080000D02*
X430530000Y-132080000D01*
X406400000Y-2540000D02*
X406400000Y-33723100D01*
X406400000Y-33723100D02*
X407944400Y-35267500D01*
D33*
X490220000Y-24130000D02*
X489069700Y-24130000D01*
X430530000Y-15240000D02*
X432480300Y-15240000D01*
X432480300Y-15240000D02*
X440220000Y-22979700D01*
X440220000Y-22979700D02*
X487919400Y-22979700D01*
X487919400Y-22979700D02*
X489069700Y-24130000D01*
M02*
