M48
INCH,TZ
T1C0.0157
T2C0.0315
T3C0.0354
T4C0.0394
T5C0.0433
T6C0.0512
T7C0.0669
T8C0.1024
%
G90
G05
T1
X128458Y-4966
X131500Y-64109
X131984Y-74891
X132663Y-64681
X133500Y-75352
X136000Y-66567
X136652Y-68681
X137088Y-66144
X137609Y-69428
X137774Y-69829
X138500Y-75221
X138705Y-39787
X139032Y-75200
X139250Y-41612
X139500Y-63378
X139500Y-76017
X139583Y-73339
X139975Y-40583
X140500Y-66200
X141327Y-4067
X143949Y-65498
X146626Y-11723
X148654Y-28278
X148654Y-67217
X149198Y-45051
X149922Y-52097
X150505Y-52842
X151791Y-75442
X152018Y-49969
X152198Y-30544
X152758Y-49688
X152909Y-52930
X153005Y-72773
X153113Y-74103
X153198Y-27778
X153571Y-74391
X154195Y-52240
X154200Y-72856
X154625Y-40583
X154962Y-74906
X155193Y-44500
X155396Y-54936
X155500Y-74813
X155771Y-66557
X156082Y-65498
X156313Y-74836
X156496Y-66616
X156874Y-72284
X156874Y-73133
X157492Y-53387
X158065Y-75368
X158327Y-64395
X158449Y-66559
X159319Y-64441
X159733Y-66845
X160120Y-64618
X160608Y-13885
X160988Y-68478
X161273Y-66171
X161593Y-66559
X162154Y-21133
X162468Y-19565
X162589Y-44181
X162770Y-67171
X162950Y-43722
X163052Y-7031
X163062Y-68522
X163144Y-56660
X163241Y-43050
X163329Y-534
X163386Y-66873
X163474Y-42719
X163484Y-54939
X163926Y-66824
X163950Y-54528
X164028Y-71945
X164269Y-2766
X164510Y-16428
X164517Y-66536
X164767Y-40610
X164976Y-7137
X165161Y-46731
X165261Y-37664
X165476Y-39661
X165500Y-75028
X165792Y-48331
X166500Y-64612
X166500Y-76017
X166738Y-42771
X167207Y-6997
X167475Y-66477
X167492Y-11723
X167721Y-7503
X167738Y-60606
X168070Y-45014
X168163Y-62482
X168509Y-56214
X168602Y-45542
X168602Y-46444
X168652Y-68571
X168727Y-67736
X168796Y-57449
X168895Y-8683
X169723Y-55251
X169932Y-56482
X169932Y-56876
X169991Y-41244
X170052Y-10151
X170300Y-72293
X170612Y-67476
X170890Y-53923
X170926Y-45527
X171170Y-54230
X171181Y-55743
X171195Y-55324
X171990Y-58921
X172180Y-36918
X172251Y-32433
X172258Y-45014
X172690Y-45304
X172714Y-60200
X173233Y-44419
X173396Y-53902
X173454Y-36238
X173496Y-45159
X173646Y-45691
X173660Y-44718
X173742Y-30474
X173791Y-54230
X174188Y-44734
X174643Y-32786
X175518Y-58775
X175943Y-42746
X177000Y-42820
X177500Y-36247
X177643Y-47885
X177662Y-44338
X177861Y-44738
X177951Y-35653
X177951Y-45888
X178615Y-33770
X179334Y-36224
X179344Y-40570
X179359Y-44928
X179397Y-28066
X179500Y-37536
X179861Y-25391
X180022Y-47860
X180863Y-31692
X180987Y-26954
X181342Y-51571
X181350Y-40570
X181681Y-26761
X181687Y-25223
X182057Y-39427
X182539Y-38596
X182557Y-56585
X183709Y-35907
X184000Y-38283
X184347Y-40213
X184645Y-3964
X184668Y-40700
X184820Y-37729
X185283Y-39564
X185492Y-54272
X185575Y-29607
X185575Y-35635
X185852Y-4325
X186097Y-36619
X186395Y-42912
X186784Y-53576
X187310Y-32811
X192572Y-15251
X192755Y-14769
X192921Y-27822
X194322Y-27308
X194608Y-28151
T2
X176500Y-58000
X176500Y-61000
X177500Y-58000
X177500Y-61000
X178500Y-58000
X178500Y-61000
X179500Y-58000
X179500Y-61000
X180500Y-58000
X180500Y-61000
X181500Y-58000
X181500Y-61000
X182500Y-58000
X182500Y-61000
X185205Y-38813
X185205Y-40734
X151000Y-50000
X151000Y-51969
X123255Y-10563
X126255Y-10563
X128000Y-38000
X131000Y-38000
X127705Y-7563
X127705Y-10563
X169500Y-52000
X172500Y-52000
X180000Y-26000
X181969Y-26000
X137998Y-7551
X139967Y-7551
X186024Y-68850
X186024Y-71850
X187024Y-68850
X187024Y-71850
X188024Y-68850
X188024Y-71850
X189024Y-68850
X189024Y-71850
X190024Y-68850
X190024Y-71850
X191024Y-68850
X191024Y-71850
X192024Y-68850
X192024Y-71850
X188031Y-40000
X190000Y-40000
X185500Y-59000
X185500Y-60969
X137000Y-38579
X137000Y-40500
X140250Y-10000
X142171Y-10000
X138000Y-26000
X139969Y-26000
X146000Y-44500
X146000Y-46469
X172500Y-43500
X172500Y-46500
X173500Y-43500
X173500Y-46500
X174500Y-43500
X174500Y-46500
X175500Y-43500
X175500Y-46500
X176500Y-43500
X176500Y-46500
X177500Y-43500
X177500Y-46500
X178500Y-43500
X178500Y-46500
X179500Y-43500
X179500Y-46500
X180500Y-43500
X180500Y-46500
X181500Y-43500
X181500Y-46500
X184500Y-44500
X184500Y-46469
X132500Y-2500
X132500Y-4469
X126500Y-3500
X129500Y-3500
X182000Y-20500
X185000Y-20500
X135827Y-2421
X135827Y-5421
X136827Y-2421
X136827Y-5421
X137827Y-2421
X137827Y-5421
X138827Y-2421
X138827Y-5421
X139827Y-2421
X139827Y-5421
X140827Y-2421
X140827Y-5421
X141827Y-2421
X141827Y-5421
X142827Y-2421
X142827Y-5421
X134000Y-43500
X134000Y-46500
X135000Y-43500
X135000Y-46500
X136000Y-43500
X136000Y-46500
X137000Y-43500
X137000Y-46500
X138000Y-43500
X138000Y-46500
X139000Y-43500
X139000Y-46500
X140000Y-43500
X140000Y-46500
X141000Y-43500
X141000Y-46500
X142000Y-43500
X142000Y-46500
X143000Y-43500
X143000Y-46500
X180031Y-40000
X182000Y-40000
X120737Y-54307
X120737Y-57307
X123737Y-54307
X123737Y-57307
X191000Y-3000
X194000Y-3000
X127489Y-23363
X129457Y-23363
X135000Y-22500
X135000Y-24469
X190031Y-55500
X192000Y-55500
X181000Y-50000
X181000Y-53000
X182000Y-50000
X182000Y-53000
X183000Y-50000
X183000Y-53000
X184000Y-50000
X184000Y-53000
X185000Y-50000
X185000Y-53000
X186000Y-50000
X186000Y-53000
X187000Y-50000
X187000Y-53000
X188000Y-50000
X188000Y-53000
X189000Y-50000
X189000Y-53000
X190000Y-50000
X190000Y-53000
X191000Y-50000
X191000Y-53000
X192000Y-50000
X192000Y-53000
X133961Y-59094
X136961Y-59094
X175500Y-68850
X175500Y-71850
X176500Y-68850
X176500Y-71850
X177500Y-68850
X177500Y-71850
X178500Y-68850
X178500Y-71850
X179500Y-68850
X179500Y-71850
X180500Y-68850
X180500Y-71850
X181500Y-68850
X181500Y-71850
X182500Y-68850
X182500Y-71850
X133961Y-63094
X136961Y-63094
X141207Y-7551
X143175Y-7551
X175555Y-24113
X177523Y-24113
X172500Y-71531
X172500Y-73500
X145500Y-71500
X145500Y-73469
X172500Y-56000
X172500Y-57969
X175531Y-66500
X177500Y-66500
X129505Y-59563
X129505Y-62563
X133961Y-61094
X136961Y-61094
X154125Y-49969
X154125Y-52969
X155125Y-49969
X155125Y-52969
X156125Y-49969
X156125Y-52969
X157125Y-49969
X157125Y-52969
X158125Y-49969
X158125Y-52969
X159125Y-49969
X159125Y-52969
X160125Y-49969
X160125Y-52969
X186000Y-66500
X187969Y-66500
X119255Y-10563
X122255Y-10563
X190398Y-21673
X190398Y-24350
X191500Y-21673
X191500Y-22500
X191500Y-23524
X191500Y-24350
X176000Y-38000
X179000Y-38000
X132531Y-39500
X134500Y-39500
X139531Y-39500
X141500Y-39500
X129205Y-7563
X129205Y-10563
T3
X166500Y-52000
X167500Y-52000
X191701Y-9500
X191701Y-10484
X191701Y-11469
X193000Y-9500
X193000Y-10484
X193000Y-11469
T4
X159000Y-1000
X160000Y-1000
X176000Y-29000
X176000Y-35000
X177000Y-29000
X177000Y-35000
X178000Y-29000
X178000Y-35000
X179000Y-29000
X179000Y-35000
X180000Y-29000
X180000Y-35000
X181000Y-29000
X181000Y-35000
X182000Y-29000
X182000Y-35000
X183000Y-29000
X183000Y-35000
X184000Y-29000
X184000Y-35000
X185000Y-29000
X185000Y-35000
X186000Y-29000
X186000Y-35000
X187000Y-29000
X187000Y-35000
X188000Y-29000
X188000Y-35000
X189000Y-29000
X189000Y-35000
X159198Y-39924
X160198Y-39924
X161198Y-39924
X162198Y-39924
X163198Y-39924
X120489Y-23413
X121489Y-23413
X122489Y-23413
X123489Y-23413
X124489Y-23413
X125489Y-23413
X127500Y-68000
X127500Y-74000
X128500Y-68000
X128500Y-74000
X129500Y-68000
X129500Y-74000
X130500Y-68000
X130500Y-74000
X131500Y-68000
X131500Y-74000
X132500Y-68000
X132500Y-74000
X133500Y-68000
X133500Y-74000
X134500Y-68000
X134500Y-74000
X135500Y-68000
X135500Y-74000
X136500Y-68000
X136500Y-74000
X137500Y-68000
X137500Y-74000
X138500Y-68000
X138500Y-74000
X139500Y-68000
X139500Y-74000
X140500Y-68000
X140500Y-74000
X121000Y-49000
X122000Y-49000
X123000Y-49000
X192000Y-14500
X192000Y-15500
X192000Y-16500
X121000Y-43500
X122000Y-43500
X144000Y-1000
X145000Y-1000
X146000Y-1000
X147000Y-1000
X168455Y-24063
X169455Y-24063
X170455Y-24063
X171455Y-24063
X172455Y-24063
X173455Y-24063
X185000Y-23000
X185000Y-24000
X193200Y-39000
X193200Y-40000
X193200Y-41000
X128000Y-13500
X128000Y-19500
X129000Y-13500
X129000Y-19500
X130000Y-13500
X130000Y-19500
X131000Y-13500
X131000Y-19500
X132000Y-13500
X132000Y-19500
X133000Y-13500
X133000Y-19500
X134000Y-13500
X134000Y-19500
X135000Y-13500
X135000Y-19500
X136000Y-13500
X136000Y-19500
X137000Y-13500
X137000Y-19500
X138000Y-13500
X138000Y-19500
X139000Y-13500
X139000Y-19500
X140000Y-13500
X140000Y-19500
X141000Y-13500
X141000Y-19500
X128000Y-29000
X128000Y-35000
X129000Y-29000
X129000Y-35000
X130000Y-29000
X130000Y-35000
X131000Y-29000
X131000Y-35000
X132000Y-29000
X132000Y-35000
X133000Y-29000
X133000Y-35000
X134000Y-29000
X134000Y-35000
X135000Y-29000
X135000Y-35000
X136000Y-29000
X136000Y-35000
X137000Y-29000
X137000Y-35000
X138000Y-29000
X138000Y-35000
X139000Y-29000
X139000Y-35000
X140000Y-29000
X140000Y-35000
X141000Y-29000
X141000Y-35000
X140500Y-56000
X141500Y-56000
X186500Y-1000
X187500Y-1000
X188500Y-1000
X189500Y-1000
X190500Y-1000
X191500Y-1000
X192500Y-1000
X193500Y-1000
X152000Y-1000
X153000Y-1000
X156198Y-39924
X157198Y-39924
X149198Y-39924
X150198Y-39924
X151198Y-39924
X152198Y-39924
X153198Y-39924
X154198Y-39924
X154500Y-68000
X154500Y-74000
X155500Y-68000
X155500Y-74000
X156500Y-68000
X156500Y-74000
X157500Y-68000
X157500Y-74000
X158500Y-68000
X158500Y-74000
X159500Y-68000
X159500Y-74000
X160500Y-68000
X160500Y-74000
X161500Y-68000
X161500Y-74000
X162500Y-68000
X162500Y-74000
X163500Y-68000
X163500Y-74000
X164500Y-68000
X164500Y-74000
X165500Y-68000
X165500Y-74000
X166500Y-68000
X166500Y-74000
X167500Y-68000
X167500Y-74000
X128000Y-26000
X129000Y-26000
X164500Y-1000
X165500Y-1000
X166500Y-1000
X167500Y-1000
X148505Y-56063
X148505Y-62063
X149505Y-56063
X149505Y-62063
X150505Y-56063
X150505Y-62063
X151505Y-56063
X151505Y-62063
X152505Y-56063
X152505Y-62063
X153505Y-56063
X153505Y-62063
X154505Y-56063
X154505Y-62063
X155505Y-56063
X155505Y-62063
X156505Y-56063
X156505Y-62063
X157505Y-56063
X157505Y-62063
X158505Y-56063
X158505Y-62063
X159505Y-56063
X159505Y-62063
X160505Y-56063
X160505Y-62063
X161505Y-56063
X161505Y-62063
X162505Y-56063
X162505Y-62063
X163505Y-56063
X163505Y-62063
X164505Y-56063
X164505Y-62063
X165505Y-56063
X165505Y-62063
X166505Y-56063
X166505Y-62063
X167505Y-56063
X167505Y-62063
X140500Y-60000
X141500Y-60000
X169500Y-1000
X170500Y-1000
X171500Y-1000
X172500Y-1000
X173500Y-1000
X174500Y-1000
X175500Y-1000
X176500Y-1000
X177500Y-1000
X178500Y-1000
X179500Y-1000
X180500Y-1000
X181500Y-1000
X182500Y-1000
X183500Y-1000
X184500Y-1000
T5
X119455Y-29863
X119455Y-31635
X122014Y-29863
X122014Y-31635
X126934Y-55063
X126934Y-56835
X129493Y-55063
X129493Y-56835
X169500Y-6000
X169500Y-11000
T6
X192850Y-44581
X192850Y-46550
T7
X121750Y-5343
T8
X119781Y-5343
X121750Y-3571
X123719Y-5343
T4
G00X192327Y-20315
M15
G01X192917Y-20315
M16
G05
G00X192327Y-25709
M15
G01X192917Y-25709
M16
G05
G00X192937Y-23406
M15
G01X192937Y-22618
M16
G05
T0
M30
